<svg width="187" height="71" viewBox="0 0 187 71" fill="none" xmlns="http://www.w3.org/2000/svg">
<g style="mix-blend-mode:multiply">
<rect width="187" height="61" fill="#FCE353"/>
</g>
<g style="mix-blend-mode:multiply">
<path d="M91.4072 28.3903C91.6733 28.2475 92.0122 27.9671 92.0206 27.7343C92.0262 27.5201 91.6369 27.2953 91.2083 26.8535C91.0067 27.4196 90.8106 27.7105 90.8386 27.983C90.8554 28.1443 91.3148 28.4379 91.4072 28.3903Z" fill="#D92892"/>
<path d="M91.2883 60.9746C91.0222 61.4534 90.7141 61.7602 90.7729 61.9665C90.8429 62.2046 91.2435 62.3554 91.5012 62.5458C91.6944 62.2998 92.0277 62.0591 92.0333 61.8078C92.0389 61.5962 91.6664 61.374 91.2883 60.9746Z" fill="#D92892"/>
<path d="M91.428 56.4735C91.1115 56.6216 90.8174 56.9576 90.7054 57.275C90.6634 57.3914 91.2207 57.8913 91.3888 57.8437C91.7193 57.7511 91.9714 57.3993 92.4391 56.992C91.9518 56.7275 91.5849 56.3995 91.428 56.4735Z" fill="#D92892"/>
<path d="M91.4979 42.9374C91.7304 42.9374 91.9629 42.5697 92.397 42.1809C91.89 41.9534 91.5679 41.6862 91.3467 41.7444C91.0946 41.8105 90.9321 42.1729 90.7305 42.4057C90.9882 42.5961 91.243 42.9374 91.4979 42.9374Z" fill="#D92892"/>
<path d="M91.4021 52.8079C91.643 52.5302 91.9959 52.2815 92.0771 51.9694C92.1247 51.7869 91.7298 51.5039 91.3881 51.0859C91.0604 51.5912 90.7495 51.8927 90.6963 52.2313C90.6711 52.3873 91.15 52.6148 91.4021 52.8079Z" fill="#D92892"/>
<path d="M94.9922 70.9998H97.8827C97.5494 70.529 97.0396 70.0344 96.4935 69.3281C95.9053 70.037 95.3367 70.529 94.9922 70.9998Z" fill="#D92892"/>
<path d="M91.5644 24.6519C92.0686 23.8954 92.6539 23.406 92.5951 23.0013C92.5335 22.5702 91.8977 21.9512 91.4468 21.893C90.6289 21.7872 90.0211 22.385 90.2284 23.1865C90.3404 23.6414 90.9314 23.988 91.5644 24.6519Z" fill="#D92892"/>
<path d="M91.4893 18.8764C91.8562 18.8791 92.2259 18.3738 92.7945 17.94C92.1587 17.5327 91.7274 17.0407 91.3633 17.0804C91.0132 17.1201 90.495 17.7099 90.4922 18.0591C90.4922 18.3527 91.1308 18.8738 91.4893 18.8764Z" fill="#D92892"/>
<path d="M24.4075 65.015C23.4832 65.0705 22.6569 65.9275 22.7773 66.7819C22.9034 67.6654 23.4692 68.1785 24.4355 68.2209C25.4494 68.2658 26.1916 67.5728 26.1748 66.6206C26.1552 65.6868 25.3542 64.9568 24.4075 65.015Z" fill="#D92892"/>
<path d="M24.5434 70.1585C23.7872 70.1479 23.1682 70.4759 22.9609 70.9996H26.0111C25.7786 70.5103 25.2045 70.169 24.5434 70.1585Z" fill="#D92892"/>
<path d="M13.9323 24.9563C15.1087 25.0647 16.1086 24.2659 16.1843 23.1523C16.2599 22.0413 15.3804 21.1102 14.2152 21.0732C13.0781 21.0388 12.0866 21.9408 12.0782 23.0174C12.0726 24.0093 12.8848 24.8584 13.9323 24.9563Z" fill="#D92892"/>
<path d="M24.458 55.2121C23.2872 55.2756 22.587 55.8866 22.4777 57.0029C22.3685 58.1085 23.2704 59.0449 24.4327 59.0872C25.5699 59.1269 26.567 58.2249 26.5782 57.151C26.5866 56.0586 25.6231 55.1486 24.458 55.2121Z" fill="#D92892"/>
<path d="M101.684 13.9405C101.855 13.6707 102.169 13.3956 102.152 13.1337C102.138 12.901 101.765 12.6867 101.409 12.3164C101.093 12.7396 100.687 13.139 100.748 13.221C100.975 13.5173 101.359 13.7077 101.684 13.9405Z" fill="#D92892"/>
<path d="M90.543 70.9997H92.047C91.8146 70.7061 91.4925 70.3146 91.1227 69.7988C90.9043 70.312 90.6774 70.6849 90.543 70.9997Z" fill="#D92892"/>
<path d="M101.396 51.1328C101.085 51.474 100.539 51.81 100.528 52.1618C100.516 52.5215 101.029 52.8945 101.457 53.4473C101.939 52.9183 102.595 52.4633 102.513 52.2305C102.368 51.7967 101.794 51.4925 101.396 51.1328Z" fill="#D92892"/>
<path d="M101.489 68.7444C102.248 67.8054 102.89 67.3108 103.083 66.6918C103.324 65.9194 102.22 64.9751 101.366 65.118C100.472 65.2687 99.7526 65.8163 99.9682 66.7024C100.117 67.3108 100.766 67.8107 101.489 68.7444Z" fill="#D92892"/>
<path d="M102.739 42.3432C102.769 41.957 102.145 41.2904 101.677 41.1502C100.882 40.9095 100.139 41.4147 100.181 42.2003C100.209 42.7479 100.781 43.269 101.405 44.2794C102.092 43.3457 102.697 42.8643 102.739 42.3432Z" fill="#D92892"/>
<path d="M100.478 61.6272C100.537 62.0953 100.979 62.6482 101.427 62.8809C101.626 62.9841 102.551 62.418 102.576 62.1112C102.615 61.6483 102.156 61.151 101.772 60.3945C101.128 60.9817 100.442 61.3468 100.478 61.6272Z" fill="#D92892"/>
<path d="M101.56 58.3732C102.013 58.4208 102.562 57.6907 103.568 56.9263C102.431 56.4158 101.828 55.9132 101.291 55.9714C100.845 56.019 100.067 56.8919 100.165 57.1115C100.4 57.6484 101.025 58.315 101.56 58.3732Z" fill="#D92892"/>
<path d="M101.628 46.5128C101.213 46.6187 100.779 47.0128 100.6 47.391C100.527 47.5471 101.132 48.2454 101.353 48.2163C101.787 48.1555 102.171 47.7587 102.782 47.3672C102.25 46.9546 101.857 46.452 101.628 46.5128Z" fill="#D92892"/>
<path d="M101.546 22.5171C101.303 22.6599 101.098 22.9139 100.986 23.1678C100.955 23.2366 101.367 23.6095 101.493 23.5751C101.759 23.5011 101.969 23.2524 102.308 22.9906C101.927 22.7472 101.63 22.4695 101.546 22.5171Z" fill="#D92892"/>
<path d="M102.381 27.6929C102.42 27.4839 101.72 26.8967 101.574 26.9575C101.174 27.1215 100.751 27.4945 100.616 27.8754C100.544 28.0791 101.051 28.4652 101.465 28.9758C101.88 28.4335 102.305 28.0923 102.381 27.6929Z" fill="#D92892"/>
<path d="M101.533 38.6273C101.951 38.6696 102.438 38.0877 103.236 37.5508C102.418 37.0191 101.914 36.4372 101.497 36.4874C101.051 36.5403 100.685 37.1884 100.281 37.5772C100.696 37.9528 101.082 38.5824 101.533 38.6273Z" fill="#D92892"/>
<path d="M101.591 32.211C101.316 32.2162 101.05 32.5389 100.781 32.7241C100.986 32.978 101.148 33.3669 101.409 33.4409C101.63 33.5044 101.969 33.2029 102.493 32.9437C102.058 32.5733 101.82 32.2083 101.591 32.211Z" fill="#D92892"/>
<path d="M95.8672 52.0828C96.0997 52.2838 96.3013 52.551 96.5758 52.6568C96.6822 52.6991 96.9455 52.3896 97.3265 52.096C96.9203 51.8632 96.6654 51.6305 96.3881 51.5961C96.2369 51.5829 96.0408 51.9109 95.8672 52.0828Z" fill="#D92892"/>
<path d="M96.3889 38.4461C96.767 38.4435 97.3944 37.9542 97.4421 37.6182C97.4897 37.2717 96.9659 36.8591 96.529 36.248C96.0612 36.7929 95.5206 37.1447 95.5234 37.4965C95.5234 37.8378 96.0808 38.4488 96.3889 38.4461Z" fill="#D92892"/>
<path d="M97.4333 32.8696C97.4137 32.5099 96.8507 32.1739 96.5258 31.8301C96.1729 32.1343 95.5959 32.4041 95.5287 32.7585C95.467 33.0786 95.9628 33.4912 96.3577 34.0811C96.8675 33.5388 97.4501 33.1897 97.4333 32.8696Z" fill="#D92892"/>
<path d="M96.3786 41.4829C96.1517 41.4406 95.5887 41.9669 95.5635 42.2632C95.5383 42.5621 95.992 43.1625 96.2329 43.1625C96.6615 43.1599 97.09 42.8054 97.8294 42.4457C97.1712 41.9802 96.8099 41.5622 96.3786 41.4829Z" fill="#D92892"/>
<path d="M96.5765 58.109C96.7838 58.1778 97.5821 57.4742 97.5485 57.1779C97.4952 56.7124 96.9659 56.2971 96.4505 55.6094C95.9295 56.2998 95.3357 56.7679 95.4226 57.0457C95.5598 57.4901 96.0976 57.953 96.5765 58.109Z" fill="#D92892"/>
<path d="M97.6066 61.8215C97.5254 61.4009 96.7804 60.7819 96.3715 60.8137C95.9541 60.8454 95.3043 61.5517 95.2931 61.9775C95.2819 62.3902 95.9513 62.8213 96.5927 63.5514C97.0997 62.7446 97.6851 62.2262 97.6066 61.8215Z" fill="#D92892"/>
<path d="M96.5867 46.6655C96.2338 46.7713 95.9565 47.1019 95.6484 47.34C95.9537 47.5674 96.2338 47.8928 96.5783 47.9827C96.752 48.0277 97.0489 47.6441 97.413 47.3611C97.0461 47.0384 96.738 46.6205 96.5867 46.6655Z" fill="#D92892"/>
<path d="M95.4299 66.8225C95.4355 67.1187 96.1525 67.6425 96.525 67.6213C96.906 67.6002 97.5726 67.0129 97.5446 66.722C97.497 66.2591 96.9816 65.8359 96.3794 65C95.8808 65.8888 95.4187 66.3596 95.4299 66.8225Z" fill="#D92892"/>
<path d="M96.5691 28.7537C96.7988 28.8331 97.2974 28.2274 97.8688 27.7777C97.2918 27.3624 96.908 26.8704 96.5271 26.8731C96.1546 26.8757 95.7877 27.3862 95.418 27.6745C95.7933 28.0581 96.107 28.595 96.5691 28.7537Z" fill="#D92892"/>
<path d="M96.4222 23.899C96.7751 23.9307 97.1813 23.4202 97.8003 22.9759C97.1561 22.595 96.7667 22.2114 96.3438 22.1744C96.0833 22.1532 95.4867 22.7457 95.5428 22.9203C95.6716 23.3171 96.0833 23.8699 96.4222 23.899Z" fill="#D92892"/>
<path d="M97.3955 18.0469C97.3591 17.6898 96.8213 17.2745 96.4012 17.1052C96.236 17.0391 95.5525 17.5734 95.5469 17.8406C95.5413 18.232 95.9335 18.6288 96.3032 19.2795C96.8297 18.7188 97.4263 18.3537 97.3955 18.0469Z" fill="#D92892"/>
<path d="M24.6186 60.0171C23.5179 59.9589 22.6468 60.6545 22.5348 61.6808C22.4143 62.8024 23.2686 63.7731 24.417 63.8181C25.5485 63.8631 26.5624 62.9373 26.5512 61.8687C26.5428 60.8952 25.6858 60.0753 24.6186 60.0171Z" fill="#D92892"/>
<path d="M39.9244 65.5996C39.5714 65.9223 38.9945 66.208 38.9272 66.5783C38.8656 66.9222 39.3474 67.3507 39.7087 67.9353C40.2745 67.4618 41.0111 67.0491 40.9523 66.856C40.8066 66.3852 40.2913 66.0122 39.9244 65.5996Z" fill="#D92892"/>
<path d="M39.9256 60.1309C38.8977 60.123 37.9426 61.0064 37.9734 61.9349C38.0042 62.858 39.0405 63.7997 40.004 63.6833C41.0236 63.5616 41.6846 63.0062 41.7602 61.9851C41.8386 60.9535 41.018 60.1388 39.9256 60.1309Z" fill="#D92892"/>
<path d="M32.9191 66.7732C33.0619 67.6566 33.6753 68.3206 34.6248 68.1222C35.2831 67.9846 35.8264 67.363 36.8488 66.6674C35.8292 65.932 35.2999 65.3078 34.6332 65.1279C33.7706 64.8925 32.7819 65.9214 32.9191 66.7732Z" fill="#D92892"/>
<path d="M32.8205 55.6787C31.7113 56.8822 32.053 57.9588 34.2013 59.6464C32.3807 61.281 32.1119 62.2677 33.1118 63.2517C33.8568 63.9844 35.078 64.0928 35.851 63.3839C36.2208 63.0453 36.6913 62.4264 36.5877 62.0772C36.3104 61.1488 35.7446 60.2997 35.2825 59.3977C37.0946 57.9085 37.3943 56.7182 36.2068 55.557C35.1844 54.5598 33.8064 54.61 32.8205 55.6787Z" fill="#D92892"/>
<path d="M39.921 49.959C38.6634 49.9511 37.6719 50.9007 37.6719 52.1122C37.6719 53.3078 38.6858 54.2891 39.9126 54.2812C41.1086 54.2759 42.2037 53.2416 42.2065 52.1201C42.2093 50.9853 41.131 49.9643 39.921 49.959Z" fill="#D92892"/>
<path d="M39.8962 55.043C38.6694 55.043 37.647 56.1433 37.7675 57.3363C37.8795 58.4578 38.8626 59.2355 40.0642 59.1561C41.2182 59.0794 42.1621 58.1087 42.1089 57.0533C42.0584 56.0375 40.9633 55.043 39.8962 55.043Z" fill="#D92892"/>
<path d="M33.9766 70.9979H35.419C35.0465 70.7519 34.7552 70.5773 34.5059 70.6196C34.3127 70.654 34.1418 70.8048 33.9766 70.9979Z" fill="#D92892"/>
<path d="M29.0703 70.9979H30.1403C29.9414 70.8392 29.7649 70.7308 29.5941 70.7387C29.4176 70.7493 29.244 70.8577 29.0703 70.9979Z" fill="#D92892"/>
<path d="M29.7636 64.3223C28.8561 65.3697 28.1195 65.8988 27.8758 66.5838C27.5789 67.4118 28.5228 68.2238 29.5227 68.2238C30.4975 68.2238 31.2537 67.7239 31.1557 66.851C31.08 66.1448 30.4414 65.4967 29.7636 64.3223Z" fill="#D92892"/>
<path d="M29.6048 60.0929C28.4957 60.0586 27.6722 60.8045 27.6526 61.8599C27.6358 62.8624 28.4929 63.7379 29.5152 63.7564C30.4871 63.775 31.4982 62.865 31.5318 61.9472C31.5626 61.0161 30.6411 60.1247 29.6048 60.0929Z" fill="#D92892"/>
<path d="M29.4167 55.2125C28.3243 55.276 27.5317 56.051 27.5009 57.0826C27.4673 58.1909 28.4028 59.0982 29.5623 59.085C30.6967 59.0718 31.691 58.1116 31.649 57.0668C31.6098 56.014 30.5679 55.1464 29.4167 55.2125Z" fill="#D92892"/>
<path d="M111.845 48.5816C112.424 48.4917 112.931 47.9732 113.9 47.386C112.945 46.7327 112.388 46.0582 111.895 46.0952C111.399 46.1349 110.702 46.8226 110.565 47.3384C110.363 48.0949 111.007 48.7112 111.845 48.5816Z" fill="#D92892"/>
<path d="M139.061 18.0323C139.246 17.1435 138.496 16.4981 137.588 16.6462C137.039 16.7361 136.23 17.408 136.204 17.855C136.171 18.4264 136.809 19.0321 137.454 20.1272C138.257 19.122 138.938 18.6274 139.061 18.0323Z" fill="#D92892"/>
<path d="M142.572 24.8182C143.664 24.8526 144.577 24.0855 144.622 23.0936C144.664 22.1599 143.745 21.2076 142.748 21.1547C141.742 21.1018 140.796 21.9403 140.745 22.9322C140.687 24.0009 141.446 24.7838 142.572 24.8182Z" fill="#D92892"/>
<path d="M137.474 13.9603C137.846 13.9206 138.185 13.6164 138.841 13.2514C138.194 12.9128 137.849 12.6166 137.488 12.5901C137.289 12.5769 136.88 13.0239 136.883 13.2593C136.886 13.5106 137.292 13.9788 137.474 13.9603Z" fill="#D92892"/>
<path d="M135.956 29.3848C137.098 30.4349 138.328 30.1995 140.168 28.5807C142.224 30.0778 143.196 30.2286 144.221 29.2076C145.005 28.4246 145 27.1364 144.207 26.3614C143.218 25.3986 142.112 25.5811 140.092 27.065C139.557 26.4884 139.017 25.9038 138.361 25.1975C139.896 23.547 140.112 22.5313 139.09 21.6134C138.235 20.8463 137.244 20.7696 136.334 21.4573C135.939 21.7562 135.457 22.3831 135.547 22.7429C135.779 23.6898 136.306 24.5733 136.734 25.5308C135.02 27.1126 134.76 28.2844 135.956 29.3848Z" fill="#D92892"/>
<path d="M142.615 34.7122C143.618 34.728 144.581 33.8869 144.654 32.932C144.727 31.9533 143.92 31.083 142.845 30.9852C141.724 30.882 140.848 31.5433 140.725 32.5828C140.59 33.7017 141.47 34.691 142.615 34.7122Z" fill="#D92892"/>
<path d="M142.658 49.3659C143.795 49.3606 144.753 48.4375 144.747 47.3477C144.742 46.242 143.809 45.3691 142.635 45.3691C141.484 45.3691 140.518 46.2817 140.523 47.3609C140.529 48.4084 141.549 49.3686 142.658 49.3659Z" fill="#D92892"/>
<path d="M127.176 24.0659C127.568 23.6876 128.1 23.3623 128.282 22.9073C128.358 22.7169 127.691 22.2592 127.184 21.7461C126.77 22.2936 126.252 22.6772 126.283 23.0158C126.316 23.3887 126.854 23.7194 127.176 24.0659Z" fill="#D92892"/>
<path d="M132.581 13.9382C132.679 14.007 133.122 13.6314 133.592 13.3457C133.206 13.0072 132.99 12.6633 132.733 12.6368C132.469 12.6078 132.17 12.8908 131.887 13.0363C132.108 13.351 132.279 13.7293 132.581 13.9382Z" fill="#D92892"/>
<path d="M142.533 19.8257C143.502 19.8866 144.555 18.9872 144.592 18.0667C144.628 17.1409 143.665 16.2151 142.64 16.2469C141.567 16.2786 140.92 16.8182 140.794 17.834C140.668 18.8285 141.505 19.7623 142.533 19.8257Z" fill="#D92892"/>
<path d="M142.762 14.0967C142.949 14.1496 143.571 13.5862 143.549 13.3402C143.512 12.9461 143.1 12.5837 142.694 11.9727C142.232 12.5546 141.694 12.9408 141.728 13.2714C141.762 13.5941 142.344 13.983 142.762 14.0967Z" fill="#D92892"/>
<path d="M142.544 9.28484C142.939 9.13142 143.221 8.71085 143.546 8.39872C143.404 8.28498 143.261 8.13156 143.118 8.00195H142.081C141.913 8.1395 141.723 8.30614 141.496 8.46485C141.967 8.84839 142.378 9.34832 142.544 9.28484Z" fill="#D92892"/>
<path d="M132.625 9.32452C132.997 9.10497 133.372 8.67646 133.445 8.27969C133.462 8.18976 133.454 8.09718 133.431 8.00195H131.989C131.835 8.23472 131.703 8.4675 131.703 8.70027C131.703 8.92246 132.487 9.40387 132.625 9.32452Z" fill="#D92892"/>
<path d="M132.442 49.1272C133.514 49.1854 134.439 48.4448 134.511 47.4661C134.581 46.5482 133.696 45.588 132.708 45.5113C131.702 45.432 130.761 46.2255 130.685 47.2201C130.607 48.2702 131.341 49.0664 132.442 49.1272Z" fill="#D92892"/>
<path d="M132.607 43.9315C133.624 43.9368 134.335 43.1697 134.26 42.2016C134.187 41.2652 133.313 40.5642 132.366 40.6806C131.417 40.797 130.666 41.6884 130.837 42.5639C131.013 43.4633 131.644 43.9262 132.607 43.9315Z" fill="#D92892"/>
<path d="M132.412 54.3155C133.543 54.4108 134.709 53.3633 134.756 52.2074C134.807 50.943 133.891 50.0384 132.56 50.041C131.398 50.0437 130.404 50.8769 130.3 51.9349C130.196 53.0168 131.261 54.2177 132.412 54.3155Z" fill="#D92892"/>
<path d="M127.164 13.838C127.45 13.7216 127.823 13.4782 127.867 13.2375C127.904 13.0338 127.531 12.764 127.142 12.2773C126.873 12.8196 126.643 13.092 126.641 13.3645C126.638 13.5311 127.066 13.875 127.164 13.838Z" fill="#D92892"/>
<path d="M132.731 18.8196C132.916 18.8804 133.314 18.3541 133.793 17.9388C133.255 17.5949 132.905 17.1955 132.594 17.222C132.269 17.2484 131.986 17.6901 131.684 17.9494C132.028 18.2588 132.325 18.6873 132.731 18.8196Z" fill="#D92892"/>
<path d="M126.658 8.48601C126.63 8.68969 126.999 8.93833 127.386 9.39064C127.621 8.87749 127.826 8.61298 127.829 8.34846C127.829 8.25589 127.674 8.09718 127.534 8.00195H127.162C126.927 8.12627 126.683 8.30879 126.658 8.48601Z" fill="#D92892"/>
<path d="M101.476 17.3361C101.21 17.344 100.728 17.7249 100.751 17.8915C100.798 18.2354 101.12 18.5475 101.51 19.148C101.852 18.5449 102.154 18.2222 102.176 17.8862C102.188 17.7037 101.717 17.3281 101.476 17.3361Z" fill="#D92892"/>
<path d="M132.448 29.3801C133.165 29.3087 133.815 28.6315 134.367 28.3009C134.216 26.9175 133.776 26.2139 132.658 26.1848C131.603 26.1557 130.872 26.6662 130.827 27.7004C130.779 28.7003 131.418 29.4832 132.448 29.3801Z" fill="#D92892"/>
<path d="M132.474 24.2518C133.06 24.191 133.597 23.7043 134.614 23.1673C133.701 22.469 133.189 21.776 132.69 21.7813C132.2 21.7866 131.466 22.432 131.295 22.9319C131.04 23.6752 131.617 24.3418 132.474 24.2518Z" fill="#D92892"/>
<path d="M134.104 32.6414C133.91 32.025 133.207 31.5489 132.42 30.6602C131.731 31.6521 131.107 32.2023 130.953 32.8556C130.757 33.6915 131.849 34.4559 132.807 34.3051C133.793 34.1491 134.373 33.501 134.104 32.6414Z" fill="#D92892"/>
<path d="M142.745 40.5418C141.617 40.4889 140.79 41.2005 140.751 42.2559C140.715 43.2584 141.549 44.1445 142.569 44.1895C143.549 44.2318 144.56 43.3615 144.616 42.4278C144.678 41.4756 143.801 40.5921 142.745 40.5418Z" fill="#D92892"/>
<path d="M155.039 13.4671C153.815 12.7053 153.23 12.1393 153.008 12.2477C152.555 12.4673 152.297 13.0465 151.961 13.4777C152.378 13.7316 152.79 14.176 153.219 14.1892C153.695 14.2025 154.185 13.8295 155.039 13.4671Z" fill="#D92892"/>
<path d="M152.892 9.19087C153.021 9.2861 153.455 9.00836 153.926 8.83378C153.755 8.52166 153.629 8.17779 153.514 8.00586H152.858C152.654 8.08257 152.447 8.18044 152.242 8.2545C152.449 8.57721 152.598 8.97397 152.892 9.19087Z" fill="#D92892"/>
<path d="M153.041 24.3277C153.528 24.3171 154.385 23.5368 154.377 23.103C154.366 22.5264 153.68 21.9603 152.915 20.8652C152.223 22.0053 151.571 22.6137 151.599 23.1903C151.624 23.6241 152.537 24.3383 153.041 24.3277Z" fill="#D92892"/>
<path d="M152.781 16.9473C152.501 17.3493 151.994 17.7567 152.008 18.1482C152.019 18.4894 152.619 18.8121 153.131 19.312C153.56 18.7274 154.162 18.1878 154.056 17.9947C153.817 17.553 153.229 17.2858 152.781 16.9473Z" fill="#D92892"/>
<path d="M152.949 35.7725C151.896 35.8042 150.983 36.6824 151.017 37.6267C151.05 38.5472 152.07 39.4756 153.03 39.4598C154.027 39.4439 154.91 38.5366 154.901 37.542C154.896 36.484 154.075 35.7407 152.949 35.7725Z" fill="#D92892"/>
<path d="M152.978 30.6583C151.776 30.6715 150.737 31.7825 150.821 32.9622C150.902 34.0943 151.827 34.8799 153.053 34.8614C154.221 34.8429 155.21 33.9621 155.263 32.8934C155.314 31.8037 154.132 30.6451 152.978 30.6583Z" fill="#D92892"/>
<path d="M146.277 37.7489C146.411 38.6509 146.988 39.1508 147.971 39.1587C148.977 39.1667 149.94 38.3493 149.649 37.5161C149.408 36.8231 148.672 36.2835 148.33 35.8867C146.913 35.9767 146.142 36.8443 146.277 37.7489Z" fill="#D92892"/>
<path d="M148.039 9.36419C148.409 9.36948 148.784 8.86162 149.361 8.42253C149.145 8.28234 148.955 8.13685 148.781 8.00195H147.288C147.146 8.18182 147.039 8.38285 147.039 8.53891C147.036 8.83252 147.678 9.3589 148.039 9.36419Z" fill="#D92892"/>
<path d="M146.145 42.2942C146.059 43.2729 147.165 44.3097 148.114 43.9976C148.848 43.7543 149.406 43.0348 150.459 42.1963C149.319 41.4768 148.672 40.7838 147.927 40.6674C146.862 40.5061 146.235 41.2996 146.145 42.2942Z" fill="#D92892"/>
<path d="M153.226 40.1163C151.986 39.9973 150.848 40.8728 150.697 42.0631C150.532 43.3804 151.554 44.5019 152.949 44.5257C154.14 44.5469 155.338 43.5391 155.417 42.4493C155.492 41.3701 154.422 40.23 153.226 40.1163Z" fill="#D92892"/>
<path d="M135.684 37.5494C135.675 38.6604 136.67 39.5518 137.796 39.4433C138.801 39.3455 139.655 38.417 139.605 37.4807C139.552 36.5152 138.647 35.7402 137.585 35.7481C136.471 35.7587 135.692 36.4993 135.684 37.5494Z" fill="#D92892"/>
<path d="M137.535 48.8584C138.487 48.9008 139.235 48.3321 139.112 47.4301C139.028 46.8085 138.401 46.2503 137.723 45.2188C136.902 46.1974 136.166 46.7 136.042 47.311C135.866 48.1734 136.588 48.8161 137.535 48.8584Z" fill="#D92892"/>
<path d="M147.789 14.2159C148.277 14.2265 148.773 13.7901 149.711 13.3192C148.826 12.7505 148.378 12.2638 147.888 12.2215C147.579 12.1951 146.96 12.8246 146.938 13.1843C146.918 13.5335 147.476 14.208 147.789 14.2159Z" fill="#D92892"/>
<path d="M137.468 40.329C136.367 40.4031 135.401 41.4399 135.477 42.4636C135.555 43.5322 136.606 44.3893 137.746 44.3152C138.891 44.2411 139.779 43.2783 139.703 42.1912C139.631 41.1093 138.603 40.2523 137.468 40.329Z" fill="#D92892"/>
<path d="M142.681 39.5372C143.832 39.5161 144.776 38.5638 144.725 37.4767C144.672 36.371 143.664 35.5378 142.485 35.6277C141.404 35.7097 140.591 36.5218 140.574 37.5402C140.558 38.6405 141.524 39.5584 142.681 39.5372Z" fill="#D92892"/>
<path d="M142.759 50.1143C141.614 50.0535 140.552 50.9369 140.491 52.0082C140.432 53.0081 141.46 54.0978 142.527 54.1666C143.622 54.238 144.684 53.3122 144.751 52.233C144.821 51.1274 143.925 50.1751 142.759 50.1143Z" fill="#D92892"/>
<path d="M137.737 30.843C136.592 30.7795 135.567 31.6736 135.536 32.766C135.508 33.7659 136.298 34.6414 137.345 34.7657C138.491 34.9006 139.566 34.086 139.681 32.9988C139.796 31.909 138.891 30.9092 137.737 30.843Z" fill="#D92892"/>
<path d="M147.952 24.1846C148.79 24.3142 149.372 23.719 149.193 22.9202C149.087 22.4414 148.541 22.05 147.905 21.2617C147.345 22.1055 146.759 22.6134 146.742 23.1371C146.728 23.4916 147.471 24.1105 147.952 24.1846Z" fill="#D92892"/>
<path d="M147.02 18.0556C147.014 18.3545 147.672 18.8994 148.042 18.902C148.423 18.9047 148.809 18.3862 149.406 17.9339C148.751 17.5133 148.305 17.0055 147.924 17.0452C147.56 17.0848 147.025 17.6932 147.02 18.0556Z" fill="#D92892"/>
<path d="M150.583 28.4926C152.244 30.1538 153.37 30.4289 154.538 29.4634C155.529 28.6434 155.706 27.2944 154.795 26.4268C154.375 26.0247 153.625 25.5619 153.146 25.6624C152.154 25.8687 151.247 26.4295 150.247 26.8712C148.544 25.5089 147.255 25.3211 146.278 26.3607C145.539 27.1489 145.555 28.4636 146.317 29.2518C147.396 30.3654 148.513 30.167 150.583 28.4926Z" fill="#D92892"/>
<path d="M137.774 50.554C136.825 50.4429 135.749 51.1888 135.945 52.0009C136.113 52.7018 136.78 53.297 137.071 53.7123C138.491 53.7705 139.275 53.0325 139.256 52.1014C139.233 51.1941 138.721 50.6651 137.774 50.554Z" fill="#D92892"/>
<path d="M131.524 37.6285C131.435 37.8243 132.07 38.3189 132.546 38.8744C133.009 38.3427 133.563 37.983 133.549 37.647C133.532 37.2609 133.014 36.8932 132.712 36.5176C132.294 36.8773 131.734 37.1789 131.524 37.6285Z" fill="#D92892"/>
<path d="M106.817 43.2531C107.175 43.2875 107.593 42.7982 108.189 42.4014C107.643 41.9147 107.161 41.2719 106.946 41.3434C106.461 41.5047 106.108 42.0179 105.699 42.3882C106.069 42.6977 106.416 43.2161 106.817 43.2531Z" fill="#D92892"/>
<path d="M110.617 52.1664C110.603 52.5473 111.267 53.1795 111.741 53.2985C112.553 53.4996 113.264 52.9652 113.177 52.177C113.116 51.6295 112.516 51.1348 111.841 50.1641C111.214 51.1242 110.637 51.6348 110.617 52.1664Z" fill="#D92892"/>
<path d="M111.958 58.3932C112.457 58.4091 112.981 57.7134 113.911 57.0151C112.894 56.4649 112.356 55.9702 111.768 55.9041C110.903 55.8062 110.32 56.4728 110.564 57.2187C110.732 57.724 111.463 58.3773 111.958 58.3932Z" fill="#D92892"/>
<path d="M111.839 68.7452C113.172 68.7505 114.107 67.8379 114.063 66.5735C114.021 65.3726 112.92 64.4045 111.696 64.4918C110.511 64.5764 109.433 65.7562 109.547 66.838C109.657 67.8776 110.696 68.7399 111.839 68.7452Z" fill="#D92892"/>
<path d="M106.908 9.42503C107.269 9.43297 107.644 8.89071 108.204 8.4384C108.017 8.30085 107.835 8.14743 107.667 8.00195H106.221C106.039 8.21092 105.868 8.44104 105.684 8.63943C106.09 8.92246 106.496 9.41709 106.908 9.42503Z" fill="#D92892"/>
<path d="M111.875 63.7784C112.844 63.7652 113.833 62.8156 113.833 61.8977C113.836 60.9455 112.906 60.0991 111.853 60.0938C110.741 60.0885 109.929 60.8635 109.946 61.9136C109.965 62.8923 110.898 63.7917 111.875 63.7784Z" fill="#D92892"/>
<path d="M111.242 8.42253C111.466 8.61827 111.665 8.87484 111.928 8.98065C112.032 9.02033 112.287 8.71878 112.648 8.43575C112.34 8.26118 112.124 8.0866 111.914 8.00195H111.618C111.5 8.09453 111.365 8.30085 111.242 8.42253Z" fill="#D92892"/>
<path d="M110.616 42.453C110.734 42.9397 111.283 43.3312 111.935 44.13C112.501 43.2651 113.089 42.744 113.103 42.2097C113.112 41.8499 112.35 41.2283 111.86 41.1569C111.008 41.0326 110.42 41.6357 110.616 42.453Z" fill="#D92892"/>
<path d="M114.859 61.9474C114.94 62.8494 115.822 63.6879 116.374 64.5846C114.884 66.1638 114.691 67.1239 115.732 68.0683C116.531 68.7904 117.69 68.8274 118.517 68.1582C119.64 67.2456 119.491 66.2802 117.928 64.3386C120.211 62.2225 120.231 61.9236 118.091 59.4319C119.853 57.5962 120.032 56.6598 118.878 55.5727C117.948 54.6972 116.559 54.6443 115.601 55.4484C114.371 56.48 114.539 57.6306 116.055 59.3393C115.598 60.2625 114.789 61.1407 114.859 61.9474Z" fill="#D92892"/>
<path d="M111.838 38.7729C112.401 38.7094 112.894 38.1063 113.751 37.4926C112.846 36.9424 112.381 36.4452 111.86 36.387C110.992 36.2917 110.39 36.8869 110.619 37.691C110.751 38.1513 111.465 38.8178 111.838 38.7729Z" fill="#D92892"/>
<path d="M111.895 33.3432C111.99 33.3908 112.284 33.0919 112.671 32.8221C112.295 32.5656 112.063 32.3143 111.783 32.2534C111.645 32.2243 111.236 32.6343 111.267 32.6899C111.41 32.9465 111.631 33.2057 111.895 33.3432Z" fill="#D92892"/>
<path d="M106.901 27.1406C106.649 27.3284 106.265 27.4766 106.19 27.7146C106.123 27.9236 106.406 28.2304 106.534 28.4949C106.73 28.5981 106.929 28.7012 107.125 28.8044C107.249 28.4949 107.495 28.1749 107.464 27.8786C107.436 27.6167 107.1 27.3866 106.901 27.1406Z" fill="#D92892"/>
<path d="M106.652 58.511C107.299 58.474 107.91 57.8894 109.052 57.2704C107.994 56.5166 107.439 55.8236 106.826 55.7786C106.352 55.7442 105.526 56.4319 105.361 56.9451C105.092 57.7809 105.7 58.5665 106.652 58.511Z" fill="#D92892"/>
<path d="M106.693 51.1345C106.315 51.1689 105.679 51.7931 105.721 52.0894C105.785 52.5523 106.323 52.957 106.97 53.7823C107.435 52.8538 107.88 52.3592 107.847 51.8937C107.824 51.5948 107.071 51.1001 106.693 51.1345Z" fill="#D92892"/>
<path d="M106.715 68.5835C107.852 68.6364 108.877 67.7106 108.871 66.6393C108.866 65.6553 108.014 64.83 106.939 64.7692C105.745 64.7031 104.793 65.5654 104.813 66.6922C104.832 67.7053 105.667 68.5358 106.715 68.5835Z" fill="#D92892"/>
<path d="M100.691 8.42782C100.862 8.75581 101.181 9.18432 101.498 9.22665C101.753 9.26103 102.083 8.79285 102.618 8.35111C102.333 8.22679 102.106 8.09982 101.907 8.00195H101.002C100.82 8.15802 100.661 8.36963 100.691 8.42782Z" fill="#D92892"/>
<path d="M107.552 47.4143C107.267 47.1657 107.015 46.7927 106.681 46.7081C106.41 46.6393 106.04 46.9117 105.359 47.163C106.278 47.7132 106.564 48.02 106.805 47.9909C107.076 47.9539 107.306 47.618 107.552 47.4143Z" fill="#D92892"/>
<path d="M106.58 63.4404C107.577 63.5806 108.395 62.951 108.504 61.5491C108.115 61.2423 107.56 60.4699 106.869 60.3376C105.866 60.1445 105.163 60.8772 105.115 61.8745C105.076 62.7606 105.642 63.3055 106.58 63.4404Z" fill="#D92892"/>
<path d="M117.062 54.0055C118.165 54.0557 119.045 53.3495 119.16 52.3179C119.286 51.1937 118.42 50.2203 117.255 50.1753C116.205 50.1356 115.269 50.8895 115.138 51.8814C114.989 52.9844 115.863 53.9499 117.062 54.0055Z" fill="#D92892"/>
<path d="M106.227 32.6705C106.232 32.9376 106.439 33.1995 106.678 33.7126C107.061 33.263 107.434 33.0117 107.406 32.808C107.375 32.5858 107.002 32.353 106.725 32.2393C106.63 32.2023 106.224 32.5197 106.227 32.6705Z" fill="#D92892"/>
<path d="M106.746 13.9996C107.054 14.0445 107.435 13.6346 108.037 13.2722C107.457 12.9098 107.135 12.5818 106.771 12.5289C106.558 12.4971 106.032 12.9627 106.068 13.1055C106.161 13.452 106.463 13.9573 106.746 13.9996Z" fill="#D92892"/>
<path d="M106.765 38.4791C107.121 38.5294 107.558 38.0691 108.157 37.7147C107.647 37.1989 107.197 36.527 106.998 36.5878C106.508 36.7386 106.135 37.2253 105.715 37.5771C106.062 37.8998 106.376 38.4262 106.765 38.4791Z" fill="#D92892"/>
<path d="M122.227 31.6406C121.678 31.8205 120.956 32.4236 120.93 32.8839C120.905 33.3415 121.65 33.8361 122.412 34.7354C122.936 33.7224 123.457 33.1642 123.423 32.6352C123.398 32.257 122.499 31.5507 122.227 31.6406Z" fill="#D92892"/>
<path d="M122.154 23.902C122.499 23.9469 122.924 23.4444 123.56 23.0159C122.924 22.6138 122.549 22.217 122.134 22.1747C121.868 22.1483 121.249 22.7223 121.3 22.8915C121.42 23.2936 121.807 23.857 122.154 23.902Z" fill="#D92892"/>
<path d="M122.225 29.1395C122.841 29.084 123.393 28.3909 124.404 27.6582C123.306 27.0446 122.69 26.4388 122.043 26.4044C121.11 26.3568 120.471 27.1266 120.763 27.9809C120.933 28.4941 121.76 29.1818 122.225 29.1395Z" fill="#D92892"/>
<path d="M121.441 42.3535C121.388 42.5148 121.92 43.0571 122.046 43.0174C122.391 42.909 122.758 42.6339 122.917 42.3297C122.999 42.1789 122.648 41.8218 122.368 41.3457C121.929 41.7954 121.545 42.0334 121.441 42.3535Z" fill="#D92892"/>
<path d="M117.108 49.4924C117.884 48.5719 118.55 48.0773 118.774 47.4451C119.057 46.641 118.049 45.7839 117.086 45.858C116.108 45.9321 115.45 46.4981 115.643 47.3842C115.78 48.0138 116.422 48.5454 117.108 49.4924Z" fill="#D92892"/>
<path d="M127.365 54.13C128.452 54.0665 129.468 53.0085 129.409 52.0007C129.345 50.94 128.281 50.0539 127.138 50.1121C125.97 50.1703 125.082 51.1119 125.144 52.2229C125.205 53.3233 126.222 54.1962 127.365 54.13Z" fill="#D92892"/>
<path d="M127.22 34.0672C127.682 34.1387 128.271 33.4747 129.265 32.8426C128.304 32.2157 127.744 31.565 127.276 31.6205C126.75 31.6813 126.307 32.3744 125.828 32.7949C126.285 33.2473 126.696 33.9879 127.22 34.0672Z" fill="#D92892"/>
<path d="M127.312 48.9465C128.214 48.9068 129.194 47.9599 128.894 47.2034C128.651 46.5897 127.973 46.1321 127.163 45.2539C126.474 46.1718 125.847 46.6796 125.685 47.2959C125.452 48.1768 126.382 48.9888 127.312 48.9465Z" fill="#D92892"/>
<path d="M127.344 43.3844C127.767 43.4003 128.215 42.7892 128.972 42.21C128.126 41.7285 127.591 41.181 127.173 41.2524C126.736 41.3265 126.412 41.9957 126.039 42.4057C126.473 42.7575 126.896 43.3685 127.344 43.3844Z" fill="#D92892"/>
<path d="M127.274 28.9258C127.61 29.0316 128.198 28.4179 129.103 27.8624C128.251 27.2514 127.764 26.6377 127.237 26.606C126.831 26.5822 125.957 27.3863 126.027 27.6429C126.167 28.1613 126.739 28.7591 127.274 28.9258Z" fill="#D92892"/>
<path d="M128.182 37.5092C128.093 37.1495 127.521 36.803 127.082 36.6628C126.93 36.6152 126.311 37.2288 126.337 37.5066C126.37 37.8901 126.81 38.2419 127.255 38.8529C127.709 38.2313 128.255 37.8002 128.182 37.5092Z" fill="#D92892"/>
<path d="M123.087 37.6141C122.922 37.2359 122.434 36.9819 122.081 36.6777C121.813 36.9713 121.286 37.3073 121.331 37.548C121.401 37.9289 121.855 38.2463 122.308 38.7806C122.695 38.2304 123.174 37.8125 123.087 37.6141Z" fill="#D92892"/>
<path d="M118.033 32.8987C118.025 32.5786 117.568 32.2692 117.308 31.957C116.952 32.2639 116.47 32.5204 116.297 32.9013C116.218 33.0706 116.753 33.4938 117.157 33.9779C117.568 33.5018 118.042 33.195 118.033 32.8987Z" fill="#D92892"/>
<path d="M117.929 27.8059C117.985 27.5943 117.548 27.0336 117.42 27.0574C117.039 27.1235 116.529 27.3378 116.4 27.6261C116.296 27.8562 116.68 28.2794 116.98 28.8825C117.45 28.3773 117.843 28.1287 117.929 27.8059Z" fill="#D92892"/>
<path d="M122.205 48.429C122.622 48.4793 123.12 47.9053 123.933 47.3789C123.148 46.8473 122.672 46.2733 122.255 46.3103C121.812 46.35 121.109 46.9716 121.109 47.3366C121.112 47.7254 121.768 48.3761 122.205 48.429Z" fill="#D92892"/>
<path d="M117.111 43.4282C117.528 43.5049 118.075 42.9335 118.929 42.4362C118.159 41.8464 117.699 41.2221 117.271 41.2406C116.811 41.2592 116.38 41.886 115.938 42.2458C116.321 42.6637 116.655 43.3462 117.111 43.4282Z" fill="#D92892"/>
<path d="M116.931 18.586C117.13 18.6971 117.527 18.4934 118.102 18.3744C117.785 17.9062 117.653 17.4883 117.427 17.438C117.16 17.3798 116.819 17.6417 116.508 17.7634C116.642 18.049 116.701 18.4564 116.931 18.586Z" fill="#D92892"/>
<path d="M117.205 38.4058C117.42 38.4851 117.86 38.0275 118.423 37.6704C117.882 37.2551 117.546 36.8346 117.135 36.7473C116.902 36.6997 116.541 37.2075 116.238 37.4641C116.552 37.7947 116.81 38.2603 117.205 38.4058Z" fill="#D92892"/>
<path d="M122.186 54.4364C123.007 53.4233 123.738 52.8731 123.945 52.1801C124.228 51.2411 123.161 50.3391 122.091 50.437C121.016 50.5349 120.279 51.1935 120.483 52.151C120.632 52.8388 121.388 53.4101 122.186 54.4364Z" fill="#D92892"/>
<path d="M122.338 59.1315C123.467 59.0706 124.433 58.1025 124.391 57.0762C124.352 56.0869 123.257 55.0977 122.204 55.0977C121.123 55.1003 120.067 56.0552 120.025 57.0656C119.98 58.2004 121.1 59.1976 122.338 59.1315Z" fill="#D92892"/>
<path d="M117.133 69.85C116.435 69.8632 115.746 70.3737 115.43 70.998H118.883C118.586 70.3393 117.866 69.8341 117.133 69.85Z" fill="#D92892"/>
<path d="M39.9652 14.5544C40.4861 14.4565 41.1668 13.7344 41.2256 13.2318C41.2816 12.7715 40.6038 12.2319 39.9764 11.3379C39.2593 12.1896 38.6039 12.6287 38.5087 13.1577C38.3435 14.0491 39.0409 14.7263 39.9652 14.5544Z" fill="#D92892"/>
<path d="M50.2883 60.3389C49.28 60.1617 48.5854 60.8971 48.563 61.8969C48.5434 62.783 49.1148 63.3226 50.0559 63.4417C51.0586 63.5686 51.8568 62.9338 51.9409 61.5187C51.5487 61.2198 50.983 60.4606 50.2883 60.3389Z" fill="#D92892"/>
<path d="M48.7969 70.9989H51.6622C51.0992 70.6127 50.6791 70.3085 50.2197 70.2371C49.5279 70.1287 49.0434 70.4646 48.7969 70.9989Z" fill="#D92892"/>
<path d="M50.2289 65.5547C49.8536 65.88 49.173 66.208 49.1758 66.5281C49.1814 66.9778 49.6968 67.4221 50.1673 68.1337C50.7471 67.4724 51.3801 67.0307 51.3045 66.7741C51.17 66.3085 50.6098 65.9541 50.2289 65.5547Z" fill="#D92892"/>
<path d="M50.9581 52.1125C50.9245 51.8533 50.5183 51.639 50.2719 51.4062C50.0366 51.639 49.6501 51.848 49.6081 52.1072C49.5716 52.3294 49.9273 52.6098 50.2354 53.0462C50.594 52.6098 50.9861 52.3373 50.9581 52.1125Z" fill="#D92892"/>
<path d="M48.7314 57.1932C48.8603 57.7989 49.5885 58.2883 50.4036 59.2485C51.0646 58.2248 51.6752 57.672 51.7592 57.053C51.8824 56.1484 51.1206 55.6167 50.1907 55.6564C49.2468 55.696 48.5522 56.3415 48.7314 57.1932Z" fill="#D92892"/>
<path d="M50.271 9.64791C50.7639 9.61088 51.2149 9.05276 51.9711 8.53167C51.7387 8.35445 51.537 8.16929 51.3493 8H49.2823C49.1898 8.10845 49.1198 8.21955 49.0834 8.328C48.8201 9.12682 49.4615 9.70875 50.271 9.64791Z" fill="#D92892"/>
<path d="M55.5003 19.6613C56.5758 19.5211 57.2677 18.836 57.0128 17.8838C56.8307 17.2066 56.0549 16.6697 55.209 15.6777C54.436 16.7305 53.7357 17.3124 53.5593 18.0107C53.324 18.9603 54.4304 19.8015 55.5003 19.6613Z" fill="#D92892"/>
<path d="M50.1157 19.195C50.6843 19.1923 51.2528 18.6395 52.1883 18.1158C51.3509 17.4862 50.9391 16.9546 50.4182 16.8329C49.5471 16.6266 48.8917 17.1715 49.0149 17.9914C49.0849 18.4596 49.7319 19.1976 50.1157 19.195Z" fill="#D92892"/>
<path d="M50.3709 24.5362C51.0207 24.3193 51.5137 23.6897 52.48 22.9226C51.4633 22.2905 50.9031 21.7085 50.2505 21.5948C49.3094 21.4308 48.7492 22.1132 48.64 22.9729C48.5363 23.7902 49.5811 24.8007 50.3709 24.5362Z" fill="#D92892"/>
<path d="M50.3164 14.1295C50.6301 14.1322 51.1959 13.5185 51.2015 13.172C51.2071 12.8176 50.6637 12.4578 50.1932 11.9023C49.7478 12.5187 49.2156 12.9366 49.2605 13.2884C49.2997 13.6243 49.9355 14.1242 50.3164 14.1295Z" fill="#D92892"/>
<path d="M50.2936 29.4997C51.4027 29.4548 52.1645 28.7855 52.0273 27.8333C51.9265 27.127 51.1646 26.5054 50.4084 25.4395C49.5373 26.4129 48.7587 26.9419 48.515 27.6376C48.1761 28.5924 49.204 29.5447 50.2936 29.4997Z" fill="#D92892"/>
<path d="M55.1514 15.2078C55.8992 14.3296 56.6415 13.8402 56.6331 13.3615C56.6247 12.8906 55.9385 12.187 55.4007 12.0257C54.608 11.785 53.8938 12.3352 53.989 13.1578C54.0534 13.7159 54.5744 14.2317 55.1514 15.2078Z" fill="#D92892"/>
<path d="M60.2149 68.4295C61.2148 68.5035 62.2987 67.6016 62.2203 66.6599C62.1419 65.6918 61.5901 65.0014 60.4837 64.9353C59.3998 64.8691 58.7164 65.3929 58.5259 66.4033C58.3411 67.3873 59.1701 68.3528 60.2149 68.4295Z" fill="#D92892"/>
<path d="M60.4673 69.7736C59.5906 69.718 58.8203 70.2417 58.5234 70.9983H62.2066C61.9153 70.3396 61.2291 69.8238 60.4673 69.7736Z" fill="#D92892"/>
<path d="M60.1546 58.7141C61.1657 58.8437 61.9863 58.1719 62.034 57.2223C62.0816 56.278 61.3281 55.4924 60.3702 55.4844C59.4179 55.4765 58.5636 56.2595 58.6029 57.1535C58.6421 58.074 59.2051 58.5951 60.1546 58.7141Z" fill="#D92892"/>
<path d="M61.1217 13.3021C61.1189 13.0349 60.6568 12.6911 60.3207 12.5482C60.1918 12.4927 59.6456 12.8921 59.6372 13.0958C59.6232 13.4264 59.8949 13.7703 60.161 14.3654C60.6456 13.8602 61.1245 13.5772 61.1217 13.3021Z" fill="#D92892"/>
<path d="M60.247 46.6053C59.9641 46.6582 59.6813 47.1687 59.6028 47.5205C59.572 47.666 60.1098 48.113 60.3227 48.076C60.684 48.0125 60.9893 47.6739 61.5579 47.2904C60.9445 46.9465 60.5467 46.5471 60.247 46.6053Z" fill="#D92892"/>
<path d="M60.3639 18.9743C60.6384 19.0669 61.1509 18.5247 61.896 18.0538C61.1929 17.5486 60.7756 17.0302 60.3023 16.9799C59.9689 16.9455 59.56 17.5513 59.1875 17.8713C59.574 18.2628 59.8933 18.8156 60.3639 18.9743Z" fill="#D92892"/>
<path d="M60.1847 53.1585C60.5796 53.2591 61.1566 52.7274 62.0893 52.2486C61.2518 51.6455 60.8289 51.1192 60.3499 51.0663C59.997 51.0266 59.2044 51.6535 59.2436 51.8915C59.3192 52.3729 59.7562 53.0501 60.1847 53.1585Z" fill="#D92892"/>
<path d="M59.3047 8.41724C59.6268 8.75052 59.9069 9.29277 60.2822 9.3589C60.6183 9.41709 61.058 8.9542 61.6854 8.58124C61.453 8.3855 61.2541 8.17918 61.0777 8.00195H59.7304C59.5876 8.14479 59.4475 8.29821 59.3047 8.41724Z" fill="#D92892"/>
<path d="M58.7575 61.8053C58.4803 62.5962 59.4914 63.4559 60.4353 63.3792C61.3988 63.2998 62.0542 62.7364 61.8637 61.8635C61.7265 61.2393 61.0823 60.7155 60.4017 59.7871C59.637 60.6891 58.9788 61.1784 58.7575 61.8053Z" fill="#D92892"/>
<path d="M54.4689 51.9885C54.4605 52.3006 54.8918 52.6233 55.1299 52.9408C55.4912 52.6551 55.9757 52.425 56.1606 52.0599C56.2446 51.8933 55.7405 51.4621 55.3652 50.9648C54.9506 51.4172 54.4773 51.6975 54.4689 51.9885Z" fill="#D92892"/>
<path d="M55.334 58.5813C56.3115 58.5575 56.9753 57.9915 56.7877 57.1133C56.656 56.5023 55.9894 55.9944 55.264 55.0527C54.5554 56.0235 53.872 56.5605 53.7907 57.1715C53.6731 58.01 54.3425 58.6051 55.334 58.5813Z" fill="#D92892"/>
<path d="M53.8162 22.9197C53.6174 23.7688 54.2896 24.5385 55.2363 24.4301C55.8805 24.3586 56.4519 23.7132 57.5722 22.9938C56.4519 22.3219 55.8385 21.6712 55.2279 21.6738C54.7321 21.6765 53.9395 22.4039 53.8162 22.9197Z" fill="#D92892"/>
<path d="M55.4771 26.2832C54.5612 25.9975 53.6145 26.8413 53.5864 27.7327C53.5612 28.6135 54.4743 29.5816 55.3482 29.3568C56.0204 29.1822 56.5666 28.5712 57.5637 27.8835C56.6254 27.1349 56.1297 26.4868 55.4771 26.2832Z" fill="#D92892"/>
<path d="M60.4072 43.2084C60.7489 43.227 61.1242 42.7032 61.6984 42.2509C61.0598 41.8409 60.6117 41.341 60.2784 41.3992C59.8946 41.468 59.609 42.034 59.2812 42.3832C59.6566 42.6794 60.0151 43.1846 60.4072 43.2084Z" fill="#D92892"/>
<path d="M55.2672 31.6417C54.9927 31.557 54.1049 32.2686 54.0796 32.6548C54.046 33.1785 54.5754 33.7313 55.1216 34.7576C55.8806 33.8398 56.6229 33.3319 56.5892 32.8743C56.5584 32.4114 55.8218 31.8163 55.2672 31.6417Z" fill="#D92892"/>
<path d="M53.6971 61.985C53.7671 62.8658 54.4393 63.543 55.3888 63.3235C56.0358 63.1727 56.5484 62.5114 57.5707 61.739C56.4532 61.0936 55.8426 60.472 55.1844 60.4244C54.2573 60.3556 53.6243 61.0883 53.6971 61.985Z" fill="#D92892"/>
<path d="M54.1719 70.9979H56.4238C56.1633 70.6091 55.7908 70.1594 55.3931 69.5352C54.9169 70.1621 54.4632 70.6117 54.1719 70.9979Z" fill="#D92892"/>
<path d="M54.2992 66.6965C54.3384 67.0324 54.9742 67.5323 55.3552 67.5376C55.6689 67.5403 56.2374 66.9292 56.243 66.5854C56.2458 66.2309 55.7025 65.8712 55.2291 65.3184C54.7894 65.9267 54.2572 66.342 54.2992 66.6965Z" fill="#D92892"/>
<path d="M34.4887 17.1261C34.105 17.2266 33.7633 17.7741 33.6232 18.1947C33.5784 18.3296 34.2562 18.8957 34.5559 18.8666C34.9592 18.8242 35.3178 18.3957 35.948 17.954C35.2729 17.5466 34.794 17.0441 34.4887 17.1261Z" fill="#D92892"/>
<path d="M34.4917 24.502C35.4216 24.5496 36.1863 24.0232 36.0742 23.1212C35.9958 22.5049 35.3852 21.9468 34.7354 20.9258C33.9147 21.8727 33.1781 22.3568 33.0465 22.9599C32.8588 23.8063 33.5506 24.457 34.4917 24.502Z" fill="#D92892"/>
<path d="M29.6024 9.36684C29.9105 9.37213 30.4706 8.76375 30.4762 8.41988C30.479 8.28498 30.4006 8.15008 30.2774 8.00195H28.7957C28.6444 8.19769 28.5436 8.36963 28.5604 8.52833C28.5968 8.86162 29.227 9.36155 29.6024 9.36684Z" fill="#D92892"/>
<path d="M29.5496 14.2448C29.8997 13.9247 30.4963 13.6258 30.5355 13.274C30.5747 12.9037 30.0818 12.4831 29.698 11.8906C29.1575 12.3879 28.446 12.8005 28.5077 13.036C28.6253 13.4909 29.1771 13.848 29.5496 14.2448Z" fill="#D92892"/>
<path d="M28.7973 17.9579C28.9402 18.2885 29.2959 18.7488 29.5816 18.7593C29.8813 18.7699 30.1978 18.315 30.7552 17.8626C30.125 17.5875 29.7665 17.3151 29.4079 17.3204C29.1895 17.3204 28.7441 17.8283 28.7973 17.9579Z" fill="#D92892"/>
<path d="M34.5284 14.1274C34.8701 14.1856 35.3126 13.7121 35.9428 13.3339C35.363 12.8498 34.9877 12.297 34.6432 12.3128C34.2567 12.3313 33.901 12.8683 33.5312 13.1804C33.8618 13.5164 34.1474 14.0639 34.5284 14.1274Z" fill="#D92892"/>
<path d="M39.8163 24.5627C40.665 24.6791 41.7629 23.6898 41.4968 22.9465C41.2756 22.3302 40.6202 21.8541 39.8275 20.9336C39.1385 21.8832 38.5111 22.4043 38.3822 23.0153C38.1918 23.9067 38.9144 24.441 39.8163 24.5627Z" fill="#D92892"/>
<path d="M39.705 17.0958C39.5593 17.0534 38.9599 17.6909 38.9935 17.9766C39.0384 18.3575 39.4921 18.6961 39.9599 19.2912C40.3912 18.659 40.9206 18.2094 40.8393 17.9131C40.7385 17.556 40.1503 17.228 39.705 17.0958Z" fill="#D92892"/>
<path d="M34.6854 9.33245C34.9039 9.39858 35.3156 8.91188 36.394 8.12098C36.2819 8.08131 36.1755 8.04163 36.0747 8.00195H34.1337C33.9628 8.15008 33.7947 8.31143 33.6211 8.44369C33.9712 8.75846 34.2737 9.20548 34.6854 9.33245Z" fill="#D92892"/>
<path d="M39.8439 29.6685C41.0371 29.6976 41.9446 28.8142 41.8857 27.6847C41.8353 26.6769 40.9754 25.8728 39.9307 25.8596C38.7964 25.8437 37.816 26.7959 37.8609 27.8672C37.9057 28.8512 38.7767 29.6421 39.8439 29.6685Z" fill="#D92892"/>
<path d="M29.415 25.3645C30.2833 24.3778 31.0759 23.8488 31.2692 23.169C31.5381 22.2168 30.8462 21.5185 29.7707 21.3571C28.7204 21.1984 27.572 22.0475 27.7933 22.9944C27.9557 23.7007 28.6531 24.2958 29.415 25.3645Z" fill="#D92892"/>
<path d="M24.566 49.5797C25.6359 49.54 26.7871 48.2571 26.7002 47.1965C26.6106 46.1172 25.6163 45.292 24.4371 45.3211C23.2776 45.3502 22.2972 46.2495 22.2776 47.3102C22.2552 48.3497 23.5352 49.6167 24.566 49.5797Z" fill="#D92892"/>
<path d="M26.2095 37.6587C26.2571 36.717 25.4952 35.9235 24.5317 35.9103C23.5766 35.8997 22.7252 36.6826 22.7588 37.5899C22.7952 38.5184 23.3666 39.0394 24.3161 39.1611C25.3272 39.2907 26.1619 38.6056 26.2095 37.6587Z" fill="#D92892"/>
<path d="M23.4221 42.5167C23.4305 42.8077 24.3212 43.4002 24.5396 43.3023C24.9906 43.1013 25.4583 42.5617 25.5339 42.1041C25.6012 41.6967 25.1446 41.2153 24.9205 40.7656C24.6657 40.8794 24.408 40.9958 24.1531 41.1095C23.8842 41.5777 23.4109 42.0538 23.4221 42.5167Z" fill="#D92892"/>
<path d="M149.962 32.5956C149.844 31.564 148.957 30.8498 147.853 30.9054C146.766 30.9609 145.92 31.7756 145.906 32.7808C145.892 33.8785 146.892 34.7964 148.052 34.7461C149.231 34.6985 150.091 33.7277 149.962 32.5956Z" fill="#D92892"/>
<path d="M29.5592 43.9303C30.6543 43.9303 31.1977 43.3087 31.3013 41.8486C30.8336 41.5417 30.2146 40.8355 29.5003 40.735C28.4752 40.5895 27.8058 41.3354 27.8086 42.3432C27.8114 43.3748 28.492 43.9303 29.5592 43.9303Z" fill="#D92892"/>
<path d="M12 8.25658C12.1484 9.1374 12.577 9.97591 12.8683 10.7694C12.5798 11.1318 12.2885 11.4942 12 11.8566V14.5996C12.3445 14.9646 12.6526 15.2926 12.9495 15.6074C12.4453 16.4565 12.1316 17.1415 12 17.7103V18.7948C12.1064 19.1386 12.3305 19.4296 12.6694 19.6888C13.5321 20.3474 14.9297 20.2919 15.7504 19.5645C16.7503 18.6757 16.6747 17.787 15.4759 15.8957C15.9072 15.0016 16.6607 14.142 16.6355 13.3061C16.6075 12.3883 15.8596 11.4942 15.3835 10.5023C16.1789 9.39663 16.5122 8.64012 16.3946 8H12.0028C12.0028 8.00794 12 8.01323 12 8.01852V8.25658Z" fill="#D92892"/>
<path d="M19.136 15.3725C19.937 14.4732 20.6177 13.9997 20.8501 13.3781C21.1442 12.5951 20.1527 11.6667 19.2284 11.6376C18.2733 11.6059 17.3546 12.4259 17.6039 13.3226C17.7776 13.9442 18.4218 14.452 19.136 15.3725Z" fill="#D92892"/>
<path d="M24.6036 9.46206C24.8696 9.53877 25.3486 8.95949 26.0572 8.4384C25.8191 8.29027 25.6147 8.1395 25.427 8.00195H23.7213C23.598 8.15008 23.4748 8.30614 23.3516 8.42517C23.7633 8.7902 24.119 9.32187 24.6036 9.46206Z" fill="#D92892"/>
<path d="M24.5055 18.8208C24.6764 18.9134 25.1693 18.4637 25.5166 18.2627C25.6903 18.022 25.8639 17.7813 26.0376 17.5406C25.5923 17.4163 25.1385 17.1703 24.7072 17.202C24.3403 17.2311 24.0014 17.5803 23.6484 17.7892C23.9257 18.149 24.133 18.6225 24.5055 18.8208Z" fill="#D92892"/>
<path d="M19.4415 19.4836C20.0913 19.2588 20.573 18.6054 21.5505 17.796C20.3686 17.1691 19.6739 16.5263 18.9401 16.4814C18.0438 16.4258 17.5228 17.185 17.5649 18.1002C17.6069 19.0498 18.506 19.8089 19.4415 19.4836Z" fill="#D92892"/>
<path d="M17.9871 25.5845C17.5698 26.0051 17.0152 26.5685 16.4634 27.124C14.6288 25.6427 13.5449 25.4814 12.5954 26.4892C11.87 27.2589 11.8812 28.3804 12.6206 29.1237C13.5981 30.1077 14.6316 29.9331 16.4046 28.481C18.7798 30.7082 19.2811 30.7346 21.8888 28.7455C22.4994 29.2692 23.11 29.7956 23.7205 30.322C21.8215 32.1921 21.5471 33.2025 22.7178 34.3082C23.0931 34.6626 23.7177 35.1176 24.1295 35.0409C25.149 34.8531 26.1097 34.3849 27.2217 33.9855C27.5718 34.2791 28.0507 34.6838 28.6389 35.1811C27.0256 37.2363 26.894 38.0695 27.9135 39.0456C28.8742 39.9661 29.8349 39.8762 31.9832 38.625C32.3949 39.0535 32.8207 39.4979 33.35 40.0481C31.395 41.8018 31.9384 43.4471 33.378 44.6083C32.9075 45.2801 32.5462 45.8039 32.1736 46.3197C32.1316 46.3752 32.0056 46.3779 31.916 46.4043C30.1262 45.0685 29.0366 44.8543 28.0311 45.7457C27.6446 46.0896 27.1376 46.6874 27.2245 47.055C27.4485 48.0178 27.9695 48.9198 28.1208 49.2663C27.7286 50.0784 27.4093 50.7423 27.1012 51.3798C25.0398 49.7689 23.8298 49.6129 22.7991 50.6709C21.984 51.5068 21.9364 52.7315 22.7935 53.5276C23.1688 53.8768 23.8046 54.3185 24.2051 54.2339C25.205 54.0223 26.1377 53.5303 27.1572 53.1282C29.2719 54.874 29.6192 54.8872 32.0224 53.2314C34.1371 54.6862 35.095 54.8687 36.1985 53.8636C36.6467 53.4562 37.2349 52.7764 37.1396 52.3347C36.938 51.3824 36.3386 50.5043 35.952 49.7028C36.403 48.8881 37.2433 48.0708 37.148 47.3671C37.022 46.4387 36.1621 45.6002 35.6131 44.7141C37.5794 42.5451 37.5794 42.5345 35.9268 39.8973C36.4394 39.3683 36.9716 38.8181 37.5065 38.2679C39.3495 39.8973 40.6295 40.0719 41.6519 38.9398C42.4977 38.0034 42.3745 36.7681 41.3438 35.8847C40.1086 34.8266 39.3859 35.0118 37.3945 36.9533C36.9156 36.3158 36.4478 35.6942 35.9801 35.07C36.543 34.4642 37.0164 33.9564 37.4981 33.4406C39.2907 35.1467 40.4727 35.353 41.5706 34.2367C42.3997 33.393 42.4053 32.2291 41.5874 31.3747C40.4335 30.1712 39.2739 30.3854 37.837 31.7662C37.1032 31.1578 36.3666 30.5494 35.6299 29.9358C37.1088 28.3223 37.3497 27.2166 36.2209 26.2432C35.8372 25.9125 35.165 25.5343 34.7561 25.6401C33.7365 25.902 32.7898 26.4257 31.7563 26.8727C29.9329 25.2169 29.5828 25.1931 27.0508 26.7272C26.5579 26.2829 26.0397 25.8147 25.5383 25.365C26.7903 23.5002 27.0592 22.4924 26.2021 21.7782C25.6532 21.3206 24.5888 20.8842 24.0062 21.0852C21.1017 22.0903 22.3453 23.7832 23.5021 25.3042C22.7907 25.8438 22.1773 26.3093 21.5751 26.7669C21.1969 26.3834 20.7012 25.8782 20.211 25.3782C21.7179 23.3521 21.8327 22.3734 20.7096 21.4343C19.8665 20.7307 18.4269 20.7096 17.651 21.4634C17.3457 21.7597 16.9648 22.2517 17.032 22.5797C17.2281 23.561 17.6258 24.4974 17.9871 25.5845ZM31.8683 36.6756C31.2858 36.2179 30.8068 35.845 30.2186 35.3821C30.9384 34.7684 31.4006 34.3743 32.0336 33.832C32.5266 34.3187 32.8403 34.6282 33.252 35.0382C32.7842 35.5937 32.3585 36.0989 31.8683 36.6756ZM32.0196 51.0518C31.5378 50.663 31.0673 50.2794 30.4623 49.7874C30.9216 49.2584 31.3614 48.7479 31.944 48.0787C32.5462 48.7188 32.9691 49.1711 33.6133 49.8562C33.0615 50.2715 32.577 50.6339 32.0196 51.0518ZM26.9528 28.9439C27.9387 29.3353 28.8518 29.9834 29.7509 29.9649C30.5211 29.949 31.2746 29.174 32.2521 28.6106C32.689 29.0232 33.266 29.5681 33.8878 30.158C33.1708 30.7082 32.6134 31.134 31.9272 31.6604C30.227 29.8829 28.5353 30.1633 27.0144 31.8482C26.401 31.335 25.9164 30.9303 25.2806 30.3987C25.866 29.8882 26.4374 29.3909 26.9528 28.9439Z" fill="#D92892"/>
<path d="M43.3482 37.6446C43.4238 38.581 44.0232 39.2079 44.9727 39.0254C45.6449 38.8984 46.2191 38.2927 47.247 37.6393C46.2527 36.8881 45.7289 36.2507 45.0539 36.0417C44.18 35.7692 43.2725 36.7162 43.3482 37.6446Z" fill="#D92892"/>
<path d="M43.2824 57.1652C43.3188 58.0777 43.8706 58.7787 44.7893 58.657C45.5315 58.5591 46.1925 57.9375 47.4053 57.2604C46.271 56.4404 45.6884 55.7632 44.9573 55.5516C44.0807 55.3003 43.246 56.2235 43.2824 57.1652Z" fill="#D92892"/>
<path d="M44.8677 48.4144C45.2683 48.0282 45.8173 47.6923 45.9993 47.232C46.0777 47.0336 45.3915 46.5681 44.8734 46.0391C44.4476 46.6051 43.921 46.9992 43.9547 47.3405C43.9911 47.7214 44.5428 48.0573 44.8677 48.4144Z" fill="#D92892"/>
<path d="M46.3365 42.4109C45.7623 41.9427 45.3954 41.4084 45.0172 41.4004C44.6643 41.3951 44.0593 41.9215 44.0173 42.2627C43.9809 42.5643 44.5383 43.17 44.8884 43.2097C45.2609 43.252 45.6979 42.7891 46.3365 42.4109Z" fill="#D92892"/>
<path d="M44.9426 53.7689C45.514 53.0891 46.0685 52.7082 46.1834 52.2321C46.3766 51.4253 45.7548 50.7614 44.9594 50.9042C44.4384 50.9968 43.8362 51.7136 43.6906 52.2506C43.6038 52.5654 44.3432 53.0812 44.9426 53.7689Z" fill="#D92892"/>
<path d="M44.2617 70.9966H45.7826C45.4185 70.7479 45.1328 70.5734 44.8891 70.613C44.6931 70.6448 44.4606 70.8009 44.2617 70.9966Z" fill="#D92892"/>
<path d="M39.8705 9.53348C40.2878 9.59432 40.8032 9.04413 41.621 8.56007C41.3605 8.36963 41.1393 8.17653 40.9404 8.00195H39.0246C38.9013 8.15008 38.8173 8.30085 38.8089 8.42782C38.7921 8.80343 39.4391 9.47264 39.8705 9.53348Z" fill="#D92892"/>
<path d="M43.9688 66.5817C43.9744 66.9388 44.5178 67.288 44.8259 67.6424C45.232 67.2853 45.809 66.9838 45.977 66.5447C46.0639 66.3225 45.4141 65.849 44.9323 65.2988C44.4898 65.8517 43.9632 66.2193 43.9688 66.5817Z" fill="#D92892"/>
<path d="M43.2783 61.9788C43.3511 62.8861 43.8973 63.4045 44.8608 63.468C45.8439 63.5342 46.673 62.8067 46.6842 61.4471C46.25 61.1535 45.645 60.4949 44.9056 60.3097C44.0233 60.0876 43.2027 61.0477 43.2783 61.9788Z" fill="#D92892"/>
<path d="M39.9586 44.3289C41.107 44.3051 42.0733 43.3978 42.0789 42.3371C42.0817 41.3743 41.0062 40.2818 39.9979 40.2289C38.8495 40.1681 37.7207 41.287 37.7795 42.4244C37.8356 43.5168 38.7879 44.35 39.9586 44.3289Z" fill="#D92892"/>
<path d="M39.6945 45.2131C38.4089 45.3163 37.5406 46.3056 37.6499 47.5382C37.7479 48.6253 38.9831 49.7574 40.0054 49.6966C41.1902 49.6252 42.3638 48.2629 42.2237 47.1176C42.0837 45.967 40.9493 45.1126 39.6945 45.2131Z" fill="#D92892"/>
<path d="M44.8979 29.4204C45.8278 29.4733 46.8585 28.6189 46.6148 27.8042C46.4104 27.1218 45.6961 26.5769 45.3852 26.1934C43.87 26.2463 43.1753 26.9895 43.2846 27.9471C43.391 28.8491 43.9456 29.3649 44.8979 29.4204Z" fill="#D92892"/>
<path d="M44.923 14.0781C45.2395 14.0807 45.8417 13.6204 45.8221 13.4035C45.7857 13.0068 45.3824 12.6391 44.951 11.9805C44.5113 12.6232 44.0995 12.9803 44.0631 13.3692C44.0407 13.5966 44.6149 14.0754 44.923 14.0781Z" fill="#D92892"/>
<path d="M44.9113 24.1354C45.337 24.1936 45.858 23.6434 46.6563 23.1726C45.9616 22.5721 45.5975 22.0114 45.113 21.8976C44.2643 21.6966 43.6341 22.2759 43.7377 23.043C43.7965 23.4715 44.452 24.0719 44.9113 24.1354Z" fill="#D92892"/>
<path d="M45.0013 9.79006C45.441 9.14729 45.9844 8.69233 45.9004 8.39079C45.8612 8.25324 45.7547 8.12098 45.6091 8.00195H44.2198C44.0966 8.16595 44.007 8.33788 44.021 8.45427C44.0658 8.84046 44.5307 9.18432 45.0013 9.79006Z" fill="#D92892"/>
<path d="M44.8641 35.1497C45.7212 34.0943 46.5222 33.5282 46.6623 32.8405C46.8612 31.8671 46.0797 31.1899 44.9958 31.1449C43.881 31.0973 43.1108 31.7718 43.2508 32.7479C43.3488 33.4409 44.0939 34.0519 44.8641 35.1497Z" fill="#D92892"/>
<path d="M50.1916 31.2779C49.5502 31.5027 48.8612 32.1613 48.6371 32.7697C48.343 33.5738 49.3485 34.3753 50.8246 34.3224C51.0683 33.9812 51.6761 33.4601 51.8301 32.8359C52.0486 31.9603 51.0291 30.9843 50.1916 31.2779Z" fill="#D92892"/>
<path d="M85.0104 32.8193C84.9628 33.1103 85.5874 33.7372 85.9627 33.7769C86.3352 33.8166 87.0858 33.3351 87.1111 33.0389C87.1503 32.576 86.7161 32.0787 86.2736 31.1582C85.621 31.9623 85.0832 32.3564 85.0104 32.8193Z" fill="#D92892"/>
<path d="M86.7097 37.6194C86.7629 37.4078 86.4156 37.1089 86.0823 36.5957C85.7658 37.1036 85.5109 37.3522 85.4773 37.6247C85.4577 37.786 85.8414 38.1669 85.9422 38.1378C86.2419 38.0505 86.6509 37.8468 86.7097 37.6194Z" fill="#D92892"/>
<path d="M85.991 18.8719C86.4055 18.8534 86.8005 18.4487 87.4727 18.0466C86.8229 17.5837 86.3803 17.0441 86.061 17.0997C85.6717 17.1711 85.2796 17.708 85.1171 18.1233C85.0583 18.2715 85.6913 18.8851 85.991 18.8719Z" fill="#D92892"/>
<path d="M86.0351 13.9842C86.3376 14.0265 86.7073 13.6271 87.2927 13.27C86.7297 12.9156 86.416 12.5955 86.0603 12.5426C85.853 12.5109 85.3404 12.9658 85.3768 13.106C85.4637 13.4472 85.7606 13.9445 86.0351 13.9842Z" fill="#D92892"/>
<path d="M86.172 24.3458C86.5782 23.7454 87.0739 23.338 87.0291 22.9836C86.9899 22.6529 86.3541 22.1239 86.032 22.1557C85.6707 22.1927 85.1105 22.7614 85.1133 23.0947C85.1189 23.4491 85.6791 23.8009 86.172 24.3458Z" fill="#D92892"/>
<path d="M85.5211 52.1804C85.4903 52.3047 85.9105 52.6777 85.9693 52.6486C86.2326 52.5216 86.4959 52.3206 86.6303 52.0825C86.6807 51.9952 86.3782 51.7307 86.1093 51.3789C85.8432 51.7175 85.5856 51.9264 85.5211 52.1804Z" fill="#D92892"/>
<path d="M85.4727 42.2634C85.7051 42.4671 85.9068 42.7316 86.1813 42.8401C86.2877 42.8824 86.551 42.5676 86.9235 42.274C86.5202 42.0465 86.2681 41.8164 85.9852 41.782C85.8368 41.7635 85.6435 42.0915 85.4727 42.2634Z" fill="#D92892"/>
<path d="M81.2008 46.5499C80.8059 46.6875 80.523 47.1133 80.1953 47.4228C80.4978 47.6714 80.7835 48.0973 81.1028 48.1185C81.4081 48.1396 81.7442 47.7402 82.2652 47.3937C81.7834 46.9969 81.3829 46.4891 81.2008 46.5499Z" fill="#D92892"/>
<path d="M80.9883 14.1431C81.3356 14.2039 81.7921 13.7225 82.4419 13.3336C81.8482 12.8364 81.4644 12.2677 81.1087 12.2835C80.7138 12.302 80.3469 12.8496 79.9688 13.167C80.3049 13.5162 80.599 14.0769 80.9883 14.1431Z" fill="#D92892"/>
<path d="M82.3263 32.8215C82.3795 32.4776 81.6569 31.7476 81.2087 31.6894C80.7886 31.6338 79.9287 32.1946 79.8811 32.557C79.8139 33.0728 80.3124 33.6547 80.8138 34.7366C81.5981 33.8002 82.2423 33.3505 82.3263 32.8215Z" fill="#D92892"/>
<path d="M86.0078 28.6888C86.3439 28.7073 86.8536 28.1783 87.0161 27.7895C87.0945 27.599 86.5623 26.9219 86.3075 26.9219C85.8621 26.9219 85.414 27.2737 84.7109 27.5964C85.2795 28.1095 85.6268 28.6677 86.0078 28.6888Z" fill="#D92892"/>
<path d="M81.1214 43.8134C81.7768 43.6547 82.3146 43.0595 83.2809 42.4062C82.351 41.6444 81.8637 41.0016 81.2139 40.7715C80.41 40.4858 79.4157 41.4142 79.3765 42.2739C79.3345 43.16 80.1943 44.0382 81.1214 43.8134Z" fill="#D92892"/>
<path d="M81.005 38.8194C81.582 38.7585 82.1002 38.1872 83.1253 37.5418C82.0918 36.9546 81.5456 36.415 80.9882 36.4044C80.5821 36.3964 79.9211 37.026 79.8006 37.4756C79.5906 38.2507 80.1788 38.9067 81.005 38.8194Z" fill="#D92892"/>
<path d="M81.6193 17.9353C81.6697 17.8453 81.3504 17.5676 81.0619 17.1973C80.7902 17.5517 80.5241 17.7713 80.4625 18.0331C80.4317 18.168 80.8658 18.5542 80.9274 18.5225C81.2019 18.3929 81.4764 18.1839 81.6193 17.9353Z" fill="#D92892"/>
<path d="M80.1484 27.8155C80.4481 28.0933 80.7198 28.5561 81.0503 28.5958C81.364 28.6355 81.7393 28.2334 82.9465 27.5113C82.0951 27.2098 81.6217 26.8739 81.2464 26.9532C80.8347 27.0431 80.5126 27.5113 80.1484 27.8155Z" fill="#D92892"/>
<path d="M80.3297 8.34651C80.4194 8.69038 80.7163 9.19031 80.9907 9.22734C81.296 9.26966 81.6686 8.8676 82.2595 8.50786C81.9514 8.31477 81.719 8.1349 81.5145 8H80.579C80.4306 8.12961 80.3129 8.27774 80.3297 8.34651Z" fill="#D92892"/>
<path d="M65.7637 60.7332C65.1979 60.8787 64.4193 61.4368 64.3661 61.8918C64.3129 62.3521 65.0299 62.8917 65.7441 63.8413C66.3379 62.8573 66.8953 62.3282 66.8925 61.8019C66.8897 61.4183 66.0438 60.6618 65.7637 60.7332Z" fill="#D92892"/>
<path d="M70.6823 69.7638C69.8645 69.7744 69.1334 70.3061 68.8281 70.9991H72.5253C72.2368 70.2743 71.5058 69.7532 70.6823 69.7638Z" fill="#D92892"/>
<path d="M70.7208 68.0746C71.3846 67.9503 71.9392 67.3128 72.9559 66.6224C71.9111 65.932 71.3314 65.2655 70.6675 65.1808C69.7629 65.0671 69.1215 65.7204 69.1411 66.67C69.1635 67.609 69.7713 68.2545 70.7208 68.0746Z" fill="#D92892"/>
<path d="M64.7617 42.1815C65.067 42.5147 65.3191 42.9538 65.7028 43.1337C65.8653 43.2104 66.3134 42.7396 66.8148 42.3878C66.3442 42.0069 66.0501 41.5757 65.7448 41.5704C65.4227 41.5625 65.0894 41.9593 64.7617 42.1815Z" fill="#D92892"/>
<path d="M64.7266 51.9444C65.0459 52.2882 65.3119 52.7458 65.7125 52.9204C65.8917 52.9971 66.3511 52.5025 66.8748 52.1295C66.3819 51.7381 66.0654 51.291 65.7461 51.291C65.41 51.2884 65.0683 51.7063 64.7266 51.9444Z" fill="#D92892"/>
<path d="M71.6225 61.9353C71.5917 61.5888 71.0595 61.1761 70.6478 61.0174C70.4769 60.9513 69.8047 61.4777 69.8047 61.7316C69.8047 62.1204 70.1912 62.5093 70.5581 63.1467C71.0679 62.5992 71.6505 62.2448 71.6225 61.9353Z" fill="#D92892"/>
<path d="M70.1328 37.5061C70.3541 37.7018 70.5445 37.961 70.8078 38.0615C70.9171 38.1039 71.1719 37.805 71.5389 37.5272C71.1467 37.3024 70.9031 37.0749 70.6314 37.0379C70.4913 37.0194 70.3009 37.3394 70.1328 37.5061Z" fill="#D92892"/>
<path d="M70.7067 33.4075C70.9224 33.4419 71.208 33.0663 71.7262 32.6722C71.152 32.4394 70.8607 32.2331 70.5778 32.2384C70.393 32.2437 70.0317 32.6351 70.0737 32.7198C70.1997 33.0002 70.4518 33.3679 70.7067 33.4075Z" fill="#D92892"/>
<path d="M65.7888 9.20284C65.9485 9.2531 66.2762 8.82194 66.6655 8.4913C66.4638 8.32995 66.2846 8.1395 66.1305 8.00195H65.4387C65.2287 8.14479 65.0326 8.33788 64.8281 8.48866C65.1418 8.74259 65.4247 9.0891 65.7888 9.20284Z" fill="#D92892"/>
<path d="M70.9322 28.7091C71.1198 28.1562 71.3019 27.8758 71.2683 27.6193C71.2459 27.4553 70.8061 27.1669 70.7305 27.2093C70.47 27.36 70.1423 27.6193 70.1255 27.8573C70.1087 28.0557 70.498 28.2779 70.9322 28.7091Z" fill="#D92892"/>
<path d="M71.5741 57.1819C71.4089 56.8036 70.9215 56.5471 70.5686 56.2402C70.2969 56.5338 69.7704 56.8698 69.8152 57.1131C69.8852 57.494 70.339 57.8114 70.7927 58.3458C71.182 57.7982 71.661 57.3803 71.5741 57.1819Z" fill="#D92892"/>
<path d="M69.8374 8.45956C70.0334 8.82723 70.5124 9.06 70.8765 9.34832C71.109 9.02826 71.5319 8.70027 71.5207 8.39079C71.5151 8.26382 71.4227 8.1395 71.2854 8.00195H70.0951C69.9158 8.21092 69.7926 8.37492 69.8374 8.45956Z" fill="#D92892"/>
<path d="M59.7015 27.5347C59.6147 27.7781 59.8051 28.352 59.9592 28.3785C60.3233 28.4473 60.7378 28.278 61.4912 28.1351C61.0039 27.6114 60.791 27.2384 60.4661 27.093C60.3065 27.0215 59.7771 27.3152 59.7015 27.5347Z" fill="#D92892"/>
<path d="M66.289 37.5657C66.3086 37.3753 65.8969 36.9891 65.6588 36.9732C65.4039 36.9574 65.1267 37.2774 64.6953 37.5552C65.1267 37.8646 65.4011 38.2138 65.6532 38.1979C65.8941 38.182 66.2638 37.8091 66.289 37.5657Z" fill="#D92892"/>
<path d="M60.2553 22.1782C59.9753 22.1596 59.3563 22.7442 59.4095 22.895C59.5523 23.2971 59.9304 23.8234 60.3002 23.8949C60.6111 23.953 61.0452 23.4399 61.6782 23.0061C61.034 22.6067 60.6587 22.2073 60.2553 22.1782Z" fill="#D92892"/>
<path d="M66.9649 57.0098C67.0349 56.1872 66.3123 55.6528 65.5224 55.9147C64.9902 56.0919 64.332 56.8061 64.332 57.2796C64.3348 57.7557 65.0855 58.2265 65.8557 59.0915C66.4103 58.0996 66.9173 57.5732 66.9649 57.0098Z" fill="#D92892"/>
<path d="M65.8172 69.7237C64.8957 69.6364 64.0358 70.2051 63.7109 70.9986H67.5902C67.3437 70.2739 66.7611 69.8136 65.8172 69.7237Z" fill="#D92892"/>
<path d="M65.6238 68.4851C66.6321 68.5063 67.5424 67.6122 67.5256 66.623C67.506 65.5729 66.6517 64.8163 65.5426 64.901C64.4586 64.983 63.8676 65.6072 63.7472 66.578C63.6324 67.4906 64.6463 68.4666 65.6238 68.4851Z" fill="#D92892"/>
<path d="M75.8145 68.2929C76.8985 68.2082 77.4755 67.621 77.5399 66.1344C77.0553 65.8302 76.4083 65.1293 75.6717 65.0314C74.6018 64.8912 74.0248 65.7033 73.9968 66.7084C73.9688 67.6342 74.823 68.3696 75.8145 68.2929Z" fill="#D92892"/>
<path d="M75.8869 56.3209C75.5255 56.3341 75.181 56.7124 74.8281 56.9293C75.1222 57.2917 75.3491 57.7651 75.7384 57.9635C75.9121 58.0508 76.4022 57.5826 77.4694 56.9213C76.7159 56.6145 76.293 56.305 75.8869 56.3209Z" fill="#D92892"/>
<path d="M74.8366 61.9735C74.775 62.1561 75.3492 62.7644 75.6069 62.7486C76.027 62.7248 76.4247 62.3465 77.0857 61.9762C76.4835 61.5239 76.0942 61.0107 75.7385 61.0319C75.3996 61.0478 74.9655 61.5874 74.8366 61.9735Z" fill="#D92892"/>
<path d="M81.2745 56.0933C80.7647 56.1806 80.0617 56.5986 79.9497 57.0086C79.846 57.3789 80.423 57.9158 80.9468 58.7967C81.5714 57.9872 82.1176 57.5799 82.1652 57.1249C82.196 56.789 81.521 56.0537 81.2745 56.0933Z" fill="#D92892"/>
<path d="M75.891 46.395C75.4261 46.4929 74.8995 46.9664 74.7259 47.3975C74.6419 47.6038 75.3225 48.3815 75.6222 48.3656C76.1067 48.3392 76.5661 47.871 77.2999 47.4293C76.6333 46.9161 76.1851 46.3342 75.891 46.395Z" fill="#D92892"/>
<path d="M81.0024 65.5C80.6215 66.0132 80.1789 66.3464 80.2042 66.6506C80.2266 66.9601 80.7083 67.2378 80.9884 67.5288C81.3217 67.1982 81.7811 66.9098 81.9295 66.5184C81.9939 66.3411 81.4337 65.955 81.0024 65.5Z" fill="#D92892"/>
<path d="M80.7461 70.9992H81.1774C81.0962 70.9357 81.015 70.8696 80.9394 70.8008C80.8805 70.8669 80.8133 70.933 80.7461 70.9992Z" fill="#D92892"/>
<path d="M81.2176 61.2599C80.8759 61.3525 80.4922 61.6276 80.3437 61.9265C80.2625 62.0905 80.621 62.4502 80.9067 62.9396C81.3436 62.474 81.705 62.2227 81.8282 61.8921C81.8814 61.7519 81.3605 61.2202 81.2176 61.2599Z" fill="#D92892"/>
<path d="M80.3694 51.9557C80.473 52.2864 80.7727 52.654 81.0976 52.7969C81.2741 52.8736 81.6606 52.5244 82.1928 52.2414C81.6858 51.8235 81.4085 51.4769 81.05 51.3606C80.8988 51.3129 80.3274 51.8208 80.3694 51.9557Z" fill="#D92892"/>
<path d="M75.6473 69.9452C74.8546 70.0219 74.3085 70.3949 74.0508 70.9979H77.3222C76.9917 70.2732 76.3447 69.8764 75.6473 69.9452Z" fill="#D92892"/>
<path d="M77.0539 42.4035C77.2443 41.6179 76.6533 40.9487 75.8131 41.0995C75.2529 41.2 74.477 41.8137 74.4042 42.2845C74.3286 42.7527 75.0092 43.3293 75.6506 44.3001C76.3396 43.4008 76.9222 42.9511 77.0539 42.4035Z" fill="#D92892"/>
<path d="M75.8741 10.1187C76.381 9.31727 76.9608 8.80676 76.8824 8.40999C76.8572 8.28303 76.7732 8.14019 76.6555 8H74.8461C74.7005 8.19309 74.5997 8.39941 74.5941 8.56341C74.5773 8.97076 75.2411 9.39663 75.8741 10.1187Z" fill="#D92892"/>
<path d="M75.7916 32.0469C75.4667 32.0522 75.1502 32.4595 74.8281 32.6923C75.1474 33.0176 75.4135 33.4488 75.8056 33.6154C75.9709 33.6869 76.4022 33.2002 76.8952 32.8298C76.4106 32.4622 76.0969 32.0442 75.7916 32.0469Z" fill="#D92892"/>
<path d="M75.5714 36.4785C75.2493 37.0261 74.846 37.4096 74.9188 37.6741C75 37.973 75.5126 38.1661 75.8375 38.4042C76.0839 38.0973 76.5293 37.7826 76.5181 37.4837C76.5069 37.2006 76.0223 36.9282 75.5714 36.4785Z" fill="#D92892"/>
<path d="M75.7757 28.6991C76.1511 28.7044 76.5376 28.1568 77.1454 27.6701C76.4479 27.3051 76.0194 26.9268 75.5741 26.9083C75.3136 26.8977 74.7366 27.5511 74.8066 27.7442C74.9523 28.141 75.4284 28.6938 75.7757 28.6991Z" fill="#D92892"/>
<path d="M75.6704 13.7999C75.9449 13.6888 76.3063 13.456 76.3455 13.2285C76.3791 13.0301 76.0206 12.7709 75.6452 12.3027C75.3904 12.8265 75.1747 13.0883 75.1719 13.3528C75.1691 13.5089 75.578 13.8369 75.6704 13.7999Z" fill="#D92892"/>
<path d="M17.5781 70.9992H20.5639C20.2978 70.6236 19.9421 70.2983 19.7656 70.0496C18.6229 70.0099 17.8694 70.4041 17.5781 70.9992Z" fill="#D92892"/>
<path d="M19.1782 64.8854C18.0859 64.9118 17.4641 65.5123 17.2792 66.4725C17.1028 67.3824 18.0467 68.4034 19.0466 68.4828C20.0549 68.5621 21.0268 67.7157 21.0632 66.7238C21.1052 65.6763 20.279 64.8589 19.1782 64.8854Z" fill="#D92892"/>
<path d="M122.104 68.4779C123.09 68.5387 124.079 67.6526 124.101 66.6898C124.126 65.682 123.247 64.8435 122.169 64.8884C121.085 64.9334 120.471 65.5418 120.306 66.5046C120.149 67.4119 121.113 68.417 122.104 68.4779Z" fill="#D92892"/>
<path d="M122.12 70.1207C121.406 70.1683 120.829 70.4831 120.652 70.9962H123.809C123.554 70.4672 122.826 70.0757 122.12 70.1207Z" fill="#D92892"/>
<path d="M19.0689 59.9133C18.0214 59.9688 17.1531 60.81 17.1111 61.8072C17.0635 62.9102 18.0046 63.8492 19.167 63.8651C20.3321 63.881 21.3012 62.9552 21.276 61.8521C21.248 60.765 20.2089 59.8498 19.0689 59.9133Z" fill="#D92892"/>
<path d="M158.268 29.9483C159.506 29.9801 160.545 28.9829 160.537 27.7688C160.528 26.5097 159.548 25.6394 158.206 25.7003C157.058 25.7532 156.055 26.6604 156.002 27.6947C155.946 28.7898 157.08 29.9166 158.268 29.9483Z" fill="#D92892"/>
<path d="M15.6104 44.0411C16.0025 43.7184 16.4758 43.1391 16.4198 42.7424C16.277 41.7663 15.8456 40.8299 15.5123 39.8222C15.882 39.3989 16.3246 38.8911 16.7419 38.4123C18.809 39.8883 19.8873 40.0258 20.8396 38.9995C21.1309 38.6847 21.5118 38.1742 21.4222 37.8621C21.1449 36.8966 20.6632 35.9814 20.2346 34.9842C21.8619 33.3522 22.1056 32.4237 20.9657 31.3339C20.5371 30.924 19.7837 30.4082 19.3299 30.5166C18.3412 30.7467 17.4505 31.3472 16.4954 31.8101C14.6356 30.4505 13.7085 30.2865 12.6526 31.162C12.3333 31.4265 12.1148 31.7096 12 32.019V33.2014C12.154 33.7331 12.493 34.352 13.0195 35.098C12.6862 35.4656 12.3473 35.8386 12 36.2195V38.936C12.3921 39.2852 12.731 39.5841 13.112 39.9227C12.7254 40.4067 12.3753 40.8485 12 41.3193V43.3851C13.4985 44.6892 14.5684 44.9008 15.6104 44.0411ZM16.5627 33.5955C17.1424 34.0981 17.7082 34.5901 18.414 35.2038C17.9239 35.6878 17.4393 36.1719 16.8343 36.7697C16.361 36.0714 15.9213 35.426 15.4451 34.725C15.5543 34.6192 15.9913 34.1748 16.5627 33.5955Z" fill="#D92892"/>
<path d="M14.3303 69.7032C13.5237 69.8646 12.7674 70.2428 12 70.5735V70.9993H16.2265C16.1285 70.7613 15.9745 70.5391 15.7616 70.3433C15.3919 70.0048 14.7477 69.6186 14.3303 69.7032Z" fill="#D92892"/>
<path d="M19.1012 43.9187C20.1011 43.9848 21.1151 43.2125 20.8798 42.3634C20.6837 41.6598 19.9779 41.0858 19.667 40.6758C18.2049 40.6837 17.4319 41.4693 17.5047 42.4136C17.5747 43.3341 18.1237 43.8552 19.1012 43.9187Z" fill="#D92892"/>
<path d="M177.416 8.53891C177.514 9.0362 178.31 9.4118 178.803 9.84031C179.242 9.37477 179.982 8.93833 180.035 8.43575C180.049 8.30085 179.993 8.15802 179.892 8.00195H177.587C177.458 8.20563 177.388 8.38285 177.416 8.53891Z" fill="#D92892"/>
<path d="M173.627 9.94946C174.627 10.0129 175.338 9.42043 175.268 8.57928C175.251 8.38619 175.176 8.19838 175.055 8H172.403C172.319 8.12961 172.254 8.26187 172.218 8.39941C171.988 9.28818 172.641 9.88597 173.627 9.94946Z" fill="#D92892"/>
<path d="M19.0731 10.3535C20.0954 10.417 21.0281 9.59961 21.0897 8.59182C21.1037 8.38285 21.0841 8.18447 21.0393 8.00195H17.2861C17.2441 8.13156 17.2133 8.26382 17.2049 8.40401C17.1573 9.32981 18.0788 10.2926 19.0731 10.3535Z" fill="#D92892"/>
<path d="M55.123 9.70277C55.7055 9.56522 56.4702 9.05471 56.5906 8.57065C56.6298 8.41195 56.5514 8.22679 56.4058 8.00195H54.2519C54.1314 8.1924 54.0614 8.36434 54.0586 8.53627C54.053 8.94626 54.8625 9.76361 55.123 9.70277Z" fill="#D92892"/>
<path d="M19.3361 49.192C20.4592 49.118 21.2015 48.3218 21.1454 47.2531C21.0922 46.2374 20.1875 45.4148 19.1512 45.4359C18.0112 45.4624 17.0421 46.5019 17.1766 47.56C17.3026 48.5678 18.2269 49.2634 19.3361 49.192Z" fill="#D92892"/>
<path d="M19.1874 50.3249C18.1314 50.3884 17.4564 50.9756 17.3108 51.9729C17.1679 52.9436 18.151 54.0228 19.165 53.8112C19.9212 53.6525 20.5654 53.0018 20.9939 52.7347C21.1032 51.2454 20.2125 50.2641 19.1874 50.3249Z" fill="#D92892"/>
<path d="M19.1057 55.4747C18.0049 55.517 17.4588 56.2048 17.4532 57.2179C17.4476 58.1384 18.313 58.8367 19.8087 58.7494C20.086 58.3394 20.817 57.7204 20.8983 57.0301C21.0159 56.0434 20.1784 55.4324 19.1057 55.4747Z" fill="#D92892"/>
<path d="M14.3731 49.5788C15.0341 48.4652 15.7147 47.8119 15.7623 47.1188C15.8211 46.2697 15.0117 45.7857 14.0482 45.8201C13.0482 45.8571 12.2444 46.7062 12.5889 47.5923C12.827 48.2033 13.516 48.6583 14.3731 49.5788Z" fill="#D92892"/>
<path d="M14.066 58.708C15.0492 58.7741 16.0631 58.0044 15.8278 57.1712C15.6317 56.4755 14.9343 55.9041 14.6234 55.4941C13.181 55.51 12.4163 56.2903 12.4891 57.2188C12.5564 58.1287 13.0997 58.6445 14.066 58.708Z" fill="#D92892"/>
<path d="M12.766 52.253C12.9116 52.7397 13.7211 53.3296 14.2617 53.356C14.7546 53.3798 15.2812 52.7027 16.1887 52.0546C15.2308 51.4277 14.7182 50.8299 14.1496 50.777C13.2029 50.6897 12.5055 51.3748 12.766 52.253Z" fill="#D92892"/>
<path d="M14.1574 63.7048C15.1573 63.6995 16.062 62.7948 15.9948 61.8241C15.9247 60.8189 15.3365 60.2396 14.2666 60.1576C13.2247 60.0783 12.2668 60.9009 12.2388 61.8558C12.2135 62.7578 13.1995 63.7101 14.1574 63.7048Z" fill="#D92892"/>
<path d="M14.2273 64.8234C13.1294 64.789 12.2275 65.5191 12.1462 66.5137C12.0566 67.5744 13.0537 68.5742 14.1797 68.5557C15.2076 68.5398 16.0703 67.6987 16.0927 66.6882C16.1123 65.6249 15.3477 64.8605 14.2273 64.8234Z" fill="#D92892"/>
<path d="M125.624 70.1602C125.35 70.4247 125.171 70.7024 125.078 70.9987H129.526C129.408 70.7236 129.195 70.4564 128.89 70.176C127.96 69.3216 126.498 69.3164 125.624 70.1602Z" fill="#D92892"/>
<path d="M102.843 70.1123C101.947 69.4034 100.944 69.4431 100.048 70.1652C99.7372 70.4165 99.5327 70.6863 99.4375 70.9984H103.572C103.423 70.6757 103.115 70.3266 102.843 70.1123Z" fill="#D92892"/>
<path d="M109.559 70.6801C108.506 70.249 107.571 69.7438 106.565 69.5084C106.156 69.4131 105.501 69.8152 105.12 70.1538C104.818 70.4209 104.621 70.696 104.523 70.9949H113.993C113.881 70.7092 113.696 70.4156 113.509 70.2067C112.565 69.1433 111.285 69.3576 109.559 70.6801Z" fill="#D92892"/>
<path d="M184.095 30.6164C183.201 30.6243 182.319 31.357 181.336 31.8173C180.894 31.3517 180.336 30.7698 179.768 30.1746C181.358 28.1855 181.518 27.1618 180.339 26.1726C179.493 25.4637 178.095 25.4346 177.247 26.1064C176.065 27.0402 176.255 28.3019 177.883 30.2328C177.334 30.6984 176.782 31.1639 176.093 31.7458C174.662 30.7116 173.034 29.7858 171.74 31.8463C171.009 33.0102 171.695 34.0444 172.695 34.9861C172.141 35.568 171.597 36.1367 171.006 36.7557C169.385 35.2824 167.712 34.3222 166.262 36.6843C165.486 37.9486 166.348 39.0041 167.679 39.9378C166.995 40.5197 166.455 40.9773 165.928 41.4243C163.41 39.6627 163.427 39.5913 160.862 41.3371C158.867 39.7949 157.702 39.6389 156.568 40.7657C155.389 41.9349 155.688 43.0961 157.556 44.6831C157.013 45.5375 156.131 46.3549 156.036 47.2436C155.949 48.0504 156.719 48.9391 157.156 49.8914C156.722 50.3252 156.22 50.8251 155.697 51.3488C155.1 50.7167 154.613 50.2009 154.134 49.6956C155.582 47.5187 155.655 46.6643 154.489 45.7491C153.607 45.0561 152.238 45.0905 151.423 45.8285C150.389 46.7622 150.49 47.6139 151.943 49.6586C151.54 50.0713 151.117 50.5051 150.571 51.0632C150.005 50.6743 149.434 50.2855 148.862 49.894C150.717 47.5557 150.832 46.8601 149.585 45.802C148.622 44.9847 147.151 45.0032 146.3 45.8443C145.328 46.8072 145.538 47.9075 147.042 49.7697C145.392 51.5472 145.182 52.5259 146.216 53.6369C147.274 54.7743 148.193 54.7002 150.462 53.2163C150.896 53.5893 151.355 53.9887 152.126 54.65C151.563 55.0229 151.067 55.3536 150.627 55.6472C149.605 55.3509 148.585 54.8351 147.568 54.8378C146.865 54.8404 146.168 55.5652 145.275 56.0757C143.812 54.6923 142.051 54.0178 140.264 55.9037C137.726 54.4304 137.513 54.4304 135.32 55.8006C134.259 55.4594 133.278 55.0335 132.25 54.8695C131.816 54.8007 131.192 55.1922 130.811 55.5308C129.752 56.4725 129.898 57.5411 131.295 59.5911C130.912 60.0328 130.505 60.501 130.108 60.9559C130.007 60.9692 129.898 61.0115 129.858 60.9797C129.237 60.4587 128.626 59.927 128.01 59.4006C129.808 57.5384 129.982 56.7079 128.805 55.6419C127.898 54.8193 126.705 54.7875 125.789 55.5652C124.682 56.5015 124.836 57.594 126.355 59.4456C125.769 59.9746 125.181 60.5063 124.601 61.0274C122.5 59.5329 121.515 59.4376 120.506 60.6121C119.747 61.4955 119.781 62.3949 120.571 63.2387C121.509 64.2412 122.59 64.1195 124.775 62.6224C125.175 63.0958 125.615 63.6169 126.046 64.1274C124.313 66.4419 124.24 67.3413 125.651 68.5183C126.951 69.6028 127.469 69.5156 129.716 67.8147C129.8 67.8174 129.909 67.7909 129.959 67.8306C130.449 68.2274 130.928 68.6347 131.363 68.9971C131.052 69.6928 130.595 70.3541 130.357 70.9968H186.994C186.369 70.3726 185.815 69.8171 185.044 69.0447C185.633 68.5739 186.168 68.148 186.691 67.7275C186.798 67.7909 186.896 67.8465 186.997 67.9047V65.532C186.918 65.6008 186.84 65.6695 186.761 65.741C186.246 65.2278 185.829 64.8125 185.319 64.302C185.635 63.937 185.93 63.3471 186.176 63.3656C186.442 63.3842 186.705 63.4424 186.999 63.5244V61.1702C185.871 60.1359 185.067 59.5725 186.176 58.8769C186.35 58.7684 186.672 58.8663 186.999 58.9747V55.5176C186.865 55.6287 186.728 55.7424 186.582 55.8614C186.131 55.417 185.767 55.0547 185.42 54.7108C185.944 53.8749 186.459 53.5946 186.997 53.8009V50.4231C186.938 50.4495 186.879 50.468 186.82 50.468C186.487 50.4733 186.145 50.066 185.809 49.8411C186.078 49.5237 186.302 49.0211 186.633 48.9497C186.739 48.9259 186.859 48.9656 186.999 49.037V45.7385C186.658 45.8734 186.324 45.7809 185.955 45.3021C185.778 45.0746 185.831 44.4583 186.039 44.2414C186.434 43.8208 186.731 43.7706 186.999 43.8843V40.8001C186.938 40.853 186.879 40.9033 186.815 40.9588C185.313 40.2393 185.168 39.5199 186.854 38.5068C186.901 38.5676 186.949 38.6311 186.999 38.6946V36.2981C186.862 36.4171 186.722 36.5388 186.568 36.6684C186.061 36.1103 185.607 35.613 185.14 35.0999C185.554 34.6555 185.963 34.2137 186.509 33.6265C186.669 33.7561 186.831 33.8884 186.997 34.0233V31.5977C186.907 31.6612 186.82 31.7247 186.725 31.7934C185.812 31.3491 184.949 30.6084 184.095 30.6164ZM129.867 65.7145C129.354 65.2067 128.915 64.7702 128.408 64.2676C128.92 63.691 129.377 63.1752 129.892 62.5959C130.346 63.1091 130.758 63.5746 131.27 64.1539C130.825 64.6485 130.374 65.1511 129.867 65.7145ZM134.981 58.168C135.505 58.6203 135.948 59.0065 136.662 59.6228C136.155 60.1069 135.729 60.5168 135.116 61.1014C134.516 60.4534 134.163 60.0698 133.679 59.5434C134.11 59.0885 134.502 58.6758 134.981 58.168ZM134.978 62.953C135.477 63.3762 135.914 63.7465 136.485 64.2332C136.065 64.6856 135.718 65.0638 135.236 65.5823C134.483 64.9607 134.147 64.6829 133.718 64.3285C134.191 63.8127 134.528 63.4476 134.978 62.953ZM134.883 70.8857C134.645 70.1954 134.435 69.5817 134.144 68.73C134.096 68.7696 134.505 68.4258 135.009 67.9973C135.516 68.3438 136.02 68.6876 136.774 69.2008C136.177 69.7325 135.687 70.1715 134.883 70.8857ZM140.16 58.451C141.401 59.4747 141.401 59.4747 139.995 60.7946C139.493 60.2629 139.138 59.8847 138.645 59.3636C139.208 59.0276 139.678 58.742 140.16 58.451ZM141.535 64.2861C141.09 64.7279 140.723 65.0929 140.272 65.5373C139.667 65.0083 139.283 64.6723 138.678 64.1433C139.233 63.6963 139.578 63.4185 140.07 63.0244C140.482 63.3762 140.914 63.7492 141.535 64.2861ZM140.166 70.7641C139.589 70.2483 139.155 69.8568 138.583 69.3463C139.015 68.9045 139.415 68.4919 139.942 67.9496C140.516 68.3676 141.045 68.7511 141.737 69.2563C141.163 69.8065 140.729 70.2245 140.166 70.7641ZM145.224 70.6397C144.717 70.2139 144.272 69.8409 143.675 69.341C144.149 68.8622 144.563 68.4469 145.081 67.9258C145.552 68.2935 145.958 68.6109 146.608 69.1188C146.081 69.6954 145.728 70.0843 145.224 70.6397ZM143.866 64.2147C144.319 63.7386 144.675 63.363 145.395 62.6091C145.824 63.1276 146.182 63.5614 146.58 64.0428C146.07 64.5665 145.711 64.9316 145.014 65.6484C144.588 65.1167 144.235 64.675 143.866 64.2147ZM145.258 60.9692C144.731 60.4322 144.314 60.0116 143.821 59.5091C144.283 59.0118 144.692 58.5727 145.308 57.9088C145.849 58.4748 146.213 58.8557 146.714 59.3821C146.269 59.8688 145.829 60.3502 145.258 60.9692ZM150.96 58.816C151.862 59.5276 151.151 59.9878 150.518 60.5565C150.092 60.2127 149.694 59.8926 149.257 59.5408C149.753 58.8927 150.056 58.1019 150.96 58.816ZM150.285 70.2879C149.974 69.7272 149.557 69.3066 149.65 69.0632C149.776 68.7379 150.297 68.5501 150.649 68.3041C150.882 68.64 151.313 68.9918 151.285 69.3092C151.26 69.6029 150.747 69.8621 150.285 70.2879ZM150.453 64.8654C150.134 64.8205 149.882 64.3523 149.599 64.0693C149.854 63.8471 150.137 63.4212 150.355 63.4476C150.725 63.4926 151.058 63.8259 151.591 64.1512C151.098 64.4819 150.736 64.9078 150.453 64.8654ZM155.685 52.8857C156.288 53.5126 156.783 54.0257 157.316 54.5785C156.761 55.0758 156.24 55.5414 155.671 56.0519C155.111 55.5625 154.588 55.1023 154.025 54.6076C154.571 54.0442 155.066 53.5311 155.685 52.8857ZM157.428 64.3205C156.797 64.8839 156.408 65.2331 156.044 65.5585C154.588 64.6988 154.282 63.9502 155.932 62.9213C156.316 63.2836 156.747 63.6857 157.428 64.3205ZM155.601 58.2182C156.125 58.6256 156.585 58.9827 157.12 59.398C156.604 59.9614 156.262 60.337 155.761 60.8898C155.282 60.3661 154.856 59.9005 154.417 59.4191C154.859 58.9695 155.223 58.6018 155.601 58.2182ZM155.94 70.3382C154.377 69.6399 154.333 68.8622 155.812 67.828C156.248 68.1639 156.73 68.5342 157.436 69.0738C156.795 69.6161 156.391 69.9573 155.94 70.3382ZM161.556 69.7642C160.618 70.6847 160.144 69.788 159.192 69.0156C159.778 68.6189 160.321 68.2485 160.94 67.828C161.324 68.1639 161.724 68.5131 162.226 68.9495C161.976 69.259 161.791 69.5341 161.556 69.7642ZM160.915 65.5664C160.453 65.1776 160.066 64.8522 159.419 64.3073C160.018 63.7862 160.408 63.4476 161.024 62.9107C161.461 63.3762 161.819 63.7571 162.245 64.2094C161.763 64.7014 161.396 65.0744 160.915 65.5664ZM160.327 58.9192C160.57 58.742 161.416 58.8927 161.618 59.1493C162.273 59.9905 161.433 60.2576 160.772 60.6174C160.206 60.1201 159.217 59.726 160.327 58.9192ZM160.78 55.8191C160.307 55.4329 159.904 55.1023 159.139 54.4754C159.78 54.1976 160.355 53.949 161.172 53.5946C161.242 53.6475 161.78 54.0522 162.424 54.5389C161.819 55.0097 161.335 55.388 160.78 55.8191ZM159.245 49.7247C159.848 49.1111 160.276 48.6746 160.775 48.1668C161.284 48.7249 161.749 49.2301 162.2 49.7221C161.775 50.2114 161.43 50.6082 160.979 51.1293C160.36 50.6294 159.904 50.2617 159.245 49.7247ZM160.772 46.4474C160.161 45.9184 159.59 45.4211 158.951 44.8656C159.621 44.289 160.203 43.7864 160.845 43.2363C161.475 43.7124 162.097 44.1832 162.817 44.7255C162.119 45.3127 161.458 45.8681 160.772 46.4474ZM166.004 70.3805C165.5 69.9864 165.038 69.624 164.416 69.1347C164.878 68.6453 165.273 68.2274 165.853 67.6111C166.5 68.1427 166.976 68.5342 167.564 69.0209C167.057 69.4653 166.606 69.8568 166.004 70.3805ZM165.763 63.0191C166.27 63.408 166.727 63.7571 167.315 64.2068C166.855 64.7147 166.48 65.1352 165.839 65.8441C165.332 65.2781 164.945 64.8443 164.483 64.3258C164.94 63.8629 165.293 63.5032 165.763 63.0191ZM165.447 58.8557C165.727 58.6864 166.329 58.9933 166.785 59.0832C166.631 59.6254 166.474 60.1677 166.222 61.0565C165.052 60.1042 164.349 59.5223 165.447 58.8557ZM165.895 55.8879C165.36 55.4118 164.906 55.0097 164.419 54.5785C164.881 54.0548 165.284 53.5998 165.76 53.0629C166.449 53.6316 166.928 54.0284 167.572 54.56C167.004 55.0071 166.491 55.4144 165.895 55.8879ZM165.615 50.8119C165.419 50.6426 165.032 50.3014 164.503 49.8385C164.909 49.3333 165.315 48.8254 165.844 48.1668C166.497 48.754 166.892 49.1084 167.631 49.7724C166.906 50.148 166.298 50.4601 165.615 50.8119ZM165.956 46.3549C165.332 45.884 164.724 45.4238 163.945 44.8366C164.595 44.2626 165.2 43.723 165.898 43.104C166.511 43.6833 167.077 44.2176 167.721 44.8286C167.099 45.3682 166.581 45.8152 165.956 46.3549ZM170.88 38.3216C171.359 38.8189 171.827 39.3003 172.34 39.832C171.886 40.3531 171.485 40.8133 171.034 41.3344C170.516 40.8054 170.051 40.3293 169.502 39.7685C169.836 39.4193 170.301 38.93 170.88 38.3216ZM170.942 43.268C171.499 43.8579 171.911 44.2943 172.449 44.863C171.908 45.4132 171.435 45.8946 170.934 46.4025C170.326 45.9158 169.78 45.4793 168.914 44.7863C169.555 44.3075 170.16 43.8526 170.942 43.268ZM172.44 49.8464C171.978 50.3463 171.578 50.7801 170.942 51.4705C170.547 50.7325 170.222 50.1242 169.808 49.3465C169.906 49.238 170.345 48.7513 170.872 48.1721C171.454 48.7937 171.925 49.2962 172.44 49.8464ZM171.116 70.6265C170.499 70.1451 169.95 69.7166 169.239 69.1638C169.749 68.648 170.219 68.1745 170.833 67.5529C171.398 68.0607 171.953 68.558 172.608 69.1479C172.071 69.6796 171.642 70.1054 171.116 70.6265ZM171.373 63.2334C171.466 63.326 171.83 63.691 172.303 64.1698C171.875 64.7067 171.466 65.2225 170.956 65.86C170.432 65.323 170.02 64.8998 169.34 64.1989C170.012 63.8788 170.634 63.5852 171.373 63.2334ZM169.617 59.5382C170.093 59.0144 170.502 58.57 171.088 57.9273C171.555 58.3928 171.959 58.7922 172.524 59.3556C172.054 59.845 171.603 60.3185 171.018 60.9295C170.513 60.4296 170.102 60.0196 169.617 59.5382ZM171.172 56.2344C170.569 55.7265 169.962 55.216 169.261 54.6262C169.844 54.1236 170.424 53.621 171.079 53.055C171.637 53.5152 172.244 54.0204 172.97 54.6209C172.309 55.2134 171.779 55.6895 171.172 56.2344ZM176.107 33.4784C176.589 34.0868 176.947 34.5391 177.362 35.0628C177.011 35.4755 176.734 35.8035 176.362 36.2452C175.771 35.8511 175.213 35.4807 174.6 35.0681C175.045 34.5946 175.407 34.2164 176.107 33.4784ZM176.149 45.7147C175.827 45.3656 175.502 45.0138 175.18 44.6646C175.513 44.3948 175.846 44.1277 176.303 43.7573C176.625 44.2308 177.065 44.5932 177.025 44.8974C176.981 45.1989 176.46 45.4449 176.149 45.7147ZM176.695 50.2643C175.891 51.1002 175.502 50.4257 175.107 49.8147C175.566 49.2592 175.998 48.5582 176.768 49.4126C176.913 49.574 176.863 50.0898 176.695 50.2643ZM175.303 39.9087C175.241 39.6653 175.72 39.303 176.11 38.8004C176.504 39.221 176.981 39.5066 176.981 39.7897C176.978 40.078 176.504 40.5858 176.233 40.5885C175.902 40.5911 175.376 40.2076 175.303 39.9087ZM176.11 53.3935C176.608 53.8379 177.051 54.232 177.541 54.6711C177.121 55.1129 176.759 55.4938 176.292 55.9857C175.678 55.5705 175.112 55.1869 174.351 54.6738C174.95 54.2347 175.471 53.8564 176.11 53.3935ZM176.476 63.4424C176.703 63.408 177.028 63.9502 177.482 64.4052C176.824 64.7226 176.395 65.0956 176.003 65.0612C175.72 65.0374 175.491 64.474 175.236 64.1512C175.647 63.8947 176.037 63.5058 176.476 63.4424ZM175.062 59.5355C175.065 59.3239 175.065 59.1123 175.068 58.9007C175.628 58.861 176.213 58.7208 176.734 58.8398C176.891 58.8769 177.079 59.8027 176.88 60.0328C175.939 61.1094 175.614 59.8979 175.062 59.5355ZM176.241 70.3752C175.773 69.9917 175.379 69.6663 174.869 69.2458C175.166 68.9204 175.351 68.6242 175.619 68.4416C176.717 67.6904 176.953 68.6823 177.558 69.2828C177.09 69.6716 176.701 69.9943 176.241 70.3752ZM181.328 45.7332C180.989 45.6777 180.622 45.0323 180.549 44.6038C180.515 44.4054 181.216 43.8579 181.482 43.9108C181.921 43.998 182.277 44.4477 182.832 44.8683C182.165 45.2783 181.697 45.7914 181.328 45.7332ZM181.409 50.7378C180.328 50.1321 180.26 49.5026 181.417 48.7725C182.58 49.4206 182.58 50.0527 181.409 50.7378ZM181.58 41.1625C181.064 40.6229 180.709 40.2499 180.322 39.8478C180.742 39.3823 181.092 38.9935 181.501 38.5412C181.977 39.0146 182.356 39.3929 182.877 39.9113C182.454 40.3213 182.067 40.6916 181.58 41.1625ZM181.361 53.3777C181.854 53.8247 182.294 54.2215 182.778 54.6579C182.283 55.1472 181.854 55.5705 181.308 56.1101C180.84 55.671 180.451 55.3112 179.924 54.8193C180.454 54.2902 180.86 53.8802 181.361 53.3777ZM181.35 58.1442C181.829 58.6176 182.232 59.0197 182.748 59.5276C182.325 60.0143 181.93 60.4666 181.468 60.9983C180.989 60.4613 180.585 60.009 180.042 59.398C180.552 58.9086 180.871 58.6018 181.35 58.1442ZM182.63 64.4078C182.451 64.6194 182.075 65.0665 181.546 65.696C181.045 65.1538 180.613 64.6909 180.16 64.1989C180.594 63.736 180.944 63.3604 181.569 62.6964C181.921 63.2704 182.23 63.7651 182.63 64.4078ZM181.423 70.8196C180.927 70.1636 180.599 69.7325 180.151 69.1373C180.434 68.7934 180.86 68.2776 181.384 67.6402C181.924 68.1057 182.381 68.4972 182.972 69.005C182.51 69.5447 182.073 70.0578 181.423 70.8196ZM181.585 36.7319C181.031 36.1024 180.636 35.6553 180.199 35.1554C180.605 34.6449 180.983 34.1714 181.434 33.6054C181.972 34.0762 182.487 34.5259 183.042 35.0126C182.487 35.6686 182.087 36.1394 181.585 36.7319Z" fill="#D92892"/>
<path d="M173.966 14.4692C174.235 14.5195 175.002 13.6519 174.974 13.2339C174.941 12.7261 174.308 12.2552 173.563 11.2871C172.949 12.3531 172.294 12.9853 172.423 13.3979C172.577 13.882 173.372 14.3581 173.966 14.4692Z" fill="#D92892"/>
<path d="M168.443 16.8438C168.021 17.2141 167.326 17.5447 167.259 17.9653C167.194 18.3594 167.794 18.8514 168.329 19.637C168.931 18.8937 169.572 18.4467 169.539 18.0499C169.505 17.6214 168.836 17.2432 168.443 16.8438Z" fill="#D92892"/>
<path d="M168.407 34.7459C169.365 34.7406 170.356 33.8281 170.407 32.9023C170.463 31.9368 169.625 31.0718 168.558 30.9951C167.421 30.9131 166.578 31.5744 166.48 32.6245C166.382 33.7249 167.312 34.7512 168.407 34.7459Z" fill="#D92892"/>
<path d="M169.723 13.2948C169.683 12.8266 168.924 12.2288 168.356 12.0595C168.073 11.9748 167.177 12.7075 167.157 13.0964C167.132 13.628 167.678 14.1862 168.247 15.2178C169.011 14.284 169.759 13.7603 169.723 13.2948Z" fill="#D92892"/>
<path d="M163.281 35.7921C162.172 35.8291 161.418 36.6121 161.48 37.6701C161.536 38.6382 162.502 39.4979 163.472 39.4371C164.415 39.3789 165.387 38.3684 165.34 37.4982C165.289 36.5539 164.326 35.7577 163.281 35.7921Z" fill="#D92892"/>
<path d="M162.112 8.47877C162.185 8.94695 162.838 9.68494 163.219 9.67965C163.79 9.67436 164.356 9.11889 165.291 8.58986C165.005 8.37561 164.773 8.17722 164.566 8H162.132C162.095 8.14813 162.087 8.30683 162.112 8.47877Z" fill="#D92892"/>
<path d="M163.316 14.5054C163.812 14.5768 164.423 13.934 165.448 13.3283C164.498 12.675 164.022 12.1221 163.442 11.9978C162.613 11.8206 161.902 12.3787 162.062 13.1722C162.162 13.7013 162.815 14.434 163.316 14.5054Z" fill="#D92892"/>
<path d="M173.734 19.6557C174.471 19.5314 175.095 18.8066 176.202 18.058C175.135 17.2645 174.555 16.5635 173.821 16.3546C172.829 16.0715 171.81 17.0926 171.914 18.0871C172.02 19.0976 172.712 19.8276 173.734 19.6557Z" fill="#D92892"/>
<path d="M168.53 9.81512C169.107 9.70667 169.574 9.0983 170.487 8.42379C170.261 8.2836 170.056 8.14076 169.868 8.00586H167.283C167.174 8.15134 167.093 8.29947 167.065 8.43701C166.885 9.29668 167.541 10.0029 168.53 9.81512Z" fill="#D92892"/>
<path d="M169.154 23.1515C169.109 22.7997 168.787 22.4822 168.398 21.8633C168.042 22.4743 167.729 22.7997 167.703 23.1409C167.689 23.3287 168.163 23.7122 168.412 23.7069C168.681 23.7043 169.177 23.3207 169.154 23.1515Z" fill="#D92892"/>
<path d="M167.273 27.7782C167.219 28.1723 167.855 28.6511 168.463 29.4552C168.984 28.6193 169.48 28.1617 169.491 27.6935C169.497 27.3629 168.746 26.6884 168.511 26.7545C168.009 26.8921 167.329 27.3708 167.273 27.7782Z" fill="#D92892"/>
<path d="M173.809 24.1988C174.091 24.2729 174.949 23.5217 174.957 23.1355C174.965 22.6091 174.408 22.0721 173.817 21.0723C173.092 22.0219 172.366 22.5588 172.417 23.0217C172.464 23.4793 173.24 24.048 173.809 24.1988Z" fill="#D92892"/>
<path d="M163.353 19.5884C164.367 19.591 165.1 18.8768 165.036 17.9193C164.974 17.0067 164.428 16.4724 163.482 16.3666C162.56 16.2635 161.675 17.0438 161.627 17.9299C161.577 18.8425 162.353 19.5857 163.353 19.5884Z" fill="#D92892"/>
<path d="M158.461 30.6969C157.329 30.6229 156.105 31.71 156.094 32.7972C156.083 33.9346 157.203 34.9133 158.441 34.8524C159.623 34.7942 160.472 33.9425 160.474 32.8104C160.477 31.7338 159.553 30.7684 158.461 30.6969Z" fill="#D92892"/>
<path d="M158.462 14.408C158.966 14.3075 159.361 13.7309 160.084 13.141C159.3 12.6543 158.787 12.0829 158.333 12.1253C157.88 12.1649 157.213 12.7627 157.121 13.2045C156.95 14.0218 157.616 14.5773 158.462 14.408Z" fill="#D92892"/>
<path d="M158.346 20.3435C159.155 19.3145 159.95 18.73 160.079 18.0343C160.253 17.1059 159.547 16.3943 158.438 16.3044C157.36 16.2198 156.293 17.1138 156.578 18.074C156.785 18.7776 157.528 19.3357 158.346 20.3435Z" fill="#D92892"/>
<path d="M158.254 21.477C157.299 21.522 156.677 22.0219 156.621 22.8974C156.56 23.892 157.176 24.5162 158.229 24.6406C159.153 24.749 159.954 23.9872 159.971 23.0588C159.991 22.0986 159.274 21.4294 158.254 21.477Z" fill="#D92892"/>
<path d="M158.249 9.39593C158.622 9.39064 158.988 8.88278 159.358 8.59446C159.179 8.41195 159.014 8.19505 158.84 8.00195H157.473C157.299 8.16066 157.109 8.33524 156.91 8.49395C157.484 8.90659 157.871 9.40122 158.249 9.39593Z" fill="#D92892"/>
<path d="M163.329 29.547C164.357 29.5603 165.315 28.6821 165.29 27.751C165.265 26.8305 164.231 25.8782 163.271 25.9893C162.251 26.1084 161.59 26.6638 161.506 27.6822C161.422 28.7165 162.234 29.5338 163.329 29.547Z" fill="#D92892"/>
<path d="M162.216 23.0756C162.289 23.4988 163.009 24.1283 163.412 24.1072C163.824 24.086 164.479 23.3983 164.507 22.9751C164.532 22.573 163.883 22.1313 163.269 21.3906C162.746 22.1815 162.149 22.6788 162.216 23.0756Z" fill="#D92892"/>
<path d="M163.47 34.7477C164.621 34.6869 165.532 33.6738 165.403 32.5972C165.285 31.6079 164.361 30.8779 163.277 30.9176C162.07 30.9599 161.232 31.8963 161.375 33.0442C161.504 34.0705 162.406 34.8059 163.47 34.7477Z" fill="#D92892"/>
<path d="M158.53 35.7282C157.312 35.6118 156.351 36.3974 156.359 37.5401C156.368 38.6484 157.012 39.3309 158.138 39.5187C159.169 39.6906 160.306 38.6855 160.354 37.6539C160.404 36.691 159.583 35.8287 158.53 35.7282Z" fill="#D92892"/>
<path d="M178.814 19.8689C179.827 19.8398 180.682 18.9511 180.656 17.9512C180.631 16.8985 179.802 16.1684 178.682 16.2107C177.637 16.2504 176.738 17.1365 176.783 18.0782C176.825 19.0013 177.844 19.898 178.814 19.8689Z" fill="#D92892"/>
<path d="M178.837 14.1355C179.212 14.1381 179.59 13.625 180.175 13.1806C179.528 12.76 179.089 12.2575 178.719 12.2971C178.36 12.3368 177.831 12.9373 177.828 13.297C177.82 13.5932 178.47 14.1302 178.837 14.1355Z" fill="#D92892"/>
<path d="M184.144 30.0322C185.315 29.9925 186.371 28.8868 186.34 27.7283C186.306 26.4877 185.301 25.6095 183.976 25.6624C182.713 25.7127 181.662 26.7549 181.73 27.8896C181.797 28.99 183.01 30.0692 184.144 30.0322Z" fill="#D92892"/>
<path d="M183.966 24.7467C185.007 24.8313 185.957 23.9743 185.94 22.5618C185.512 22.2471 184.923 21.5514 184.178 21.3292C183.229 21.0462 182.207 22.0672 182.26 23.0485C182.31 24.051 182.884 24.6594 183.966 24.7467Z" fill="#D92892"/>
<path d="M178.734 25.3269C180.135 24.7529 181.322 24.0467 180.821 22.5945C180.597 21.9412 179.659 21.2614 178.908 21.0683C177.813 20.7852 176.945 21.465 176.681 22.531C176.314 24.0282 177.323 24.7556 178.734 25.3269Z" fill="#D92892"/>
<path d="M172.133 27.7939C172.111 28.7118 173.074 29.6217 173.909 29.3069C174.57 29.0583 175.06 28.3997 175.979 27.622C174.943 27.0216 174.34 26.4317 173.662 26.3365C172.71 26.1989 172.156 26.8602 172.133 27.7939Z" fill="#D92892"/>
<path d="M184.236 9.64987C184.74 9.53348 185.121 8.95155 185.836 8.34582C185.645 8.23208 185.471 8.11569 185.309 8.00195H183.113C182.99 8.15802 182.9 8.31937 182.872 8.46485C182.727 9.26897 183.368 9.8509 184.236 9.64987Z" fill="#D92892"/>
<path d="M184.168 18.9596C184.431 19.0336 184.902 18.4702 185.591 17.9623C184.877 17.5074 184.437 17.0207 183.975 17.0022C183.644 16.9889 183.289 17.6079 182.941 17.9438C183.345 18.3036 183.695 18.8247 184.168 18.9596Z" fill="#D92892"/>
<path d="M184.869 13.2412C184.922 13.0984 184.39 12.5561 184.247 12.5958C183.897 12.691 183.507 12.9714 183.356 13.2756C183.272 13.4423 183.636 13.8099 183.93 14.3125C184.373 13.8364 184.742 13.5798 184.869 13.2412Z" fill="#D92892"/>
</g>
<path d="M70.3711 35.5234C70.3711 34.8594 70.1367 34.3516 69.668 34C69.1992 33.6406 68.3555 33.2656 67.1367 32.875C65.918 32.4766 64.9531 32.0859 64.2422 31.7031C62.3047 30.6562 61.3359 29.2461 61.3359 27.4727C61.3359 26.5508 61.5938 25.7305 62.1094 25.0117C62.6328 24.2852 63.3789 23.7188 64.3477 23.3125C65.3242 22.9062 66.418 22.7031 67.6289 22.7031C68.8477 22.7031 69.9336 22.9258 70.8867 23.3711C71.8398 23.8086 72.5781 24.4297 73.1016 25.2344C73.6328 26.0391 73.8984 26.9531 73.8984 27.9766H70.3828C70.3828 27.1953 70.1367 26.5898 69.6445 26.1602C69.1523 25.7227 68.4609 25.5039 67.5703 25.5039C66.7109 25.5039 66.043 25.6875 65.5664 26.0547C65.0898 26.4141 64.8516 26.8906 64.8516 27.4844C64.8516 28.0391 65.1289 28.5039 65.6836 28.8789C66.2461 29.2539 67.0703 29.6055 68.1562 29.9336C70.1562 30.5352 71.6133 31.2812 72.5273 32.1719C73.4414 33.0625 73.8984 34.1719 73.8984 35.5C73.8984 36.9766 73.3398 38.1367 72.2227 38.9805C71.1055 39.8164 69.6016 40.2344 67.7109 40.2344C66.3984 40.2344 65.2031 39.9961 64.125 39.5195C63.0469 39.0352 62.2227 38.375 61.6523 37.5391C61.0898 36.7031 60.8086 35.7344 60.8086 34.6328H64.3359C64.3359 36.5156 65.4609 37.457 67.7109 37.457C68.5469 37.457 69.1992 37.2891 69.668 36.9531C70.1367 36.6094 70.3711 36.1328 70.3711 35.5234ZM79.6406 40H76.2422V27.3203H79.6406V40ZM76.043 24.0391C76.043 23.5312 76.2109 23.1133 76.5469 22.7852C76.8906 22.457 77.3555 22.293 77.9414 22.293C78.5195 22.293 78.9805 22.457 79.3242 22.7852C79.668 23.1133 79.8398 23.5312 79.8398 24.0391C79.8398 24.5547 79.6641 24.9766 79.3125 25.3047C78.9688 25.6328 78.5117 25.7969 77.9414 25.7969C77.3711 25.7969 76.9102 25.6328 76.5586 25.3047C76.2148 24.9766 76.043 24.5547 76.043 24.0391ZM81.9492 33.5664C81.9492 31.6211 82.4102 30.0547 83.332 28.8672C84.2617 27.6797 85.5117 27.0859 87.082 27.0859C88.4727 27.0859 89.5547 27.5625 90.3281 28.5156L90.4688 27.3203H93.5391V39.5781C93.5391 40.6875 93.2852 41.6523 92.7773 42.4727C92.2773 43.293 91.5703 43.918 90.6562 44.3477C89.7422 44.7773 88.6719 44.9922 87.4453 44.9922C86.5156 44.9922 85.6094 44.8047 84.7266 44.4297C83.8438 44.0625 83.1758 43.5859 82.7227 43L84.2227 40.9375C85.0664 41.8828 86.0898 42.3555 87.293 42.3555C88.1914 42.3555 88.8906 42.1133 89.3906 41.6289C89.8906 41.1523 90.1406 40.4727 90.1406 39.5898V38.9102C89.3594 39.793 88.332 40.2344 87.0586 40.2344C85.5352 40.2344 84.3008 39.6406 83.3555 38.4531C82.418 37.2578 81.9492 35.6758 81.9492 33.707V33.5664ZM85.3359 33.8125C85.3359 34.9609 85.5664 35.8633 86.0273 36.5195C86.4883 37.168 87.1211 37.4922 87.9258 37.4922C88.957 37.4922 89.6953 37.1055 90.1406 36.332V31C89.6875 30.2266 88.957 29.8398 87.9492 29.8398C87.1367 29.8398 86.4961 30.1719 86.0273 30.8359C85.5664 31.5 85.3359 32.4922 85.3359 33.8125ZM99.2695 27.3203L99.375 28.7852C100.281 27.6523 101.496 27.0859 103.02 27.0859C104.363 27.0859 105.363 27.4805 106.02 28.2695C106.676 29.0586 107.012 30.2383 107.027 31.8086V40H103.641V31.8906C103.641 31.1719 103.484 30.6523 103.172 30.332C102.859 30.0039 102.34 29.8398 101.613 29.8398C100.66 29.8398 99.9453 30.2461 99.4688 31.0586V40H96.082V27.3203H99.2695ZM119.543 40H116.027V22.9375H119.543V40ZM125.707 27.3203L125.812 28.7852C126.719 27.6523 127.934 27.0859 129.457 27.0859C130.801 27.0859 131.801 27.4805 132.457 28.2695C133.113 29.0586 133.449 30.2383 133.465 31.8086V40H130.078V31.8906C130.078 31.1719 129.922 30.6523 129.609 30.332C129.297 30.0039 128.777 29.8398 128.051 29.8398C127.098 29.8398 126.383 30.2461 125.906 31.0586V40H122.52V27.3203H125.707Z" fill="black"/>
</svg>
