<svg width="225" height="18" viewBox="0 0 225 18" fill="none" xmlns="http://www.w3.org/2000/svg">
<path d="M17.5954 12.5719C17.5954 14.2594 17.093 15.5438 16.0881 16.425C15.0832 17.2875 13.4115 17.7188 11.0732 17.7188H0V0.253125H10.9573C15.1508 0.253125 17.2476 1.79063 17.2476 4.86563C17.2476 5.82188 17.1219 6.5625 16.8707 7.0875C16.6388 7.6125 16.1847 8.0625 15.5083 8.4375V8.55C16.8997 9.075 17.5954 10.4156 17.5954 12.5719ZM9.0441 14.1469V10.6875H8.1165V14.1469H9.0441ZM9.0441 7.48125V4.55625H8.1165V7.48125H9.0441Z" fill="#2C92A8"/>
<path d="M23.6787 8.8875C23.6787 5.75625 24.4131 3.49688 25.8818 2.10938C27.3698 0.703125 29.8241 0 33.2446 0C36.6651 0 39.1 0.69375 40.5494 2.08125C42.0181 3.45 42.7525 5.7 42.7525 8.83125C42.7525 11.9438 41.9988 14.25 40.4914 15.75C38.9841 17.25 36.5395 18 33.1576 18C29.7951 18 27.3698 17.2594 25.8818 15.7781C24.4131 14.2969 23.6787 12 23.6787 8.8875ZM33.8533 13.3031V5.48438H32.9257V13.3031H33.8533Z" fill="#2C92A8"/>
<path d="M57.4759 17.7188H49.3014V0.253125H57.4759V17.7188Z" fill="#2C92A8"/>
<path d="M75.2239 17.7188H64.4406V0.253125H72.615V12.1219H75.6297L75.2239 17.7188Z" fill="#2C92A8"/>
<path d="M95.0586 17.7188H82.0142V0.253125H95.6093L95.1745 5.99063H90.1887V7.00313H95.0586L94.7687 11.6719H90.1887V12.6844H95.4934L95.0586 17.7188Z" fill="#2C92A8"/>
<path d="M111.56 0.253125C114.149 0.253125 116.043 0.7125 117.241 1.63125C118.44 2.55 119.039 3.96563 119.039 5.87813C119.039 7.77188 118.43 9.24375 117.213 10.2938L119.618 17.7188H111.734L110.69 12.2906H110.169V17.7188H101.994V0.253125H111.56ZM110.98 8.15625V5.2875H110.053V8.15625H110.98Z" fill="#2C92A8"/>
<path d="M134.867 12.8531H134.027V17.7188H125.852V0.253125H134.519C137.264 0.253125 139.273 0.76875 140.549 1.8C141.844 2.83125 142.491 4.43438 142.491 6.60938C142.491 8.78438 141.873 10.3688 140.636 11.3625C139.399 12.3563 137.476 12.8531 134.867 12.8531ZM134.838 8.775V5.2875H133.911V8.775H134.838Z" fill="#2C92A8"/>
<path d="M159.644 17.7188H148.861V0.253125H157.035V12.1219H160.05L159.644 17.7188Z" fill="#2C92A8"/>
<path d="M185.363 17.7188H176.957L176.493 15.0469H174.232L173.739 17.7188H165.623L169.13 0.253125H181.856L185.363 17.7188ZM175.856 11.3063V7.81875H174.928V11.3063H175.856Z" fill="#2C92A8"/>
<path d="M204.641 5.93438H202.032V17.7188H193.829V5.93438H190.93L191.22 0.253125H205.018L204.641 5.93438Z" fill="#2C92A8"/>
<path d="M224.449 17.7188H211.405V0.253125H225L224.565 5.99063H219.579V7.00313H224.449L224.159 11.6719H219.579V12.6844H224.884L224.449 17.7188Z" fill="#2C92A8"/>
</svg>
