<svg width="1000" height="1583" viewBox="0 0 1000 1583" fill="none" xmlns="http://www.w3.org/2000/svg">
  <g style="mix-blend-mode:multiply" opacity="0.66">
    <path
      d="M535.524 882.179C530.081 881.245 524.399 881.042 519.273 879.246C510.559 876.183 509.509 859.798 516.972 851.858C518.637 850.092 519.444 847.527 520.647 845.316C517.939 844.228 515.195 843.255 512.567 842.017C509.106 840.405 505.752 838.586 500.861 836.098C495.382 840.205 490.088 850.408 478.747 845.805C475.584 844.514 472.144 842.885 469.983 840.423C464.756 834.452 464.535 821.617 468.957 817.589C476.172 811.042 488.925 813.664 501.052 824.826C505.54 819.118 509.98 813.464 514.856 807.266C508.091 801.369 501.162 795.35 493.983 789.096C491.524 791.981 488.158 795.629 485.152 799.586C479.121 807.499 471.685 805.693 465.216 801.485C458.263 796.99 459.662 789.137 462.247 782.932C465.221 775.774 471.939 774.849 478.69 777.568C483.379 779.466 487.702 782.299 491.392 784.304C497.384 778.92 502.984 772.417 509.906 768.042C519.138 762.189 524.756 772.715 533.375 775.585C534.986 770.193 536.517 765.092 538.255 759.356C536.551 757.679 534.444 755.706 532.413 753.624C528.018 749.091 524.623 748.473 519.484 753.792C515.98 757.421 507.504 761.547 505.115 759.878C499.857 756.235 495.294 749.509 493.711 743.204C491.831 735.815 507.254 727.278 514.278 731.098C517.332 732.756 520.222 734.733 523.173 736.558C528.188 730.218 533.323 723.732 539.379 716.085C534.858 715.174 530.884 714.378 526.893 713.559C517.702 697.023 525.867 686.402 539.145 677.818C544.367 681.436 549.513 685.024 554.661 688.592C557.185 684.63 559.568 682.156 560.382 679.25C561.042 676.887 560.814 672.755 559.291 671.525C550.806 664.673 549.647 655.068 550.94 645.915C551.635 640.902 557.38 636.61 561.475 631.131C559.009 628.989 553.683 626.443 551.96 622.371C549.886 617.468 548.831 610.229 551.045 605.884C554.09 599.841 560.274 595.568 568.746 596.849C572.842 597.481 579.07 601.838 581.254 594.131C582.142 590.974 581.892 586.86 580.56 583.906C578.871 580.181 575.536 577.178 573.134 574.121C569.189 578.032 565.737 583.216 560.915 585.582C558.075 586.969 552.153 584.965 549.161 582.552C540.56 575.664 542.082 570.482 556.031 556.921C560.888 560.711 565.872 564.599 570.857 568.487C573.705 562.86 576.893 557.7 578.79 552.126C579.458 550.146 577.606 546.438 575.794 544.666C567.902 536.99 563.582 528.166 567.937 517.475C569.678 513.206 574.141 510.068 573.514 508.757C570.734 502.975 567.303 497.407 565.465 491.349C564.461 488.058 565.567 483.724 566.799 480.251C573.227 462.08 586.459 469.511 597.816 472.95C604.35 465.487 598.191 461.662 594.636 457.605C590.018 452.34 587.105 456.953 583.394 459.73C575.909 465.296 567.226 464.247 561.719 457.072C556.639 450.458 554.136 443.667 562.271 436.702C567.272 432.41 568.752 428.287 560.813 423.499C556.444 420.86 552.173 412.565 553.168 408.015C554.305 402.861 560.784 397.743 566.169 395.071C569.293 393.522 574.825 396.779 580.31 398.141C582.25 393.739 584.774 387.987 587.734 381.23C584.188 377.857 580.086 373.988 575.824 369.956C562.644 390.053 561.686 390.446 549.357 381.388C543.376 376.984 544.015 365.973 550.696 358.611C554.519 354.402 566.902 356.492 574.097 363.371C576.844 357.006 581.406 351.047 581.515 345.011C581.663 337.351 574.584 339.755 569.707 340.747C560.86 342.551 552.05 349.003 543.444 339.763C539.263 335.28 537.578 324.659 542.626 320.756C547.227 317.194 553.008 312.485 560.013 317.489C563.882 320.261 568.12 322.521 571.481 324.582C574.419 319.188 577.961 314.981 578.856 310.277C579.491 306.905 577.619 301.848 575.088 299.296C565.106 289.227 563.738 281.323 571.428 270.799C577.643 262.268 596.124 265.803 601.442 276.168C605.532 284.157 604.088 290.999 597.408 297.758C602.715 304.182 608.034 309.764 612.205 316.115C613.939 318.761 613.697 323.091 613.39 326.567C612.747 333.879 610.258 340.419 617.424 347.214C626.195 355.531 623.471 366.503 618.549 376.474C621.289 379.115 624.017 381.251 626.132 383.908C630.006 388.732 633.416 390.578 639.265 385.958C641.832 383.912 648.433 383.112 650.289 384.85C653.875 388.228 658.336 394.96 657.074 398.208C655.36 402.58 647.538 408.563 644.194 407.57C633.755 404.475 630.749 412.172 630.248 417.532C629.811 422.418 635.191 427.847 639.409 432.798C641.021 421.576 650.196 422.41 656.365 420.788C658.679 420.175 664.363 425.584 665.641 429.234C669.536 440.313 658.841 441.365 653.036 446.252C648.641 442.464 644.683 439.016 640.362 435.278C638.835 443.033 637.365 450.514 635.851 458.171C642.792 461.86 648.972 465.828 657.663 462.053C660.181 460.965 665.782 465.057 668.952 467.936C673.201 471.765 672.354 476.858 667.626 479.578C663.267 482.087 658 482.986 652.675 483.414C641.835 494.639 641.768 496.781 651.508 512.226C655.009 510.265 658.345 507.437 662.142 506.561C666.332 505.598 671.511 505.21 675.115 506.962C677.038 507.904 678.262 515.386 676.69 517.205C674.289 519.958 669.051 521.685 665.258 521.335C661.308 520.963 657.638 517.614 654.078 515.688C651.077 521.696 647.261 528.54 644.363 535.728C643.73 537.292 645.875 540.616 647.546 542.389C659.596 555.169 659.749 564.779 647.736 576.509C646.833 577.393 645.844 578.164 646.185 577.868C652.703 586.647 658.793 594.865 665.051 603.327C653.232 613.616 641.787 620.377 627.435 610.362C625.044 613.639 622.999 616.439 620.46 619.917C622.822 622.527 625.292 625.533 628.044 628.235C635.999 636.041 636.007 635.982 639.853 625.182C640.247 624.049 641.935 622.266 642.277 622.413C649.524 625.62 658.294 627.525 663.38 632.894C669.013 638.839 664.841 646.68 658.95 651.757C654.834 655.304 643.704 652.418 637.715 647.028C626.784 659.085 626.541 661.786 635.305 673.279C640.258 679.796 638.888 693.101 632.456 699.512C630.62 701.355 628.479 702.916 625.348 705.57C627.615 707.243 630.013 708.249 631.239 710.042C635.57 716.395 641.548 722.608 643.008 729.68C644.342 736.192 623.698 744.086 618.162 738.918C612.076 733.213 608.604 735.56 605.018 740.686C601.213 746.104 599.115 751.229 606.308 756.339C613.644 761.569 615.736 772.163 611.881 779.142C607.387 787.282 596.386 792.394 588.281 789.734C581.639 787.553 575.208 785.601 568.933 790.546C564.769 793.845 564.289 795.771 568.876 800.369C573.708 805.241 579.121 813.408 578.184 819.172C577.044 826.296 570.805 834.261 561.063 834.054C556.774 833.959 552.588 831.305 548.248 830.539C545.599 830.062 541.858 829.92 540.09 831.411C534.833 835.809 530.322 841.091 525.004 846.547C530.332 848.33 536.582 850.438 542.859 852.49C547.656 854.04 548.326 856.382 546.58 861.434C543.9 869.094 543.226 877.527 535.511 882.418L535.524 882.179ZM550.807 798.257C546.788 794.961 544.078 792.988 541.651 790.711C536.598 785.99 532.755 786.015 529.832 792.939C527.268 798.987 524.575 804.655 533.657 807.828C535.307 808.412 536.21 811.107 538.159 813.802C542.54 808.441 546.636 803.404 550.807 798.257ZM546.503 716.622C546.618 717.562 546.732 718.502 546.847 719.443C553.607 714.925 559.609 732.6 566.49 718.53C570.701 709.95 565.121 705.56 558.727 701.985C554.485 707.063 550.483 711.851 546.503 716.622ZM559.151 753.465C562.849 756.758 565.575 759.356 568.473 761.717C573.525 765.855 581.364 762.126 579.219 756.41C577.391 751.479 571.815 747.954 567.628 743.51C564.122 747.602 561.875 750.254 559.151 753.465ZM574.224 632.144C579.995 632.137 585.544 642.132 590.905 632.179C592.11 629.949 590.673 623.906 588.64 622.727C580.394 617.978 577.69 625.515 574.224 632.144ZM594.219 421.143C592.882 419.877 591.528 418.589 590.191 417.324C586.124 420.053 582.055 422.801 577.988 425.531C580.687 428.628 583.386 431.725 586.068 434.801C588.773 430.24 591.495 425.701 594.219 421.143ZM616.235 554.114C618.626 549.792 620.845 546.754 621.784 543.362C622.02 542.509 618.123 539.351 616.08 539.297C612.272 539.206 608.441 540.64 602.424 541.88C608.028 546.837 611.206 549.657 616.235 554.114ZM637.522 581.144C630.998 577.793 626.522 575.502 621.99 573.182C619.325 576.844 617.299 579.647 614.903 582.963C622.299 589.246 628.461 584.688 637.522 581.144ZM604.935 719.808C606.709 719.323 608.466 718.816 610.241 718.331C609.367 713.771 608.853 709.078 607.255 704.822C607.019 704.187 601.614 705.51 598.603 705.928C600.716 710.535 602.827 715.162 604.935 719.808ZM603.658 496.895C601.967 496.607 600.258 496.317 598.57 496.009C597.041 499.603 595.489 503.213 593.96 506.807C597.713 507.895 601.467 508.984 605.198 510.089C604.706 505.681 604.172 501.287 603.658 496.895Z"
      fill="currentColor" />
    <path
      d="M812.173 1031.97C807.457 1030.27 805.038 1029.42 802.647 1028.52C787.779 1022.94 781.703 1031.63 778.69 1042.06C782.488 1050.73 786.553 1058.01 788.678 1065.82C789.535 1069.01 787.039 1074.1 784.555 1077.02C780.044 1082.3 777.65 1085.6 784.827 1091.27C790.479 1095.73 791.933 1103.45 786.537 1109.78C782.003 1115.08 776.191 1118.98 768.687 1114.99C763.998 1112.49 761.402 1112.36 759.117 1118.43C757.238 1123.42 752.796 1127.44 748.451 1133.29C751.726 1135.54 755.333 1138.02 759.88 1141.12C759.473 1149.07 760.452 1158.67 750.158 1164.5C738.885 1170.88 732.664 1162.15 724.789 1155.84C720.966 1164.07 717.493 1171.5 714.039 1178.94C728.642 1185.89 730.074 1189.88 726.418 1211.5C723.9 1211.99 721.281 1212.48 719.447 1212.81C724.855 1217.58 730.139 1222.23 734.955 1226.48C740.918 1221.01 746.003 1213.86 752.914 1210.61C761.029 1206.77 768.54 1211.61 773.59 1219.48C780.53 1214.53 787.205 1209.9 793.745 1205.07C802.787 1198.39 807.815 1211.95 816.048 1208.43C818.637 1223.54 814.272 1234.61 799.128 1241.82C803.307 1243.93 805.55 1245.04 807.766 1246.2C814.772 1249.86 816.638 1256 814.225 1262.87C811.875 1269.57 806.297 1272.78 799.309 1270.33C792.799 1268.06 788.505 1262.78 791.408 1255.86C796.885 1242.8 789.004 1236.54 778.738 1229.62C768.154 1243.28 756.203 1256.34 740.038 1234.56C735.717 1241.72 731.991 1247.89 727.878 1254.7C736.541 1259.18 743.294 1263.97 752.4 1255.47C761.506 1246.96 774.646 1250.9 778.907 1265.09C780.117 1269.09 776.164 1276.2 772.51 1279.75C767.816 1284.3 760.886 1285.9 754.521 1281.36C751.605 1279.28 749.015 1276.72 747.284 1275.24C741.228 1280.36 736.307 1286.15 730.056 1289.13C726.469 1290.83 720.137 1289.04 716.04 1286.92C706.364 1281.89 706.364 1277.71 713.777 1259.09C708.528 1255.23 703.502 1251.49 697.448 1247.04C694.719 1250.29 691.297 1254.35 687.04 1259.39C690.387 1262.15 693.054 1264.74 696.093 1266.8C705.672 1273.3 707.717 1283.04 701.185 1292.13C694.007 1302.14 684.483 1303.75 675.15 1296.33C671.844 1293.71 668.9 1290.64 665.201 1287.21C659.563 1299.81 651.844 1310.86 636.88 1305.99C627.464 1302.91 627.984 1285.17 636.132 1270.34C630.854 1264.75 625.702 1259.27 619.703 1252.91C617.534 1256.18 614.896 1260.25 612.164 1264.26C607.753 1270.74 601.318 1274.34 594.751 1269.52C590.196 1266.17 585.386 1259.49 585.452 1254.37C585.566 1246.06 593.968 1242.93 601.223 1240.41C602.024 1240.14 603.426 1240.33 604.017 1240.87C613.775 1250.06 620.634 1242.87 629.574 1238.28C636.572 1234.68 646.402 1236.63 654.958 1236.09C655.045 1237.09 655.129 1238.1 655.216 1239.1C659.125 1233.96 663.034 1228.82 666.943 1223.67C650.622 1201.11 650.622 1201.11 661.757 1182.77C649.14 1184.51 647.235 1176.11 646.986 1167.21C646.78 1159.79 648.47 1153.06 656.97 1149.8C665.044 1146.73 666.018 1146.66 680.728 1159.23C685.63 1151.35 678.555 1136.26 694.189 1137.2C689.349 1130.6 683.755 1125.56 681.696 1119.36C680.137 1114.66 681.201 1106.46 684.458 1103.32C693.325 1094.81 703.384 1101.91 713.573 1104.33C716.328 1100.74 719.275 1096.92 722.786 1092.34C716.428 1081.94 695.96 1074.5 713.814 1057.46C725.715 1046.12 736.556 1049.81 748.251 1061.04C749.495 1055.53 750.223 1052.21 750.882 1049.27C750.085 1048.32 749.74 1047.75 749.269 1047.36C742.352 1041.85 736.301 1039.91 726.245 1043.08C713.986 1046.93 707.957 1037.21 712.103 1024.34C714.346 1017.39 719.286 1017.13 725.44 1017.56C729.207 1017.8 735.986 1016.73 736.445 1014.96C737.831 1009.6 746.233 1006.47 739.867 997.909C732.396 987.857 738.81 974.709 749.574 969.123C758.174 964.672 763.09 970.119 767.568 974.481C772.507 979.307 773.749 986.953 769.162 992.648C764.525 998.416 766.179 999.724 771.896 1002.2C776.722 1004.28 780.704 1008.29 785.029 1011.41C792.958 1002.69 800.781 1000.28 808.481 1005.2C819.518 1012.22 810.114 1021.88 812.173 1031.97ZM713.727 1216.02C706.817 1211.66 700.239 1207.51 693.493 1203.27C689.63 1208.52 685.516 1214.13 680.767 1220.59C686.044 1224.4 690.916 1227.93 696.082 1231.66C699.036 1228.24 701.1 1225.3 703.699 1223.02C706.57 1220.51 709.941 1218.61 713.727 1216.02ZM672.721 1179.28C694.083 1193.52 690.362 1194.72 704.157 1178.87C696.566 1174.03 688.883 1169.13 680.758 1163.94C678.462 1168.29 675.59 1173.8 672.721 1179.28ZM724.343 1148.4C734.259 1137.61 734.174 1137.2 723.307 1130.27C720.401 1128.41 717.997 1125.81 714.859 1123.14C711.545 1126.55 708.211 1129.96 705.48 1132.77C712.279 1138.41 718.321 1143.41 724.343 1148.4ZM659.107 1253.5C657.92 1253.8 656.753 1254.1 655.567 1254.41C657.211 1263.09 658.856 1271.78 660.501 1280.46C661.597 1280.53 662.694 1280.6 663.793 1280.64C668.104 1275.05 672.413 1269.48 676.549 1264.15C669.895 1260.12 664.492 1256.8 659.107 1253.5ZM765.637 1087.48C759.753 1083.55 754.901 1080.33 750.051 1077.08C744.406 1086.75 752.507 1090.64 757.713 1097.51C760.672 1093.75 763.241 1090.5 765.637 1087.48Z"
      fill="currentColor" />
    <path
      d="M756.005 837.574C754.85 833.759 753.109 828.921 751.945 823.98C749.998 815.596 755.185 809.178 764.588 807.872C771.799 806.873 778.779 812.517 779.489 819.93C779.578 820.907 780.044 822.075 779.698 822.853C774.509 834.517 778.818 843.722 785.549 853.594C792.215 863.358 785.662 874.698 773.733 874.759C767.697 874.791 758.081 873.355 756.366 869.666C753.112 862.634 751.753 853.023 760.928 846.841C763.316 845.232 764.851 842.343 766.771 840.029C763.378 839.25 760.004 838.474 756.005 837.574Z"
      fill="currentColor" />
    <path
      d="M445.085 859.263C439.566 854.861 433.846 851.357 429.525 846.573C425.627 842.229 423.423 836.062 428.96 831.219C434.248 826.584 439.366 819.031 447.969 823.969C454.706 827.831 461.77 834.633 457.528 842.103C451.176 853.289 457.968 860.476 462.103 868.431C466.8 877.446 466.43 881.98 455.052 889.293C446.822 894.577 440.872 891.886 435.51 885.575C430.427 879.583 432.075 869.432 438.745 863.797C440.712 862.172 442.883 860.836 445.085 859.263Z"
      fill="currentColor" />
    <path
      d="M398.027 785.659C393.918 784.824 389.824 783.429 385.701 783.295C377.812 783.057 372.968 778.424 371.633 771.771C370.08 764.044 371.985 755.576 380.801 753.406C386.394 752.028 393.843 752.69 398.777 755.465C405.655 759.326 406.812 767.001 403.441 774.568C401.742 778.38 399.774 782.095 398.027 785.659Z"
      fill="currentColor" />
    <path
      d="M409.488 698.029C400.749 696.792 396.045 689.926 397.289 680.243C398.023 674.492 409.927 661.782 414.031 662.355C420.779 663.304 431.627 677.832 430.705 684.684C429.622 692.72 419.034 699.395 409.488 698.029Z"
      fill="currentColor" />
    <path
      d="M786.099 883.36C797.763 884.971 798.734 886.268 797.144 898.075C795.578 909.705 788.697 915.714 778.444 914.373C768.823 913.117 763.14 906.06 764.183 896.671C765.335 886.775 773.744 881.656 786.099 883.36Z"
      fill="currentColor" />
    <path
      d="M781.116 1198.67C776.098 1198.01 770.752 1187.7 771.792 1180.72C773.084 1172.17 782.825 1164.18 790.841 1165.12C798.264 1165.98 805.909 1176.37 804.776 1184.04C803.364 1193.48 792.511 1200.18 781.116 1198.67Z"
      fill="currentColor" />
    <path
      d="M367.157 725.193C368.485 717.129 377.662 710.183 385.488 711.338C393.905 712.572 400.05 722.024 398.36 731.144C396.942 738.833 387.205 745.603 379.614 744.199C371.809 742.746 365.788 733.572 367.157 725.193Z"
      fill="currentColor" />
    <path
      d="M413.753 869.358C421.639 870.36 428.385 878.787 427.589 886.64C426.8 894.434 417.437 901.858 409.712 900.858C400.841 899.703 393.313 888.135 394.755 877.876C395.663 871.284 403.021 867.993 413.753 869.358Z"
      fill="currentColor" />
    <path
      d="M778.14 921.185C794.864 924.483 803.16 932.596 801.294 941.672C799.862 948.576 788.48 956.511 782.148 955.015C774.317 953.156 766.793 938.272 769.673 927.483C770.521 924.32 776.3 922.465 778.14 921.185Z"
      fill="currentColor" />
    <path
      d="M507.69 927.318C495.751 928.203 485.37 926.021 480.973 913.889C478.411 906.79 483.042 901.664 488.823 897.698C494.584 893.73 500.18 893.378 505.92 897.629C518.511 906.984 510.495 917.242 507.69 927.318Z"
      fill="currentColor" />
    <path
      d="M535.421 882.328C539.14 884.719 542.758 887.256 546.56 889.477C553.584 893.6 556.398 900.613 552.655 906.762C549.585 911.797 542.742 916.484 536.943 917.452C528.943 918.787 524.382 911.157 522.043 904.489C518.369 894.003 520.472 891.231 531.22 886.949C532.984 886.242 534.05 883.852 535.479 882.195C535.521 882.181 535.421 882.328 535.421 882.328Z"
      fill="currentColor" />
    <path
      d="M546.214 214.232C545.392 221.378 535.514 232.632 530.4 232.245C524.431 231.783 513.944 217.404 514.687 210.689C515.44 203.755 525.837 195.666 532.681 196.648C540.19 197.76 547.087 206.71 546.214 214.232Z"
      fill="currentColor" />
    <path
      d="M583.781 858.966C579.2 862.53 584.275 874.552 574.3 874.133C561.504 873.616 551.31 862.734 552.44 854.041C553.515 845.763 562.208 839.134 570.496 840.29C578.272 841.358 584.85 849.983 583.781 858.966Z"
      fill="currentColor" />
    <path
      d="M646.56 1213.61C644.964 1222.93 638.018 1227.48 628.196 1225.63C620.097 1224.12 613.924 1215.77 615.084 1207.91C616.186 1200.32 625.653 1192.87 632.715 1194.02C642.217 1195.56 648.191 1204.04 646.56 1213.61Z"
      fill="currentColor" />
    <path
      d="M554.699 255.599C553.778 263.034 544.312 270.483 537.135 269.436C531.22 268.579 522.669 257.437 523.283 251.388C524.152 242.841 536.106 236.329 549.232 237.232C554.411 237.588 556.198 243.578 554.699 255.599Z"
      fill="currentColor" />
    <path
      d="M620.885 1298.27C619.866 1306.73 611.183 1313.59 602.958 1312.42C596.684 1311.53 588.736 1301.44 589.311 1295.08C590.017 1287.29 599.213 1277.98 605.463 1278.74C614.601 1279.85 621.97 1289.17 620.885 1298.27Z"
      fill="currentColor" />
    <path
      d="M461.423 898.03C466.302 903.15 475.662 908.733 475.169 913.29C473.952 924.866 464.422 933.232 455.18 931.404C446.798 929.753 440.83 921.973 442.081 913.578C443.199 906.17 452.671 898.681 461.423 898.03Z"
      fill="currentColor" />
    <path
      d="M355.487 829.304C348.014 828.518 338.876 816.211 339.918 808.33C340.603 803.095 351.14 797.096 358.578 797.696C365.32 798.242 373.573 808.159 373.003 815.078C372.453 821.698 362.249 829.993 355.487 829.304Z"
      fill="currentColor" />
    <path
      d="M807.832 1132.81C811.94 1128.57 808.939 1116.67 821.016 1119.1C831.41 1121.19 840.521 1131.9 838.818 1139.47C837.424 1145.64 825.593 1154.07 820.117 1152.79C813.708 1151.27 806.422 1139.99 807.832 1132.81Z"
      fill="currentColor" />
    <path
      d="M376.016 874.323C381.723 875.091 388.193 884.969 387.455 891.785C386.569 900.008 377.41 906.816 369.092 905.434C361.542 904.176 354.207 894.906 355.267 887.932C356.408 880.507 367.608 873.17 376.016 874.323Z"
      fill="currentColor" />
    <path
      d="M519.394 952.133C512.101 962.549 504.212 969.93 490.517 965.633C489.098 959.451 487.618 952.979 485.769 944.911C492.379 940.916 499.622 936.544 507.961 931.495C511.957 938.688 515.757 945.552 519.394 952.133Z"
      fill="currentColor" />
    <path
      d="M844.136 1174.65C843.24 1182.65 830.944 1192.89 824.497 1188.97C818.941 1185.59 815.188 1177.48 813.127 1170.69C811.64 1165.77 825.162 1155.97 830.793 1156.55C837 1157.18 844.885 1167.89 844.136 1174.65Z"
      fill="currentColor" />
    <path
      d="M488.819 887.408C482.35 886.778 469.983 874.117 472.815 869.211C476.486 862.85 483.422 857.472 490.169 854.099C494.673 851.851 504.261 865.144 503.726 871.806C503.27 877.575 493.421 887.867 488.819 887.408Z"
      fill="currentColor" />
    <path
      d="M595.873 246.592C584.647 260.238 580.409 262.602 571.076 257.565C567.236 255.48 561.933 248.434 562.923 246.456C566.009 240.258 566.971 231.623 577.054 230.347C590.244 228.686 592.216 238.219 595.873 246.592Z"
      fill="currentColor" />
    <path
      d="M464.883 941.256C472.072 942.506 478.867 952.206 477.324 959.035C475.822 965.707 464.251 972.512 457 970.972C451.567 969.819 445.808 957.805 447.146 950.407C448.426 943.442 455.749 939.664 464.883 941.256Z"
      fill="currentColor" />
    <path
      d="M812.027 979.732C808.822 988.005 797.75 995.58 791.462 994.351C785.195 993.125 777.49 982.418 778.714 976.612C779.734 971.724 792.871 960.909 796.068 963.289C802.117 967.783 806.789 974.142 812.027 979.732Z"
      fill="currentColor" />
    <path
      d="M770.382 726.51C774.53 725.118 778.018 723.698 781.623 722.757C788.123 721.059 794.327 721.271 799.059 727.035C803.512 732.479 803.375 738.271 799.718 743.93C795.933 749.793 790.336 750.607 783.779 749.583C776.712 748.47 769.547 748.832 773.627 737.641C774.771 734.519 771.431 729.767 770.382 726.51Z"
      fill="currentColor" />
    <path
      d="M420.103 904.384C425.048 913.493 430.384 919.7 431.657 926.666C433.038 934.17 423.502 941.389 415.649 941.035C410.373 940.807 398.529 927.25 401.2 923.087C405.246 916.777 411.935 912.189 420.103 904.384Z"
      fill="currentColor" />
    <path
      d="M615.83 1317.73C622.164 1325.48 628.855 1330.58 631.001 1337.18C632.948 1343.17 620.635 1351.91 613.247 1351.54C606.42 1351.18 596.328 1340.73 599.141 1334.92C602.171 1328.7 609.107 1324.36 615.83 1317.73Z"
      fill="currentColor" />
    <path
      d="M362.663 927.828C363.538 922.377 378.724 909.184 380.977 911.86C385.781 917.532 389.621 925.146 390.809 932.442C391.915 939.306 381.643 945.722 374.585 944.39C366.743 942.911 361.407 935.518 362.663 927.828Z"
      fill="currentColor" />
    <path
      d="M201.984 856.277C189.359 854.637 185.722 849.704 187.035 840.252C188.175 832.082 195.815 824.166 201.965 824.773C208.79 825.451 217.973 839.955 214.829 849.121C213.43 853.235 204.768 854.862 201.984 856.277Z"
      fill="currentColor" />
    <path
      d="M328.451 912.087C319.286 910.732 316.273 906.687 317.947 897.243C319.349 889.371 322.634 884.385 333.677 885.973C342.256 887.209 350.529 893.992 349.612 899.156C348.344 906.484 337.086 913.35 328.451 912.087Z"
      fill="currentColor" />
    <path
      d="M549.994 273.199C553.56 278.967 559.019 284.406 560.154 290.61C561.418 297.494 550.231 305.476 543.449 304.483C536.216 303.408 529.857 294.953 530.855 287.689C531.84 280.524 540.4 273.837 549.994 273.199Z"
      fill="currentColor" />
    <path
      d="M586.873 1343.78C585.934 1350.31 572.55 1362.66 569.982 1359.64C565.468 1354.35 562.346 1346.63 561.701 1339.63C561.012 1332.06 570.129 1326.01 577.253 1327.15C583.527 1328.17 587.994 1335.91 586.873 1343.78Z"
      fill="currentColor" />
    <path
      d="M784.754 815.173C786.665 810.244 788.343 805.544 790.326 800.967C790.877 799.714 792.625 797.778 793.362 797.978C800.176 799.78 808.97 800.161 812.942 804.696C815.803 807.936 814.406 819.95 810.89 822.472C806.705 825.487 798.104 823.223 791.711 821.879C788.931 821.324 786.857 817.326 784.754 815.173Z"
      fill="currentColor" />
    <path
      d="M278.223 952.787C269.065 966.751 264.018 970.193 254.47 966.153C250.8 964.593 246.849 958.553 246.934 954.644C247.031 949.893 250.121 943.514 253.969 940.916C259.585 937.129 271.71 943.828 278.223 952.787Z"
      fill="currentColor" />
    <path
      d="M339.65 925.996C350.62 927.534 354.413 931.764 353.124 941.039C352.09 948.418 345.317 955.265 339.739 954.595C332.482 953.698 324.364 941.729 325.217 933.159C325.796 927.065 330.553 924.731 339.65 925.996Z"
      fill="currentColor" />
    <path
      d="M232.997 961.449C231.727 970.424 225.99 976.607 219.851 975.62C212.058 974.369 206.084 965.885 207.164 957.567C208.552 946.818 211.745 944.454 222.789 946.042C233.122 947.534 234.627 949.787 232.997 961.449Z"
      fill="currentColor" />
    <path
      d="M597.808 823.788C587.315 822.294 585.109 819.565 586.478 809.698C588.036 798.429 594.003 794.87 608.882 797.538C611.258 797.958 614.89 802.186 614.696 804.372C613.251 819.877 608.183 825.266 597.808 823.788Z"
      fill="currentColor" />
    <path
      d="M784.979 766.49C787.49 764.416 792.369 760.43 797.231 756.421C799.508 763.844 813.745 756.051 812.119 767.532C809.95 782.739 804.782 787.672 795.004 786.094C786.721 784.757 783.065 779.36 784.979 766.49Z"
      fill="currentColor" />
    <path
      d="M797.829 1069.66C792.614 1057.04 796.49 1046.02 806.948 1042.85C815.038 1040.4 819.925 1043.67 821.991 1052.95C824.262 1063.11 819.485 1066.49 797.829 1069.66Z"
      fill="currentColor" />
    <path
      d="M363.11 840.444C374.042 842.118 376.885 845.938 375.564 856.194C374.57 864.02 370.219 868.561 362.654 868.165C353.49 867.695 348.779 859.984 350.338 849.901C351.93 839.722 353.025 838.905 363.11 840.444Z"
      fill="currentColor" />
    <path
      d="M254.628 926.144C244.999 925.249 240.706 921.153 241.665 912.537C242.304 906.894 252.278 895.974 256.541 896.267C260.863 896.568 268.034 909.294 267.231 915.257C266.132 923.713 261.767 927.025 254.628 926.144Z"
      fill="currentColor" />
    <path
      d="M581.958 1304.3C580.762 1311.84 574.471 1316.9 567.173 1314.37C561.584 1312.43 553.266 1308.52 552.576 1304.38C551.206 1296.2 562.903 1288.61 571.53 1289.93C580.487 1291.34 583.388 1295.33 581.958 1304.3Z"
      fill="currentColor" />
    <path
      d="M302.697 932.721C311.953 934.148 314.594 938.123 313.035 947.904C311.635 956.661 305.681 960.563 298.29 957.678C293.152 955.679 286.74 949.85 286.081 945.037C284.892 936.253 293.167 931.236 302.697 932.721Z"
      fill="currentColor" />
    <path
      d="M439.239 963.916C437.92 973.408 434.081 976.389 424.734 975.19C414.935 973.911 412.507 970.146 413.627 959.743C414.579 950.885 419.04 947.908 427.586 949.239C438.221 950.873 440.658 953.674 439.239 963.916Z"
      fill="currentColor" />
    <path
      d="M391.476 956.557C395.163 960.23 401.632 963.694 401.943 967.656C402.594 975.805 391.403 984.711 384.372 983.784C378.09 982.959 371.894 975.229 372.6 969.092C373.488 961.753 380.626 957.267 391.476 956.557Z"
      fill="currentColor" />
    <path
      d="M418.604 998.631C419.297 993.337 433.07 982.427 436.196 985.481C440.528 989.743 443.105 997.327 443.514 1003.69C444.021 1011.42 437.99 1014.85 430.3 1014.04C421.795 1013.15 417.454 1007.32 418.604 998.631Z"
      fill="currentColor" />
    <path
      d="M418.784 731.384C413.691 729.793 409.089 725.897 410.315 717.397C411.489 709.273 417.047 704.875 425.297 706.308C431.995 707.472 438.17 710.434 438.007 718.212C437.808 726.408 428.88 732.844 418.784 731.384Z"
      fill="currentColor" />
    <path
      d="M629.042 151.81C629.77 144.912 636.541 139.411 643.349 140.207C649.901 140.969 659.874 151.7 657.537 157.557C655.858 161.814 649.802 166.627 645.351 166.993C635.977 167.781 628.251 159.322 629.042 151.81Z"
      fill="currentColor" />
    <path
      d="M459.2 994.93C460.551 984.899 463.692 982.468 473.559 983.837C482.36 985.063 486.097 990.009 484.567 998.829C483.166 1006.84 478.857 1010.93 470.108 1009.47C460.532 1007.87 457.906 1004.69 459.2 994.93Z"
      fill="currentColor" />
    <path
      d="M761.563 1187.55C760.704 1195.72 755.564 1200.15 747.804 1199.41C739.071 1198.58 735.218 1193.9 736.664 1184.8C737.555 1179.23 735.822 1170.76 745.319 1171.29C754.057 1171.79 762.264 1180.85 761.563 1187.55Z"
      fill="currentColor" />
    <path
      d="M366.59 772.48C352.711 787.759 347.091 789.937 340.47 782.974C334.218 776.403 334.388 768.726 340.924 763.335C348.414 757.126 358.659 760.617 366.59 772.48Z"
      fill="currentColor" />
    <path
      d="M396.6 640.87C397.258 631.952 401.828 628.768 410.425 629.866C418.782 630.951 422.85 635.077 421.952 643.54C421.068 651.744 414.854 656.837 407.118 655.313C399.284 653.776 394.971 649.234 396.6 640.87Z"
      fill="currentColor" />
    <path
      d="M406.689 830.513C410.895 834.96 417.212 838.806 418.719 844.035C420.446 850.017 407.749 858.619 400.963 857.504C395.143 856.539 388.967 848.209 389.906 842.586C390.889 836.628 398.996 831.065 406.689 830.513Z"
      fill="currentColor" />
    <path
      d="M669.035 1320.95C662.725 1339.74 658.912 1343.57 650.202 1339.89C642.919 1336.79 639.543 1328.72 642.753 1322.06C646.885 1313.47 655.031 1313.14 669.035 1320.95Z"
      fill="currentColor" />
    <path
      d="M521.68 185.054C516.936 184.013 509.974 184.804 511.257 175.428C512.548 165.992 520.02 158.274 527.633 159.963C534.797 161.551 537.848 167.108 537.507 174.118C537.132 181.827 530.878 186.172 521.68 185.054Z"
      fill="currentColor" />
    <path
      d="M439.095 1055.42C432.947 1054.66 424.658 1044.85 427.647 1040.27C430.667 1035.61 436.827 1031.21 442.185 1030.39C447.276 1029.61 455.538 1031.1 456.408 1038.68C457.172 1045.39 444.888 1056.14 439.095 1055.42Z"
      fill="currentColor" />
    <path
      d="M726.58 853.232C739.562 855.201 744.191 861.132 742.671 869.732C741.299 877.528 736.514 880.522 728.758 879.598C719.617 878.508 717.641 868.854 718.69 859.567C719.035 856.558 725.241 854.217 726.58 853.232Z"
      fill="currentColor" />
    <path
      d="M643.631 201.461C642.487 200.101 637.167 196.61 636.937 192.8C636.431 184.168 646.2 175.814 653.41 176.765C659 177.498 664.546 185.723 663.581 191.845C662.444 198.949 655.847 203.147 643.631 201.461Z"
      fill="currentColor" />
    <path
      d="M363.476 977.556C356.363 983.352 352.209 989.266 347.086 990.285C340.166 991.665 332.62 981.421 333.565 974.553C334.433 968.257 342.66 960.761 347.574 963.232C352.827 965.869 356.688 971.234 363.476 977.556Z"
      fill="currentColor" />
    <path
      d="M207.323 1007.26C202.704 1010.36 199.118 1012.51 195.805 1015.02C189.806 1019.56 184.589 1019.04 179.968 1013.05C175.312 1007.01 175.911 999.134 181.721 994.81C187.577 990.433 193.168 989.819 198.072 996.691C200.657 1000.34 203.956 1003.45 207.323 1007.26Z"
      fill="currentColor" />
    <path
      d="M750.792 892.132C751.12 898.207 751.768 903.098 751.576 907.958C751.271 915.294 747.512 920.517 739.937 921.085C731.608 921.733 728.766 915.218 727.953 908.716C726.993 901.068 731.918 896.887 739.013 895.108C742.674 894.194 746.318 893.258 750.792 892.132Z"
      fill="currentColor" />
    <path
      d="M155.418 883.35C160.506 880.497 165.342 876.083 170.745 875.222C176.641 874.288 182.345 883.58 181.324 890.116C180.397 896.103 171.814 903.108 166.527 902.215C161.414 901.366 155.909 891.94 155.418 883.35Z"
      fill="currentColor" />
    <path
      d="M668.782 233.778C665.763 236.789 662.138 242.955 656.978 244.853C651.924 246.705 643.82 234.477 644.748 227.887C645.78 220.528 650.245 216.928 657.536 217.568C665.465 218.254 668.597 223.36 668.782 233.778Z"
      fill="currentColor" />
    <path
      d="M327.615 842.638C339.26 854.539 341.596 861.669 335.776 866.675C328.089 873.299 322.52 873.152 316.618 866.225C309.834 858.236 310.67 856.358 327.615 842.638Z"
      fill="currentColor" />
    <path
      d="M745.054 956.073C736.31 955.92 732.896 950.073 733.353 942.797C733.845 935.264 739.608 931.879 746.995 932.411C753.902 932.92 759.171 939.921 758.364 946.809C757.305 955.712 754.865 957.414 745.054 956.073Z"
      fill="currentColor" />
    <path
      d="M769.154 781.043C767.974 790.554 761.895 795.987 755.057 794.664C747.082 793.128 744.185 787.471 745.054 779.828C745.946 772.007 750.665 768.462 758.406 769.203C766.719 770.021 768.841 775.754 769.154 781.043Z"
      fill="currentColor" />
    <path
      d="M379.562 1005.45C379.046 999.129 383.591 996.584 389.357 997.059C398.167 997.764 404.64 1005.53 402.922 1012.76C401.27 1019.65 396.839 1023.6 389.299 1022.56C381.895 1021.57 378.147 1015.21 379.562 1005.45Z"
      fill="currentColor" />
    <path
      d="M823.676 854.286C820.822 860.998 818.188 867.418 809.644 866.227C801.455 865.084 798.818 859.14 799.561 851.681C800.319 843.963 804.92 840.1 812.765 840.815C821.086 841.574 822.749 847.587 823.676 854.286Z"
      fill="currentColor" />
    <path
      d="M653.246 115.285C646.496 118.979 640.505 123.761 633.86 125.037C631.547 125.49 625.431 117.469 624.997 112.928C624.643 109.141 629.172 102.675 633.042 101.105C644.082 96.6015 646.46 107.757 653.246 115.285Z"
      fill="currentColor" />
    <path
      d="M809.221 1107.26C799.515 1107.99 801.032 1099.41 801.859 1094.31C802.977 1087.5 808.295 1082.79 816.231 1084.32C823.305 1085.68 826.855 1090.52 826.261 1097.62C825.636 1105.09 819.264 1108.68 809.221 1107.26Z"
      fill="currentColor" />
    <path
      d="M290.278 920.736C286.556 914.787 280.672 909.07 279.971 902.783C279.595 899.456 288.221 895.11 292.783 891.241C296.701 896.031 303.303 900.599 303.741 905.703C304.147 910.301 297.855 915.525 294.516 920.463C293.117 920.556 291.697 920.646 290.278 920.736Z"
      fill="currentColor" />
    <path
      d="M242.818 1003.72C237.548 1006.43 232.526 1010.44 226.941 1011.46C221.829 1012.4 213.786 1000.92 216.661 996.884C219.757 992.556 226.208 987.495 230.495 988.052C235.254 988.693 239.226 995.319 243.53 999.337C243.291 1000.81 243.055 1002.27 242.818 1003.72Z"
      fill="currentColor" />
    <path
      d="M551.134 1353.18C542.865 1357.41 536.927 1362.99 532.201 1362.11C528.121 1361.36 522.625 1353.06 522.928 1348.42C523.22 1344.01 530.207 1340.05 534.242 1335.91C539.171 1340.95 544.103 1345.98 551.134 1353.18Z"
      fill="currentColor" />
    <path
      d="M541.809 1402.42C538.201 1396.97 531.973 1391.57 531.912 1386.05C531.869 1382.49 540.788 1378.81 545.699 1375.19C549.209 1380.46 554.718 1385.39 555.719 1391.09C556.798 1397.41 551.154 1401.25 541.809 1402.42Z"
      fill="currentColor" />
    <path
      d="M310.821 969.883C319.581 986.04 319.29 990.885 309.3 995.651C300.855 999.7 297.615 993.756 294.705 987.594C291.2 980.187 294.06 977.014 310.821 969.883Z"
      fill="currentColor" />
    <path
      d="M398.789 1068.53C393.818 1060.06 387.952 1054.51 388.534 1049.74C389.041 1045.53 397.167 1038.78 401.096 1039.31C405.657 1039.92 412.759 1047.49 412.465 1051.62C412.096 1056.59 405.173 1061.13 398.789 1068.53Z"
      fill="currentColor" />
    <path
      d="M788.75 710.168C774.313 705.268 768.481 699.316 770.947 692.351C773.316 685.654 781.3 682.347 787.932 685.351C795.646 688.823 795.921 694.69 788.75 710.168Z"
      fill="currentColor" />
    <path
      d="M782.683 1128.2C790.779 1130.77 796.956 1137.9 796.142 1143.5C795.346 1148.96 786.408 1155.92 781.492 1153.16C776.875 1150.57 771.529 1144.45 771.557 1139.91C771.582 1135.99 778.699 1132.1 782.683 1128.2Z"
      fill="currentColor" />
    <path
      d="M282.008 995.005C277.285 997.384 272.755 1001.02 267.788 1001.77C262.247 1002.62 254.751 992.299 255.771 986.667C257.366 977.956 265.635 978.205 270.446 979.356C275.16 980.473 278.667 986.675 282.714 990.657C282.5 992.096 282.244 993.549 282.008 995.005Z"
      fill="currentColor" />
    <path
      d="M813.895 904.834C811.101 903.493 804.281 901.589 804.35 900.03C804.94 887.586 810.782 880.633 818.248 881.92C825.338 883.156 827.622 889.334 829.225 894.897C830.433 899.06 820.435 905.534 813.895 904.834Z"
      fill="currentColor" />
    <path
      d="M434.189 612.559C430.77 607.495 427.331 602.428 423.912 597.364C424.62 595.69 425.311 593.994 426.019 592.321C432.313 589.771 438.461 586.659 444.98 585.124C446.434 584.777 450.265 589.616 451.168 592.612C454.448 603.487 444.021 604.636 434.189 612.559Z"
      fill="currentColor" />
    <path
      d="M825.191 1211.82C829.394 1206.14 833.496 1198.67 841.148 1203.2C845.488 1205.75 847.804 1212.43 849.785 1217.73C850.171 1218.74 845.034 1222.86 841.889 1223.96C831.642 1227.51 828.383 1219.91 825.191 1211.82Z"
      fill="currentColor" />
    <path
      d="M384.987 802.964C386.885 800.365 388.402 797.313 390.769 795.259C393.108 793.263 396.318 792.268 400.393 790.223C403.895 795.419 407.482 800.727 410.915 805.833C396.699 820.785 393.548 820.3 384.987 802.964Z"
      fill="currentColor" />
    <path
      d="M543.849 1201.43C539.482 1193.4 534.936 1188.65 534.645 1183.64C534.236 1176.53 541.459 1172.16 547.135 1173.3C551.342 1174.15 557.631 1181.49 557.076 1185.02C556.279 1190.03 550.069 1194.2 543.849 1201.43Z"
      fill="currentColor" />
    <path
      d="M367.56 1018.03C355.386 1032.59 349.266 1031.77 342.358 1014.69C354.321 999.9 358.744 1000.5 367.56 1018.03Z"
      fill="currentColor" />
    <path
      d="M392.753 1085.27C407.354 1069.1 412.159 1075.22 418.271 1088.35C407.716 1103.43 401.47 1102.79 392.753 1085.27Z"
      fill="currentColor" />
    <path
      d="M626.17 779.157C623.924 772.401 620.187 766.41 620.74 760.815C621.036 757.719 628.345 753.457 632.679 753.216C635.434 753.064 639.932 758.917 641.19 762.866C644.361 772.902 635.518 774.526 626.17 779.157Z"
      fill="currentColor" />
    <path
      d="M217.156 1086C211.163 1091.99 207.214 1095.94 203.244 1099.89C199.688 1094.51 194.175 1089.46 193.151 1083.64C192.183 1078.14 198.161 1073.15 204.267 1074.98C208.498 1076.25 211.665 1081.1 217.156 1086Z"
      fill="currentColor" />
    <path
      d="M643.638 671.564C649.605 669.051 655.279 664.689 660.389 665.257C663.677 665.619 667.763 673.045 668.364 677.689C668.668 680.062 662.476 684.836 658.534 685.894C648.842 688.448 647.748 679.857 643.638 671.564Z"
      fill="currentColor" />
    <path
      d="M314.709 833.948C310.734 826.296 305.856 821.016 306.231 816.141C306.477 812.978 315.197 807.337 318.586 808.296C322.847 809.493 328.594 816.68 328.092 820.553C327.53 824.879 320.666 828.378 314.709 833.948Z"
      fill="currentColor" />
    <path
      d="M240.816 799.123C240.401 804.294 237 807.153 230.414 806.346C223.868 805.545 216.554 797.906 217.712 792.594C219.221 785.721 224.187 785.565 229.963 786.263C237.045 787.116 242.185 789.256 240.816 799.123Z"
      fill="currentColor" />
    <path
      d="M196.162 1032.92C204.764 1035.63 208.556 1038.81 207.485 1046.47C206.609 1052.82 203.182 1055.58 196.86 1054.91C190.873 1054.28 182.206 1045.49 184.601 1041.29C186.755 1037.54 192.175 1035.66 196.162 1032.92Z"
      fill="currentColor" />
    <path
      d="M675.879 1320.29C683.371 1314.66 690.066 1306.3 699.232 1314.81C704.004 1319.23 702.839 1326.69 697.494 1330.25C685.765 1338.08 682.53 1325.83 675.879 1320.29Z"
      fill="currentColor" />
    <path
      d="M208.091 1137.81C205.623 1133.3 201.056 1128.7 201.212 1124.26C201.405 1118.5 206.496 1113.83 213.347 1114.76C219.725 1115.62 223.712 1120.94 222.496 1126.38C221.492 1130.85 216.237 1134.34 212.873 1138.27C211.266 1138.12 209.679 1137.96 208.091 1137.81Z"
      fill="currentColor" />
    <path
      d="M184.818 955.077C194.923 965.725 196.339 971.183 189.784 976.271C184.194 980.604 178.392 979.501 174.227 974.156C169.43 967.981 173.211 961.555 184.818 955.077Z"
      fill="currentColor" />
    <path
      d="M149.905 1028.52C143.637 1024.46 137.362 1019.85 139.38 1011.14C140.017 1008.35 144.594 1004.66 147.372 1004.64C150.852 1004.62 157.175 1007.83 157.296 1009.91C157.682 1016.6 159.171 1024.8 149.905 1028.52Z"
      fill="currentColor" />
    <path
      d="M446.755 644.328C439.172 641.678 430.139 631.576 432.669 628.76C435.577 625.534 440.927 623.118 445.308 622.984C451.508 622.774 456.376 627.229 454.823 633.835C453.916 637.733 449.576 640.848 446.755 644.328Z"
      fill="currentColor" />
    <path
      d="M518.145 664.115C521.401 659.045 523.941 653.175 528.263 649.294C529.863 647.861 537.931 650.054 539.018 652.431C540.759 656.224 540.503 664.834 538.625 665.647C533.29 667.943 526.698 667.337 520.596 667.862C519.78 666.606 518.961 665.37 518.145 664.115Z"
      fill="currentColor" />
    <path
      d="M329.153 1022.71C323.378 1026.77 322.448 1038.61 311.461 1033.91C308.495 1032.65 305.758 1028.34 305.007 1024.96C303.855 1019.78 306.783 1015.65 312.594 1016.09C318.187 1016.5 323.678 1018.13 329.22 1019.22C329.187 1020.36 329.169 1021.54 329.153 1022.71Z"
      fill="currentColor" />
    <path
      d="M384.741 1091.35C377.426 1099.39 374.641 1111.86 362.688 1104.18C360.08 1102.5 358.88 1092.75 360.976 1090.62C367.961 1083.54 375.626 1089.62 384.741 1091.35Z"
      fill="currentColor" />
    <path
      d="M295.099 872.417C292.758 873.529 289.104 876.333 285.158 876.827C279.922 877.489 270.335 867.473 272.775 864.585C275.716 861.102 281.67 858.988 286.513 858.555C292.738 858.007 296.115 863.085 295.099 872.417Z"
      fill="currentColor" />
    <path
      d="M383.708 1141.4C380.768 1142.64 376.981 1145.38 373.027 1145.63C367.29 1145.99 361.459 1137.34 363.631 1131.06C364.587 1128.29 369.773 1125.01 372.734 1125.27C379.901 1125.93 384.233 1130.64 383.708 1141.4Z"
      fill="currentColor" />
    <path
      d="M285.06 1035.16C281.955 1038.06 278.568 1043.66 275.816 1043.35C269.42 1042.62 264.782 1038.1 265.85 1030.32C266.649 1024.54 268.403 1020.17 275.676 1021.39C282.849 1022.62 284.81 1026.87 285.06 1035.16Z"
      fill="currentColor" />
    <path
      d="M647.314 366.174C632.018 365.26 628.584 362.847 629.81 354.489C630.898 347.157 636.054 345.439 642.029 346.304C649.225 347.354 650.562 352.801 647.314 366.174Z"
      fill="currentColor" />
    <path
      d="M329.849 1062.65C328.549 1068.56 325.447 1072.04 318.623 1071.37C310.707 1070.58 309.912 1063.8 309.186 1058.6C308.934 1056.73 315.426 1051.82 318.552 1052.04C323.869 1052.41 330.55 1054.16 329.849 1062.65Z"
      fill="currentColor" />
    <path
      d="M554.141 1146.51C547.726 1150.85 544.253 1155.14 540.933 1155.02C534.769 1154.81 529.963 1151.39 531.329 1143.33C532.459 1136.59 536.069 1133.52 542.118 1135.92C545.84 1137.39 548.572 1141.43 554.141 1146.51Z"
      fill="currentColor" />
    <path
      d="M146.158 845.398C155.026 837.767 165.406 836.371 168.662 842.941C170.086 845.807 168.067 852.289 165.425 854.889C159.71 860.451 154.633 857.697 146.158 845.398Z"
      fill="currentColor" />
    <path
      d="M692.018 1089.25C681.855 1088.58 678.209 1085.36 678.671 1078.04C679.101 1071.12 683.712 1069.27 689.241 1069.72C698.012 1070.42 697.813 1077.87 697.421 1083.76C697.266 1086.26 692.849 1088.46 692.018 1089.25Z"
      fill="currentColor" />
    <path
      d="M674.841 271.641C675.042 279.407 669.005 280.645 664.189 279.092C660.646 277.931 655.563 271.939 656.231 269.516C657.285 265.718 662.497 260.751 666.181 260.564C671.693 260.241 676.846 264.071 674.841 271.641Z"
      fill="currentColor" />
    <path
      d="M587.244 1371.91C589.103 1376.02 592.866 1380.47 592.228 1384.16C591.714 1387.23 586.212 1391.21 582.584 1391.59C576.117 1392.29 571.851 1387.69 574.007 1381.09C575.244 1377.27 579.485 1374.45 582.378 1371.18C584.011 1371.44 585.627 1371.68 587.244 1371.91Z"
      fill="currentColor" />
    <path
      d="M741.314 749.496C742.785 733.652 744.473 731.567 753.148 732.233C760.072 732.763 760.977 737.388 760.783 742.408C760.494 750.229 756.911 751.456 741.314 749.496Z"
      fill="currentColor" />
    <path
      d="M617.726 320.374C622.118 313.286 623.635 302.916 634.796 307.515C637.216 308.505 639.093 316.356 637.793 319.74C635.072 326.811 625.873 326.899 617.726 320.374Z"
      fill="currentColor" />
    <path
      d="M728.176 1298.99C735.843 1305.35 745.829 1309.57 739.267 1318.43C734.256 1325.19 727.004 1321.87 720.962 1317.17C723.429 1310.95 725.804 1304.96 728.176 1298.99Z"
      fill="currentColor" />
    <path
      d="M562.237 1276.56C553.751 1274.19 550.581 1271.01 551.361 1263.87C551.985 1258.05 554.737 1255.82 560.428 1256.55C567.841 1257.49 571.994 1261.73 570.302 1268.92C569.596 1271.92 565.049 1274.04 562.237 1276.56Z"
      fill="currentColor" />
    <path
      d="M523.76 1230.53C522.765 1237.91 519.159 1241.85 513.135 1239.71C509.433 1238.39 506.884 1233.88 503.799 1230.81C507.594 1227.57 511.059 1222.28 515.269 1221.62C520.489 1220.78 525.242 1224.6 523.76 1230.53Z"
      fill="currentColor" />
    <path
      d="M527.578 1320.48C520.877 1319.78 518.547 1316.19 519.036 1309.72C519.609 1302.18 524.953 1301.01 529.99 1302.57C533.424 1303.64 538.09 1308.11 538.128 1311.11C538.221 1316.69 534.539 1321.34 527.578 1320.48Z"
      fill="currentColor" />
    <path
      d="M532.769 937.834C536.521 936.248 540.207 933.508 544.007 933.356C550.291 933.117 554.437 937.555 551.887 943.504C550.242 947.363 544.864 952.067 541.321 951.952C538.1 951.839 535.109 945.687 532.021 942.196C532.28 940.723 532.533 939.289 532.769 937.834Z"
      fill="currentColor" />
    <path
      d="M376.936 1305.57C371.194 1308.06 367.746 1310.97 365.64 1310.18C360.124 1308.15 352.678 1305.83 354.585 1297.94C355.323 1294.84 362.789 1290.16 363.758 1290.87C368.183 1294.14 371.42 1299.06 376.936 1305.57Z"
      fill="currentColor" />
    <path
      d="M193.475 1222.77C181.846 1221.2 175.442 1216.06 177.922 1209.74C179.181 1206.51 184.936 1202.14 187.477 1202.82C198.543 1205.74 194.758 1214.44 193.475 1222.77Z"
      fill="currentColor" />
    <path
      d="M153.907 1205.77C154.409 1213.23 158.194 1221.4 148.98 1224.58C145.797 1225.68 137.309 1221.38 136.854 1218.65C135.012 1207.24 144.267 1206.74 153.907 1205.77Z"
      fill="currentColor" />
    <path
      d="M561.311 534.309C560.029 540.69 556.177 543.167 549.504 542.268C542.554 541.332 542.322 536.034 542.617 531.309C543.028 524.972 547.68 523.266 553.312 524.588C558.185 525.726 563.36 527.006 561.311 534.309Z"
      fill="currentColor" />
    <path
      d="M511.83 975.362C514.707 979.227 518.99 982.8 519.94 987.089C520.543 989.783 516.652 995.532 513.788 996.352C510.946 997.155 504.137 993.826 503.844 991.675C503.193 986.803 505.492 981.524 506.584 976.404C508.339 976.058 510.075 975.709 511.83 975.362Z"
      fill="currentColor" />
    <path
      d="M173.231 1180.97C171.377 1175.63 169.151 1170.36 168.101 1164.88C167.939 1163.99 174.032 1160.25 175.675 1161.03C179.714 1162.98 185.393 1166.64 185.631 1169.95C185.883 1173.6 180.815 1177.64 178.043 1181.51C176.438 1181.34 174.833 1181.16 173.231 1180.97Z"
      fill="currentColor" />
    <path
      d="M352.566 1186.78C349.143 1188.17 345.734 1190.65 342.285 1190.72C336.093 1190.88 332.587 1187.51 333.881 1180.59C335.118 1173.94 340.056 1171.61 345.259 1173.27C348.652 1174.35 350.84 1179.15 353.573 1182.29C353.23 1183.8 352.909 1185.28 352.566 1186.78Z"
      fill="currentColor" />
    <path
      d="M370.713 1056.29C368.299 1064.51 364.373 1066.05 358.512 1064.94C352.984 1063.89 349.695 1061.74 350.678 1055.04C351.787 1047.55 357.175 1045.46 362.488 1046.76C365.799 1047.55 368.007 1052.95 370.713 1056.29Z"
      fill="currentColor" />
    <path
      d="M512.445 1448.33C504.318 1444.78 501.403 1441.05 502.295 1434.58C503.3 1427.42 509.106 1427.29 513.32 1428.85C516.652 1430.08 521.145 1435.23 520.687 1437.88C520.03 1441.71 515.381 1444.88 512.445 1448.33Z"
      fill="currentColor" />
    <path
      d="M215.733 908.041C219.43 913.283 224.555 917.913 223.687 919.887C222.043 923.586 216.508 928.409 213.402 927.89C209.432 927.215 206.291 921.726 202.792 918.299C206.595 915.293 210.399 912.268 215.733 908.041Z"
      fill="currentColor" />
    <path
      d="M856.375 1048.7C854.161 1057.53 850.968 1060.64 844.303 1059.82C837.797 1059.03 836.545 1055.04 837.049 1049.36C837.574 1043.52 840.649 1040.53 846.166 1042.26C849.866 1043.44 852.993 1046.5 856.375 1048.7Z"
      fill="currentColor" />
    <path
      d="M372.593 700.058C369.107 694 364.43 689.47 365.207 686.237C366.005 682.847 372.023 680.702 375.763 678.01C378.142 681.547 382.55 685.236 382.32 688.582C382.088 691.949 377.178 694.966 372.593 700.058Z"
      fill="currentColor" />
    <path
      d="M560.848 200.138C564.614 198.594 568.342 195.84 572.128 195.787C576.74 195.724 580.816 198.002 579.699 204.506C578.671 210.499 576.246 215.218 569.834 213.269C566.029 212.113 563.224 207.715 559.963 204.763C560.25 203.233 560.539 201.684 560.848 200.138Z"
      fill="currentColor" />
    <path
      d="M512.237 1400.91C508.69 1402.32 505.113 1405 501.607 1404.91C495.359 1404.73 491.534 1399.99 494.154 1394.27C495.608 1391.09 501.339 1387.94 504.877 1388.24C507.9 1388.49 510.525 1393.62 513.341 1396.6C512.969 1398.01 512.614 1399.45 512.237 1400.91Z"
      fill="currentColor" />
    <path
      d="M243.569 1042.62C240.142 1044.33 236.801 1047.2 233.262 1047.5C227.405 1048 223.288 1043.79 225.138 1038.27C226.305 1034.83 231.358 1030.74 234.817 1030.58C237.85 1030.45 241.102 1035.41 244.254 1038.13C244.03 1039.64 243.791 1041.12 243.569 1042.62Z"
      fill="currentColor" />
    <path
      d="M583.588 899.788C580.09 901.428 575.896 905.105 573.263 904.207C569.844 903.023 567.655 898.225 564.958 894.967C568.366 892.35 571.759 887.762 575.204 887.703C578.207 887.645 581.327 892.689 584.39 895.474C584.137 896.907 583.861 898.357 583.588 899.788Z"
      fill="currentColor" />
    <path
      d="M224.913 1152C223.911 1158.4 231.128 1168.1 218.637 1169.79C215.544 1170.22 208.542 1164.59 208.717 1162.1C209.315 1153.04 217.237 1152.28 224.913 1152Z"
      fill="currentColor" />
    <path
      d="M678.064 541.773C685.559 553.739 681.95 559.344 670.555 563.498C668.964 559.042 665.166 553.806 666.407 550.415C667.749 546.716 673.769 544.713 678.064 541.773Z"
      fill="currentColor" />
    <path
      d="M131.991 881.124C132.269 890.409 143.337 896.443 132.876 903.658C127.712 907.225 122.882 904.725 120.938 899.457C117.522 890.192 126.109 887.931 131.991 881.124Z"
      fill="currentColor" />
    <path
      d="M443.614 558.286C437.144 561.094 433.044 564.522 430.056 563.717C426.874 562.867 424.773 558.02 422.215 554.922C425.585 552.139 429.036 547.116 432.297 547.233C435.414 547.371 438.338 552.831 443.614 558.286Z"
      fill="currentColor" />
    <path
      d="M144.998 1167.13C146.508 1170.99 149.806 1175.31 148.981 1178.6C148.241 1181.55 141.999 1185.96 139.955 1185.16C136.555 1183.84 132.601 1178.87 132.602 1175.43C132.611 1172.37 137.684 1169.34 140.505 1166.3C141.995 1166.58 143.485 1166.86 144.998 1167.13Z"
      fill="currentColor" />
    <path
      d="M509.898 1358.08C504.035 1361.62 499.637 1366.21 497.122 1365.33C493.664 1364.14 489.9 1358.95 489.62 1355.21C489.444 1352.94 495.705 1348.09 498.859 1348.26C502.033 1348.42 504.961 1353.4 509.898 1358.08Z"
      fill="currentColor" />
    <path
      d="M159.312 1040.38C162.368 1047.24 166.109 1051.71 165.485 1055.44C164.966 1058.55 159.318 1060.78 155.949 1063.41C153.484 1059.92 148.745 1056.14 149.143 1053.04C149.612 1049.27 154.446 1046.06 159.312 1040.38Z"
      fill="currentColor" />
    <path
      d="M449.05 803.249C441.688 805.072 433.812 809.52 430.498 807.264C425.712 803.986 427.905 796.662 433.555 792.619C438.92 788.758 439.888 789.331 449.05 803.249Z"
      fill="currentColor" />
    <path
      d="M255.4 1078.37C248.913 1081.32 244.647 1084.92 241.025 1084.35C238.229 1083.92 236.237 1078.26 233.872 1074.93C237.695 1072.51 241.355 1068.62 245.392 1068.2C247.735 1067.97 250.635 1073.3 255.4 1078.37Z"
      fill="currentColor" />
    <path
      d="M330.642 1092.56C333.994 1098.86 343.638 1103.24 334.409 1110.86C332.531 1112.42 326.361 1111.81 324.605 1109.92C318.13 1102.92 319.353 1099.8 330.642 1092.56Z"
      fill="currentColor" />
    <path
      d="M587.555 1144.41C576.352 1149.98 571.446 1149.24 569.447 1140.65C568.787 1137.78 572.337 1131.12 574.48 1130.89C583.784 1129.87 585.46 1137.58 587.555 1144.41Z"
      fill="currentColor" />
    <path
      d="M506.467 1183.11C510.206 1188.48 513.086 1192.62 515.965 1196.77C512.732 1198.83 508.347 1203.32 506.515 1202.45C502.756 1200.66 499.334 1196.36 497.947 1192.33C497.404 1190.69 502.61 1187.11 506.467 1183.11Z"
      fill="currentColor" />
    <path
      d="M592.866 1203.67C595.9 1209.5 599.469 1213.3 599.165 1216.76C598.911 1219.54 592.642 1224.58 591.344 1223.93C587.647 1222.12 583.143 1218.1 582.776 1214.55C582.493 1211.88 588.065 1208.57 592.866 1203.67Z"
      fill="currentColor" />
    <path
      d="M621.322 1158.27C626.853 1162.43 631.632 1166.05 636.434 1169.65C636.385 1170.91 636.333 1172.19 636.265 1173.45C631.942 1175.1 626.778 1179.11 623.461 1177.91C613.87 1174.49 619.115 1166.9 621.322 1158.27Z"
      fill="currentColor" />
    <path
      d="M90.0063 1184.27C96.0273 1178.97 100.659 1172.64 108.107 1181.52C113.407 1187.85 107.486 1189.86 104.32 1192.03C94.5989 1198.68 94.7927 1187.69 90.0063 1184.27Z"
      fill="currentColor" />
    <path
      d="M411.127 603.361C404.986 607.017 400.199 609.871 395.387 612.761C389.254 601.582 389.982 599.307 401.54 592.3C404.273 595.443 407.128 598.722 411.127 603.361Z"
      fill="currentColor" />
    <path
      d="M473.719 1431.53C477.344 1438.35 480.179 1443.72 483.223 1449.47C472.382 1454.15 467.239 1449.49 463.121 1440.51C465.869 1438.17 468.749 1435.74 473.719 1431.53Z"
      fill="currentColor" />
    <path
      d="M333.181 1154.02C329.834 1148.72 325.84 1145.09 325.828 1141.45C325.827 1138.91 331.719 1133.98 334.213 1134.42C337.492 1135 342.372 1139.96 342.229 1142.81C342.056 1146.19 337.252 1149.32 333.181 1154.02Z"
      fill="currentColor" />
    <path
      d="M623.318 199.102C617.656 202.481 613.979 206.348 610.389 206.287C607.782 206.237 605.3 200.937 602.763 197.982C606.319 195.164 609.557 191.118 613.583 190.032C615.462 189.521 618.876 194.765 623.318 199.102Z"
      fill="currentColor" />
    <path
      d="M480.112 1026.15C481.571 1030.69 484.036 1035.22 484.008 1039.76C483.989 1041.55 478.13 1045.04 475.458 1044.58C472.668 1044.1 468.12 1039.07 468.635 1037.33C469.919 1033.02 473.675 1029.46 476.428 1025.59C477.672 1025.76 478.893 1025.94 480.112 1026.15Z"
      fill="currentColor" />
    <path
      d="M829.102 920.31C830.802 925.002 833.037 929.605 833.814 934.434C833.977 935.461 828.068 939.188 826.278 938.445C822.792 937.01 817.521 932.863 817.884 930.62C818.506 926.743 822.847 923.468 825.631 919.963C826.801 920.081 827.952 920.195 829.102 920.31Z"
      fill="currentColor" />
    <path
      d="M281.28 1082.6C278.557 1077.14 274.682 1072.92 275.346 1069.64C275.902 1066.86 281.925 1063.33 285.244 1063.61C287.751 1063.81 292.166 1070.13 291.515 1072.58C290.585 1076.05 285.752 1078.5 281.28 1082.6Z"
      fill="currentColor" />
    <path
      d="M127.403 1060.27C117.772 1071.17 115.902 1070.88 107.925 1057.86C118.249 1048.08 118.249 1048.08 127.403 1060.27Z"
      fill="currentColor" />
    <path
      d="M71.3712 1220.27C74.2198 1225.54 78.3942 1229.92 77.4615 1232.37C76.2037 1235.74 71.0771 1237.68 67.598 1240.23C65.2949 1236.58 61.1487 1232.89 61.2667 1229.33C61.3492 1226.62 66.8372 1224.08 71.3712 1220.27Z"
      fill="currentColor" />
    <path
      d="M812.648 659.875C811.281 654.203 798.982 651.34 808.321 644.094C810.474 642.434 817.746 643.816 819.794 646.222C826.377 654.065 816.63 655.687 812.648 659.875Z"
      fill="currentColor" />
    <path
      d="M657.337 1113.12C660.713 1117.32 662.57 1119.5 664.291 1121.8C665.077 1122.83 665.571 1124.08 667.101 1126.9C663.156 1128.89 659.488 1131.79 655.544 1132.26C653.624 1132.49 648.957 1127.44 649.419 1125.95C650.704 1121.78 653.977 1118.22 657.337 1113.12Z"
      fill="currentColor" />
    <path
      d="M611.76 159.252C608.013 162.446 604.806 165.211 601.557 167.99C597.94 164.547 594.964 161.714 592.008 158.884C602.2 146.948 602.639 146.967 611.76 159.252Z"
      fill="currentColor" />
    <path
      d="M453.686 1285.48C449.017 1289.55 445.777 1292.41 441.311 1296.32C438.777 1291.25 435.693 1287.28 435.186 1282.99C434.972 1281.29 440.971 1276.75 443.19 1277.29C446.866 1278.21 449.764 1282.22 453.686 1285.48Z"
      fill="currentColor" />
    <path
      d="M315.201 1307.68C320.505 1303.97 323.683 1301.72 328.342 1298.47C330.466 1302.55 333.688 1306.24 333.857 1310.07C333.942 1312.27 328.204 1317.11 326.594 1316.53C322.589 1315.06 319.468 1311.22 315.201 1307.68Z"
      fill="currentColor" />
    <path
      d="M154.564 1267.47C150.443 1262.69 147.727 1259.57 143.865 1255.11C148.553 1252.68 152.416 1249.53 156.583 1249.04C158.483 1248.82 163.265 1254.5 162.728 1256.4C161.693 1260.2 157.905 1263.25 154.564 1267.47Z"
      fill="currentColor" />
    <path
      d="M522.026 1106.62C525.535 1103.55 528.632 1100.86 532.323 1097.63C535.153 1101.69 537.664 1105.29 540.104 1108.81C529.942 1118.44 529.942 1118.44 522.026 1106.62Z"
      fill="currentColor" />
    <path
      d="M419.522 754.784C424.98 753.368 431.445 746.258 434.968 756.523C435.802 758.987 431.64 763.171 429.777 766.559C425.736 763.723 421.695 760.887 417.672 758.073C418.283 756.969 418.914 755.868 419.522 754.784Z"
      fill="currentColor" />
    <path
      d="M359.571 1267.45C355.599 1264.41 351.368 1261.64 347.905 1258.1C347.217 1257.39 349.474 1251.82 350.505 1251.78C354.102 1251.64 359.11 1251.77 361.061 1254C363.239 1256.49 362.659 1261.4 363.267 1265.24C362.022 1265.97 360.797 1266.71 359.571 1267.45Z"
      fill="currentColor" />
    <path
      d="M359.327 1223.39C354.292 1227.34 351.056 1229.88 346.469 1233.48C344.152 1228 341.571 1224.18 341.282 1220.2C341.15 1218.49 346.446 1214.4 348.081 1214.94C351.754 1216.18 354.645 1219.65 359.327 1223.39Z"
      fill="currentColor" />
    <path
      d="M416.511 1337.16C409.274 1336.71 401.895 1337.02 402.792 1327.37C402.95 1325.61 407.85 1322.81 410.398 1322.99C419.501 1323.61 418.852 1329.78 416.511 1337.16Z"
      fill="currentColor" />
    <path
      d="M252.691 1122.31C245.569 1122.06 238.351 1122.21 239.142 1112.61C239.28 1110.84 244.233 1107.94 246.731 1108.2C255.227 1109 256.243 1114.45 252.691 1122.31Z"
      fill="currentColor" />
    <path
      d="M484.415 1287.91C480.493 1284.04 476.57 1280.18 472.648 1276.31C472.988 1275.13 473.326 1273.97 473.665 1272.79C477.161 1272.36 482.282 1270.31 483.785 1271.84C486.827 1274.93 487.918 1279.96 489.823 1284.17C488.007 1285.42 486.211 1286.66 484.415 1287.91Z"
      fill="currentColor" />
    <path
      d="M190.021 811.28C187.337 807.481 185.108 804.326 182.928 801.259C191.134 791.227 192.093 791.275 200.654 802.641C197.334 805.35 193.949 808.09 190.021 811.28Z"
      fill="currentColor" />
    <path
      d="M362.921 1338.29C372.825 1329.53 373.852 1329.67 380.117 1340.02C372.162 1350.43 370.868 1350.34 362.921 1338.29Z"
      fill="currentColor" />
    <path
      d="M239.011 844.195C231.212 831.947 231.83 829.899 244.891 824.421C247.887 832.323 247.159 838.778 239.011 844.195Z"
      fill="currentColor" />
    <path
      d="M469.574 1408.42C463.75 1407.64 460.65 1407.22 455.99 1406.59C457.039 1401.49 457.862 1396.87 459.207 1392.41C459.286 1392.12 464.723 1392.35 465.182 1393.42C467.034 1397.73 467.943 1402.47 469.574 1408.42Z"
      fill="currentColor" />
    <path
      d="M678.965 301.626C676.834 307.149 679.887 316.124 669.548 315.274C667.938 315.137 665.001 309.777 665.633 307.771C667.518 301.833 671.237 297.208 678.965 301.626Z"
      fill="currentColor" />
    <path
      d="M558.971 1231.71C555.259 1231.21 552.178 1230.79 548.605 1230.31C548.668 1225.22 548.745 1220.46 548.8 1215.72C558.285 1216.2 561.451 1220.61 558.971 1231.71Z"
      fill="currentColor" />
    <path
      d="M451.737 1077.97C451.203 1081.94 450.814 1084.82 450.429 1087.69C437.758 1088.78 435.985 1086.57 439.79 1073.39C443.634 1074.85 447.418 1076.31 451.737 1077.97Z"
      fill="currentColor" />
    <path
      d="M413.037 1294.26C407.731 1297.38 404.708 1300.57 401.968 1300.32C399.822 1300.14 396.06 1295.23 396.558 1293.32C397.255 1290.68 401.04 1287.66 403.874 1287.21C405.884 1286.92 408.522 1290.61 413.037 1294.26Z"
      fill="currentColor" />
    <path
      d="M480.818 1489.54C475.957 1487.72 471.096 1485.9 466.255 1484.08C466.275 1482.73 466.312 1481.41 466.332 1480.07C471.416 1479.04 476.48 1477.72 481.597 1477.48C482.144 1477.45 482.984 1483.9 483.688 1487.33C482.725 1488.07 481.781 1488.8 480.818 1489.54Z"
      fill="currentColor" />
    <path
      d="M110.017 1230.91C101.808 1232.9 98.1594 1229.09 98.0566 1222.24C98.0351 1220.61 102.311 1217.36 104.378 1217.54C113.322 1218.3 111.634 1224.57 110.017 1230.91Z"
      fill="currentColor" />
    <path
      d="M562.784 1091.16C568.181 1092.43 572.624 1093.47 577.613 1094.64C577.134 1098.2 576.677 1101.6 576.153 1105.48C572.757 1105.03 569.657 1104.61 566.083 1104.13C565.112 1100.44 564.091 1096.38 562.784 1091.16Z"
      fill="currentColor" />
    <path
      d="M228.868 748.423C232.267 751.696 234.369 753.707 236.467 755.739C232.886 757.85 229.461 760.444 225.594 761.693C224.689 761.993 220.449 756.758 220.951 755.861C222.462 753.149 225.561 751.335 228.868 748.423Z"
      fill="currentColor" />
    <path
      d="M771.015 665.523C768.468 660.998 765.389 657.146 766.036 656.369C768.397 653.47 772.028 651.587 775.168 649.316C776.65 651.747 779.804 654.745 779.207 656.494C778.253 659.401 774.874 661.499 771.015 665.523Z"
      fill="currentColor" />
    <path
      d="M339.456 1393.56C336.195 1388.82 333.943 1385.54 331.688 1382.28C333.896 1380.81 337.282 1377.61 338.093 1378.16C341.221 1380.31 343.875 1383.44 345.783 1386.74C346.16 1387.37 342.457 1390.39 339.456 1393.56Z"
      fill="currentColor" />
    <path
      d="M215.579 883.23C210.174 885.9 206.876 888.893 204.546 888.278C202.141 887.632 199.552 883.565 199.282 880.794C199.149 879.248 203.775 875.65 205.932 875.9C208.628 876.183 210.957 879.492 215.579 883.23Z"
      fill="currentColor" />
    <path
      d="M168.619 1296.12C164.069 1299.3 161.648 1301.01 159.227 1302.71C157.226 1299.81 154.654 1297.11 153.541 1293.88C153.189 1292.91 157.425 1288.78 158.479 1289.16C161.57 1290.24 164.149 1292.88 168.619 1296.12Z"
      fill="currentColor" />
    <path
      d="M722.971 995.053C718.583 997.336 715.486 1000.18 713.889 999.499C711.378 998.437 709.852 994.995 707.908 992.562C710.466 990.735 712.913 987.788 715.621 987.529C717.313 987.355 719.404 991.235 722.971 995.053Z"
      fill="currentColor" />
    <path
      d="M602.342 857.544C603.111 851.838 603.499 848.955 604.087 844.592C607.713 845.281 611.609 845.163 614.286 846.93C615.467 847.713 615.262 853.716 613.813 854.767C611.211 856.628 607.203 856.53 602.342 857.544Z"
      fill="currentColor" />
    <path
      d="M611.6 242.381C609.694 235.188 613.715 231.448 619.678 229.417C620.203 229.246 623.703 233.859 623.206 235.46C621.586 240.77 619.849 247.552 611.6 242.381Z"
      fill="currentColor" />
    <path
      d="M864.101 1089.95C858.319 1091.69 855.127 1093.75 852.771 1093.03C850.763 1092.42 849.709 1088.6 848.242 1086.21C850.909 1084.62 853.549 1081.88 856.231 1081.82C858.065 1081.78 859.98 1085.48 864.101 1089.95Z"
      fill="currentColor" />
    <path
      d="M727.414 818.346C729.725 822.98 732.566 826.217 731.834 827.767C730.646 830.321 727.113 831.775 724.564 833.683C722.937 830.991 720.273 828.381 720.067 825.579C719.955 823.875 723.619 821.896 727.414 818.346Z"
      fill="currentColor" />
    <path
      d="M470.004 1232.84C473.716 1233.34 476.816 1233.76 480.469 1234.25C479.972 1237.94 479.523 1241.28 479.001 1245.15C475.426 1244.83 472.307 1244.55 468.473 1244.21C468.986 1240.4 469.435 1237.06 470.004 1232.84Z"
      fill="currentColor" />
    <path
      d="M496.008 697.943C499.622 698.43 502.504 698.818 506.394 699.342C506.121 702.864 505.847 706.244 505.541 710.304C501.691 709.785 498.354 709.336 494.543 708.823C495.04 705.13 495.522 701.557 496.008 697.943Z"
      fill="currentColor" />
    <path
      d="M623.743 267.775C627.413 270.822 631.067 273.847 634.737 276.895C634.437 278.081 634.136 279.266 633.836 280.452C629.561 280.701 625.305 280.952 620.177 281.266C620.499 276.786 620.727 273.601 620.955 270.415C621.877 269.534 622.82 268.656 623.743 267.775Z"
      fill="currentColor" />
    <path
      d="M656.982 65.2739C662.134 64.7818 667.284 64.3093 672.436 63.8172C672.357 66.1987 672.401 70.6475 672.179 70.6577C667.132 70.963 662.07 70.7838 656.995 70.7034C656.997 68.8944 656.98 67.0828 656.982 65.2739Z"
      fill="currentColor" />
    <path
      d="M299.822 1177.85C302.873 1182.36 305.439 1186.15 308.005 1189.93C305.363 1190.74 302.115 1192.92 300.198 1192.07C294.255 1189.48 293.244 1185.05 299.822 1177.85Z"
      fill="currentColor" />
    <path
      d="M630.101 64.1017C631.703 70.2679 633.01 73.8414 633.358 77.5269C633.462 78.5461 630.793 79.8551 629.388 81.0329C626.917 77.8857 624.099 74.9329 622.276 71.4508C621.958 70.825 625.855 68.0128 630.101 64.1017Z"
      fill="currentColor" />
    <path
      d="M447.179 1493.79C441.591 1493.04 438.413 1492.61 433.852 1492C435.247 1488.21 435.784 1484.52 437.813 1482.14C438.72 1481.07 444.02 1481.73 444.899 1483.11C446.537 1485.73 446.398 1489.45 447.179 1493.79Z"
      fill="currentColor" />
    <path
      d="M432.204 521.913C426.419 521.134 423.299 520.714 418.264 520.035C419.967 516.345 420.809 513.081 422.812 510.898C423.731 509.896 428.171 510.213 428.85 511.289C430.508 513.905 430.891 517.334 432.204 521.913Z"
      fill="currentColor" />
    <path
      d="M286.574 1103.66C289.358 1106.12 292.139 1108.61 294.923 1111.07C292.51 1113.02 290.116 1114.97 287.706 1116.9C285.736 1113.76 283.784 1110.64 281.815 1107.5C283.413 1106.23 284.995 1104.93 286.574 1103.66Z"
      fill="currentColor" />
    <path
      d="M529.495 1059.6C530.115 1065.59 530.564 1070.01 531.017 1074.42C527.996 1073.41 524.014 1073.27 522.138 1071.23C517.244 1065.93 521.819 1063.45 529.495 1059.6Z"
      fill="currentColor" />
    <path
      d="M281.545 1305.41C284.874 1308.45 288.204 1311.49 291.514 1314.53C289.338 1316.21 287.142 1317.88 284.964 1319.58C282.392 1316.14 279.803 1312.67 277.231 1309.23C278.669 1307.96 280.107 1306.68 281.545 1305.41Z"
      fill="currentColor" />
    <path
      d="M26.4096 1278.51C28.92 1275.69 31.4305 1272.87 33.9212 1270.05C35.9126 1272.43 37.9067 1274.79 39.8981 1277.17C36.7331 1279.18 33.5654 1281.2 30.4202 1283.21C29.103 1281.65 27.7464 1280.08 26.4096 1278.51Z"
      fill="currentColor" />
    <path
      d="M320.552 1234.34C316.764 1235.6 313.311 1237.5 312.7 1236.82C310.318 1234.2 308.451 1230.9 307.373 1227.56C307.133 1226.8 310.825 1224.76 312.69 1223.31C314.973 1226.51 317.255 1229.71 320.552 1234.34Z"
      fill="currentColor" />
    <path
      d="M619.162 1365.22C621.513 1368.07 623.843 1370.92 626.191 1373.79C623.227 1375.94 620.266 1378.07 617.302 1380.23C616.543 1379.44 615.787 1378.64 615.009 1377.85C615.501 1374.2 615.99 1370.56 616.482 1366.91C617.385 1366.33 618.282 1365.79 619.162 1365.22Z"
      fill="currentColor" />
    <path
      d="M545.019 1420.35C548.538 1422.13 551.73 1423.06 553.829 1425.09C554.771 1426.01 554.357 1430.27 553.228 1431.04C550.796 1432.69 547.493 1433.03 543.136 1434.33C543.87 1428.88 544.317 1425.56 545.019 1420.35Z"
      fill="currentColor" />
    <path
      d="M160.837 1099.24C159.328 1094.18 157.471 1091.25 158.083 1088.94C158.548 1087.14 162.88 1084.52 164.026 1085.12C166.281 1086.29 168.99 1089.61 168.745 1091.73C168.52 1093.85 164.93 1095.57 160.837 1099.24Z"
      fill="currentColor" />
    <path
      d="M446.387 675.74C449.295 673.257 452.183 670.771 455.09 668.288C456.736 670.399 458.364 672.488 460.01 674.6C456.605 676.594 453.201 678.588 449.779 680.559C448.631 678.937 447.519 677.34 446.387 675.74Z"
      fill="currentColor" />
    <path
      d="M307.186 790.737C307.284 786.428 307.405 782.102 307.502 777.793C310.428 778.609 313.354 779.425 316.302 780.224C315.008 784.01 313.711 787.816 312.417 791.602C310.665 791.326 308.916 791.03 307.186 790.737Z"
      fill="currentColor" />
    <path
      d="M165.048 1125.43C170.972 1126.22 174.091 1126.64 177.922 1127.16C177.752 1129.91 177.586 1132.64 177.34 1136.41C173.924 1135.95 170.437 1136.46 168.59 1134.95C166.761 1133.46 166.572 1129.93 165.048 1125.43Z"
      fill="currentColor" />
    <path
      d="M547.048 489.109C550.011 499.942 545.72 502.098 540.213 502.241C538.982 502.276 536.311 497.333 536.563 497.105C539.474 494.442 542.79 492.215 547.048 489.109Z"
      fill="currentColor" />
    <path
      d="M246.387 880.308C244.559 877.609 240.965 874.592 241.377 872.276C241.787 869.979 246.204 868.382 248.851 866.487C249.531 867.262 250.191 868.035 250.873 868.79C250.453 871.91 250.03 875.049 249.61 878.169C248.525 878.907 247.446 879.606 246.387 880.308Z"
      fill="currentColor" />
    <path
      d="M444.827 1519.17C447.162 1520.93 451.594 1522.95 451.417 1524.42C450.995 1528 448.435 1531.33 446.746 1534.76C445.595 1534.51 444.423 1534.25 443.269 1534.01C442.914 1529.48 442.577 1524.98 442.222 1520.45C443.086 1520 443.945 1519.59 444.827 1519.17Z"
      fill="currentColor" />
    <path
      d="M54.4482 1184.85C59.9373 1185.58 62.3857 1185.91 65.7028 1186.36C65.2986 1189.36 65.5486 1192.43 64.3212 1194.68C63.602 1195.99 58.9061 1196.82 58.7143 1196.46C57.1741 1193.41 56.2398 1190.05 54.4482 1184.85Z"
      fill="currentColor" />
    <path
      d="M383.288 1182.72C381.952 1178.76 380.613 1174.82 379.296 1170.86C381.642 1170.31 384.004 1169.79 386.35 1169.24C386.901 1173.35 387.453 1177.47 388.002 1181.6C386.446 1181.96 384.866 1182.35 383.288 1182.72Z"
      fill="currentColor" />
    <path
      d="M132.74 940.044C130.922 936.523 128.461 933.899 129.029 932.368C129.722 930.511 133.45 928.058 134.908 928.576C137.095 929.353 138.461 932.492 140.186 934.614C138.177 936.093 136.171 937.551 132.74 940.044Z"
      fill="currentColor" />
    <path
      d="M251.607 1365.23C251.539 1362 251.468 1358.8 251.4 1355.57C253.895 1355.85 256.369 1356.14 258.865 1356.41C258.437 1359.59 258.008 1362.77 257.58 1365.95C255.603 1365.71 253.604 1365.48 251.607 1365.23Z"
      fill="currentColor" />
    <path
      d="M587.688 1171.33C589.047 1176.01 590.89 1178.9 590.167 1180.83C589.442 1182.78 586.21 1183.79 584.066 1185.23C583.091 1182.77 581.261 1180.23 581.462 1177.85C581.595 1176.12 584.412 1174.61 587.688 1171.33Z"
      fill="currentColor" />
    <path
      d="M340.807 1345.42C336.005 1347.79 333.437 1350.14 331.462 1349.73C329.331 1349.28 327.771 1346.24 325.958 1344.33C327.857 1342.91 329.772 1340.34 331.634 1340.39C333.92 1340.43 336.127 1342.7 340.807 1345.42Z"
      fill="currentColor" />
    <path
      d="M440.916 1452.98C435.411 1454.45 432.501 1456.21 430.469 1455.48C428.57 1454.8 427.608 1451.49 426.23 1449.34C428.38 1448.3 430.713 1446.2 432.618 1446.54C434.799 1446.91 436.605 1449.47 440.916 1452.98Z"
      fill="currentColor" />
    <path
      d="M476.152 754.733C472.189 756.692 469.705 758.87 468.475 758.303C466.506 757.394 464.502 754.813 464.186 752.679C464.022 751.511 467.466 748.477 468.922 748.714C470.97 749.03 472.633 751.606 476.152 754.733Z"
      fill="currentColor" />
    <path
      d="M845.207 1014.55C841.822 1013.71 838.434 1012.89 835.049 1012.06C835.685 1010.17 836.547 1006.61 836.902 1006.66C840.216 1007.12 843.429 1008.2 846.682 1009.12C846.178 1010.92 845.694 1012.73 845.207 1014.55Z"
      fill="currentColor" />
    <path
      d="M525.334 611.367C528.672 615.395 530.299 617.343 532.339 619.809C529.444 621.751 527.136 623.813 524.425 624.835C523.515 625.174 520.19 622.395 520.374 621.776C521.308 618.726 523.055 615.905 525.334 611.367Z"
      fill="currentColor" />
  </g>
</svg>
