<svg width="1189" height="1314" viewBox="0 0 1189 1314" fill="none" xmlns="http://www.w3.org/2000/svg">
<g clip-path="url(#clip0_15_2175)">
<path d="M662.125 740.719C657.502 740.179 652.665 740.356 648.323 738.967C640.941 736.596 640.269 720.93 646.733 712.816C648.176 711.011 648.899 708.495 649.953 706.294C647.661 705.426 645.337 704.671 643.115 703.654C640.188 702.332 637.356 700.805 633.223 698.736C628.501 703.039 623.853 713.183 614.254 709.505C611.577 708.473 608.669 707.133 606.862 704.91C602.491 699.518 602.476 687.207 606.298 683.049C612.532 676.29 623.361 677.973 633.539 687.899C637.439 682.123 641.299 676.403 645.536 670.131C639.854 664.912 634.033 659.585 628.003 654.049C625.869 656.98 622.952 660.704 620.338 664.701C615.093 672.694 608.783 671.447 603.329 667.829C597.467 663.968 598.766 656.335 601.052 650.206C603.682 643.138 609.418 641.81 615.131 643.979C619.1 645.495 622.744 647.933 625.86 649.617C631.038 644.053 635.896 637.442 641.852 632.788C649.795 626.563 654.438 636.304 661.741 638.496C663.187 633.212 664.56 628.213 666.118 622.591C664.689 621.092 662.922 619.336 661.22 617.468C657.537 613.404 654.654 613.032 650.204 618.476C647.17 622.191 639.894 626.707 637.882 625.261C633.451 622.107 629.656 615.946 628.393 609.996C626.892 603.022 640.146 593.814 646.078 597.024C648.656 598.416 651.091 600.126 653.58 601.685C657.938 595.268 662.4 588.704 667.663 580.963C663.824 580.385 660.449 579.88 657.061 579.354C649.456 564.076 656.555 553.343 667.983 544.229C672.382 547.362 676.716 550.471 681.053 553.56C683.257 549.59 685.321 547.059 686.053 544.215C686.648 541.902 686.51 537.949 685.229 536.868C678.094 530.843 677.237 521.695 678.463 512.82C679.123 507.961 684.075 503.463 687.638 497.933C685.566 496.038 681.064 493.941 679.651 490.144C677.951 485.571 677.15 478.689 679.095 474.371C681.771 468.368 687.097 463.86 694.296 464.536C697.777 464.875 703.023 468.651 704.988 461.107C705.787 458.017 705.63 454.082 704.536 451.333C703.147 447.866 700.347 445.201 698.342 442.422C694.929 446.437 691.918 451.641 687.779 454.229C685.34 455.746 680.323 454.209 677.807 452.088C670.574 446.036 671.941 440.96 684.006 427.024C688.092 430.346 692.286 433.753 696.479 437.161C698.982 431.57 701.767 426.407 703.459 420.93C704.055 418.984 702.527 415.545 701.008 413.962C694.389 407.107 690.829 398.915 694.684 388.363C696.225 384.15 700.069 380.844 699.553 379.627C697.263 374.256 694.416 369.133 692.933 363.437C692.122 360.342 693.123 356.107 694.219 352.692C699.941 334.82 711.112 341.09 720.74 343.65C726.407 336.055 721.212 332.785 718.239 329.122C714.377 324.367 711.833 328.988 708.634 331.898C702.183 337.733 694.8 337.294 690.206 330.764C685.969 324.745 683.929 318.388 690.953 311.166C695.271 306.717 696.588 302.661 689.89 298.582C686.204 296.334 682.679 288.648 683.588 284.213C684.626 279.189 690.215 273.85 694.839 270.932C697.521 269.239 702.189 272.006 706.843 272.955C708.555 268.6 710.783 262.912 713.396 256.228C710.421 253.222 706.979 249.774 703.404 246.181C691.903 266.344 691.082 266.784 680.703 258.892C675.668 255.054 676.361 244.439 682.152 236.931C685.466 232.639 695.986 233.835 702.022 239.971C704.448 233.679 708.415 227.657 708.59 221.853C708.819 214.488 702.757 217.26 698.589 218.531C691.028 220.843 683.436 227.616 676.231 219.305C672.73 215.274 671.438 205.185 675.792 201.106C679.759 197.384 684.748 192.483 690.647 196.831C693.905 199.24 697.485 201.132 700.32 202.892C702.896 197.519 705.97 193.247 706.796 188.671C707.383 185.391 705.857 180.658 703.735 178.373C695.369 169.356 694.311 161.856 701.004 151.246C706.414 142.647 722.109 144.832 726.498 154.438C729.874 161.842 728.551 168.507 722.769 175.436C727.202 181.257 731.658 186.269 735.124 192.095C736.566 194.523 736.301 198.697 735.992 202.055C735.345 209.119 733.136 215.562 739.149 221.618C746.507 229.032 744.038 239.746 739.71 249.645C742.009 252.001 744.303 253.874 746.069 256.287C749.303 260.666 752.183 262.216 757.228 257.397C759.443 255.263 765.076 254.063 766.634 255.611C769.643 258.62 773.351 264.793 772.233 267.994C770.713 272.305 763.969 278.563 761.134 277.828C752.283 275.539 749.618 283.127 749.119 288.308C748.68 293.029 753.189 297.89 756.716 302.368C758.241 291.486 766.045 291.686 771.322 289.725C773.302 288.985 778.07 293.808 779.109 297.229C782.277 307.613 773.152 309.324 768.141 314.397C764.448 311.047 761.124 307.995 757.493 304.688C756.087 312.235 754.734 319.516 753.34 326.967C759.203 330.056 764.414 333.462 771.868 329.268C774.028 328.058 778.743 331.621 781.405 334.179C784.972 337.578 784.182 342.524 780.117 345.445C776.37 348.14 771.871 349.348 767.329 350.108C757.943 361.597 757.857 363.659 765.945 377.853C768.953 375.74 771.833 372.807 775.079 371.717C778.662 370.518 783.079 369.806 786.125 371.253C787.75 372.032 788.691 379.137 787.328 380.987C785.245 383.787 780.76 385.788 777.534 385.7C774.174 385.602 771.093 382.627 768.086 381.009C765.449 386.976 762.105 393.798 759.539 400.891C758.979 402.433 760.761 405.486 762.16 407.079C772.251 418.563 772.251 427.782 761.859 439.833C761.078 440.74 760.225 441.546 760.52 441.24C765.952 449.243 771.028 456.736 776.245 464.453C766.037 475.107 756.196 482.349 744.107 473.672C742.026 476.975 740.245 479.798 738.035 483.303C740.012 485.655 742.075 488.38 744.383 490.796C751.053 497.771 751.061 497.714 754.484 487.091C754.835 485.977 756.297 484.154 756.586 484.273C762.716 486.878 770.161 488.134 774.421 492.957C779.138 498.297 775.478 506.1 770.391 511.361C766.837 515.037 757.395 512.993 752.366 508.209C742.891 520.503 742.647 523.113 749.957 533.577C754.087 539.511 752.74 552.378 747.174 558.955C745.585 560.846 743.741 562.485 741.037 565.239C742.946 566.696 744.975 567.506 745.995 569.148C749.598 574.965 754.606 580.54 755.753 587.236C756.802 593.402 739.11 602.335 734.464 597.734C729.356 592.654 726.367 595.135 723.243 600.292C719.928 605.744 718.072 610.803 724.129 615.239C730.308 619.782 731.946 629.819 728.567 636.773C724.629 644.884 715.188 650.513 708.32 648.49C702.692 646.83 697.24 645.377 691.828 650.536C688.237 653.976 687.801 655.857 691.647 659.972C695.696 664.335 700.197 671.824 699.32 677.421C698.252 684.336 692.83 692.393 684.534 692.833C680.881 693.022 677.352 690.747 673.665 690.296C671.415 690.011 668.231 690.119 666.704 691.667C662.167 696.234 658.252 701.603 653.648 707.19C658.163 708.553 663.458 710.169 668.777 711.728C672.842 712.903 673.381 715.108 671.825 720.074C669.438 727.606 668.75 735.748 662.112 740.95L662.125 740.719ZM676.283 659.127C672.904 656.225 670.623 654.508 668.586 652.48C664.345 648.277 661.071 648.553 658.488 655.393C656.222 661.368 653.851 666.988 661.544 669.441C662.941 669.894 663.675 672.422 665.298 674.883C669.103 669.448 672.66 664.343 676.283 659.127ZM673.724 581.013C673.809 581.908 673.894 582.803 673.979 583.699C679.799 578.918 684.672 595.499 690.724 581.537C694.427 573.022 689.733 569.171 684.336 566.156C680.653 571.31 677.179 576.17 673.724 581.013ZM683.998 615.567C687.104 618.486 689.39 620.803 691.827 622.88C696.074 626.524 702.803 622.43 701.053 617.08C699.563 612.465 694.86 609.445 691.355 605.452C688.313 609.61 686.363 612.304 683.998 615.567ZM698.484 498.072C703.4 497.688 707.991 506.923 712.693 497.014C713.75 494.794 712.607 489.084 710.892 488.085C703.932 484.064 701.527 491.479 698.484 498.072ZM718.379 294.133C717.257 293.006 716.121 291.857 714.999 290.729C711.498 293.616 707.994 296.522 704.493 299.409C706.75 302.207 709.007 305.005 711.25 307.783C713.616 303.226 715.996 298.689 718.379 294.133ZM735.329 420.388C737.425 416.081 739.356 413.018 740.202 409.699C740.414 408.865 737.138 406.087 735.398 406.169C732.156 406.331 728.872 407.959 723.73 409.544C728.437 413.937 731.106 416.437 735.329 420.388ZM753.096 444.953C747.583 442.161 743.802 440.254 739.972 438.323C737.653 442.014 735.889 444.838 733.803 448.179C740.018 453.729 745.329 448.949 753.096 444.953ZM723.456 580.248C724.974 579.666 726.477 579.064 727.995 578.482C727.313 574.16 726.939 569.687 725.635 565.704C725.443 565.11 720.821 566.734 718.25 567.333C719.988 571.619 721.723 575.924 723.456 580.248ZM725.391 366.263C723.956 366.097 722.503 365.93 721.07 365.745C719.718 369.296 718.347 372.865 716.996 376.416C720.178 377.215 723.361 378.015 726.524 378.832C726.165 374.631 725.77 370.446 725.391 366.263Z" fill="#3599A6"/>
<path d="M940.46 866.749C936.239 865.41 934.075 864.746 931.936 864.026C918.635 859.591 913.043 868.431 910.182 878.757C913.475 886.927 917.029 893.728 918.83 901.166C919.555 904.208 917.237 909.316 914.959 912.318C910.824 917.746 908.622 921.104 915 926.135C920.022 930.092 921.22 937.486 916.273 943.988C912.117 949.434 906.83 953.607 900.134 950.233C895.95 948.115 893.615 948.162 891.473 954.202C889.71 959.175 885.655 963.377 881.66 969.343C884.575 971.311 887.786 973.476 891.833 976.19C891.353 983.932 892.097 993.189 882.749 999.531C872.512 1006.47 867.039 998.402 860.042 992.798C856.484 1001.04 853.251 1008.49 850.036 1015.94C863.079 1021.72 864.311 1025.5 860.711 1046.74C858.438 1047.37 856.074 1048.02 854.418 1048.47C859.217 1052.75 863.906 1056.91 868.179 1060.72C873.624 1055.01 878.302 1047.73 884.569 1044.11C891.927 1039.86 898.617 1044.05 903.049 1051.36C909.366 1046.09 915.439 1041.16 921.394 1036.04C929.627 1028.95 933.958 1041.79 941.418 1037.83C943.532 1052.32 939.444 1063.36 925.713 1071.36C929.443 1073.13 931.446 1074.06 933.423 1075.04C939.676 1078.13 941.267 1083.97 938.997 1090.8C936.786 1097.46 931.72 1100.95 925.467 1099.03C919.64 1097.26 915.851 1092.42 918.563 1085.5C923.679 1072.47 916.677 1066.9 907.537 1060.87C897.816 1074.83 886.873 1088.3 872.637 1068.23C868.646 1075.46 865.204 1081.7 861.405 1088.58C869.138 1092.36 875.146 1096.57 883.463 1087.71C891.78 1078.85 903.549 1081.8 907.181 1095.29C908.212 1099.1 904.553 1106.26 901.213 1109.95C896.924 1114.68 890.664 1116.69 885.001 1112.71C882.407 1110.88 880.112 1108.57 878.576 1107.25C873.052 1112.61 868.54 1118.56 862.872 1121.87C859.619 1123.76 853.947 1122.43 850.29 1120.65C841.654 1116.41 841.714 1112.35 848.652 1093.78C843.983 1090.38 839.514 1087.09 834.13 1083.16C831.626 1086.5 828.488 1090.67 824.586 1095.84C827.558 1098.3 829.921 1100.64 832.627 1102.44C841.154 1108.11 842.855 1117.44 836.847 1126.7C830.243 1136.89 821.648 1139.08 813.356 1132.49C810.418 1130.17 807.812 1127.38 804.533 1124.29C799.278 1136.91 792.173 1148.14 778.775 1144.4C770.346 1142.04 771.068 1124.78 778.613 1109.85C773.944 1104.76 769.386 1099.78 764.078 1094.01C762.079 1097.32 759.647 1101.45 757.13 1105.53C753.068 1112.11 747.225 1116.03 741.384 1111.78C737.333 1108.83 733.1 1102.66 733.233 1097.69C733.454 1089.62 741.061 1086.02 747.626 1083.09C748.351 1082.78 749.61 1082.87 750.133 1083.35C758.783 1091.63 765.06 1084.19 773.171 1079.15C779.521 1075.19 788.339 1076.43 796.047 1075.34C796.111 1076.3 796.172 1077.29 796.236 1078.25C799.827 1073 803.419 1067.74 807.011 1062.49C792.646 1041.67 792.647 1041.67 802.93 1023.12C791.55 1025.64 789.956 1017.61 789.86 1008.99C789.781 1001.79 791.399 995.149 799.095 991.424C806.405 987.905 807.282 987.772 820.341 999.009C824.865 991.03 818.714 976.851 832.77 976.729C828.509 970.639 823.547 966.12 821.783 960.229C820.447 955.776 821.522 947.744 824.499 944.48C832.6 935.625 841.552 941.858 850.686 943.531C853.217 939.863 855.925 935.955 859.15 931.282C853.577 921.6 835.263 915.73 851.575 898.009C862.448 886.207 872.151 889.074 882.516 899.199C883.714 893.775 884.417 890.503 885.052 887.599C884.349 886.727 884.046 886.198 883.628 885.855C877.482 880.958 872.064 879.474 862.969 883.216C851.881 887.772 846.594 878.736 850.51 865.965C852.628 859.064 857.078 858.485 862.61 858.492C865.996 858.482 872.113 856.987 872.551 855.241C873.875 849.943 881.482 846.348 875.875 838.461C869.295 829.195 875.257 816.005 885.024 809.868C892.827 804.978 897.173 809.941 901.141 813.88C905.516 818.24 906.524 825.581 902.315 831.414C898.06 837.321 899.529 838.482 904.638 840.51C908.952 842.208 912.479 845.842 916.326 848.581C923.587 839.587 930.661 836.735 937.521 841C947.353 847.08 938.751 857.091 940.46 866.749ZM849.225 1051.97C843.069 1048.18 837.208 1044.6 831.198 1040.92C827.646 1046.27 823.863 1052 819.496 1058.58C824.191 1061.93 828.524 1065.04 833.121 1068.32C835.828 1064.8 837.728 1061.81 840.1 1059.42C842.719 1056.79 845.781 1054.73 849.225 1051.97ZM812.847 1019.01C831.868 1031.41 828.502 1032.83 841.144 1016.53C834.382 1012.33 827.538 1008.09 820.3 1003.58C818.172 1007.96 815.508 1013.49 812.847 1019.01ZM859.747 985.606C868.826 974.477 868.755 974.081 859.075 968.07C856.487 966.457 854.36 964.096 851.574 961.708C848.543 965.241 845.493 968.773 842.996 971.681C849.034 976.707 854.399 981.157 859.747 985.606ZM799.531 1091.97C798.459 1092.34 797.404 1092.71 796.332 1093.08C797.688 1101.41 799.044 1109.73 800.399 1118.06C801.385 1118.05 802.371 1118.04 803.36 1118.01C807.32 1112.3 811.277 1106.61 815.076 1101.15C809.145 1097.68 804.331 1094.81 799.531 1091.97ZM897.784 923.725C892.545 920.3 888.224 917.488 883.906 914.657C878.687 924.422 885.922 927.659 890.508 933.987C893.225 930.138 895.584 926.81 897.784 923.725Z" fill="#3599A6"/>
<path d="M881.584 688.194C880.6 684.569 879.104 679.988 878.128 675.269C876.498 667.26 881.253 660.688 889.727 658.797C896.224 657.351 902.419 662.367 902.951 669.516C903.018 670.458 903.42 671.561 903.098 672.339C898.265 684.004 902.007 692.653 907.918 701.79C913.771 710.825 907.717 722.266 896.99 723.115C891.564 723.545 882.938 722.787 881.449 719.32C878.624 712.71 877.539 703.471 885.878 696.864C888.047 695.145 889.469 692.239 891.228 689.865C888.189 689.334 885.167 688.804 881.584 688.194Z" fill="#3599A6"/>
<path d="M584.342 718.786C579.441 714.878 574.345 711.854 570.526 707.496C567.081 703.536 565.186 697.695 570.237 692.627C575.061 687.777 579.774 680.106 587.443 684.33C593.448 687.635 599.707 693.77 595.783 701.303C589.908 712.583 595.916 719.111 599.522 726.56C603.618 735.002 603.221 739.428 592.879 747.28C585.399 752.955 580.085 750.736 575.352 744.964C570.864 739.483 572.493 729.519 578.573 723.607C580.367 721.9 582.339 720.459 584.342 718.786Z" fill="#3599A6"/>
<path d="M535.902 650.134C532.127 649.588 528.374 648.49 524.576 648.636C517.309 648.93 512.913 644.698 511.78 638.245C510.462 630.749 512.341 622.293 520.499 619.568C525.674 617.838 532.53 617.989 537.036 620.388C543.319 623.725 544.273 631.195 541.055 638.863C539.432 642.726 537.564 646.512 535.902 650.134Z" fill="#3599A6"/>
<path d="M544.47 566.491C536.481 565.863 532.271 559.453 533.552 549.887C534.308 544.206 545.401 530.964 549.153 531.251C555.322 531.73 565.05 545.234 564.105 552.005C562.996 559.947 553.197 567.192 544.47 566.491Z" fill="#3599A6"/>
<path d="M911.407 729.936C922.114 730.738 922.988 731.947 921.352 743.649C919.741 755.175 913.323 761.537 903.91 760.906C895.078 760.317 889.952 753.766 891.05 744.476C892.255 734.68 900.066 729.09 911.407 729.936Z" fill="#3599A6"/>
<path d="M915.986 1032.54C911.393 1032.23 906.64 1022.49 907.696 1015.58C909.006 1007.12 918.057 998.631 925.395 999.016C932.19 999.362 939.051 1009.04 937.899 1016.63C936.467 1025.97 926.415 1033.26 915.986 1032.54Z" fill="#3599A6"/>
<path d="M506.305 593.713C507.64 585.725 516.156 578.307 523.313 578.915C531.013 579.562 536.509 588.412 534.826 597.46C533.414 605.089 524.388 612.371 517.449 611.502C510.314 610.6 504.927 602.014 506.305 593.713Z" fill="#3599A6"/>
<path d="M555.473 728.892C562.721 729.348 568.809 737.179 567.961 744.951C567.12 752.664 558.389 760.587 551.29 760.122C543.138 759.581 536.374 748.716 537.853 738.536C538.785 731.996 545.61 728.269 555.473 728.892Z" fill="#3599A6"/>
<path d="M905.598 766.698C920.921 768.816 928.427 776.223 926.579 785.256C925.162 792.127 914.584 800.677 908.786 799.632C901.615 798.332 894.917 784.227 897.723 773.445C898.549 770.285 903.887 768.077 905.598 766.698Z" fill="#3599A6"/>
<path d="M645.248 781.747C634.265 783.413 624.759 781.967 620.896 770.358C618.646 763.563 622.976 758.224 628.345 753.947C633.697 749.668 638.844 748.948 644.055 752.735C655.487 761.072 647.972 771.673 645.248 781.747Z" fill="#3599A6"/>
<path d="M672.363 737.416C675.741 739.511 679.025 741.758 682.482 743.681C688.868 747.253 691.349 753.941 687.823 760.22C684.932 765.361 678.583 770.413 673.246 771.75C665.885 773.593 661.81 766.417 659.761 760.037C656.543 750.002 658.513 747.143 668.44 742.227C670.069 741.416 671.082 739.002 672.419 737.282C672.457 737.265 672.363 737.416 672.363 737.416Z" fill="#3599A6"/>
<path d="M659.109 98.7292C658.254 105.773 649.058 117.438 644.388 117.4C638.938 117.346 629.559 103.983 630.337 97.3661C631.126 90.5338 640.75 81.9304 646.992 82.4346C653.841 83.0215 660.016 91.3148 659.109 98.7292Z" fill="#3599A6"/>
<path d="M716.161 713.423C711.908 717.221 716.387 728.662 707.245 728.918C695.517 729.266 686.328 719.284 687.491 710.69C688.598 702.507 696.667 695.43 704.25 696.01C711.366 696.537 717.273 704.549 716.161 713.423Z" fill="#3599A6"/>
<path d="M787.744 1050.16C786.141 1059.41 779.694 1064.34 770.696 1063.19C763.278 1062.24 757.729 1054.46 758.909 1046.67C760.034 1039.15 768.84 1031.21 775.311 1031.86C784.018 1032.74 789.382 1040.67 787.744 1050.16Z" fill="#3599A6"/>
<path d="M668.491 138.047C667.538 145.391 658.752 153.32 652.19 152.774C646.78 152.329 639.105 141.985 639.756 136.019C640.678 127.589 651.73 120.413 663.748 120.421C668.49 120.424 670.04 126.172 668.491 138.047Z" fill="#3599A6"/>
<path d="M766.034 1131.84C764.976 1140.2 756.919 1147.49 749.398 1146.9C743.662 1146.45 736.525 1137.09 737.145 1130.83C737.906 1123.15 746.469 1113.42 752.185 1113.74C760.543 1114.22 767.161 1122.85 766.034 1131.84Z" fill="#3599A6"/>
<path d="M601.979 754.725C606.38 759.417 614.885 764.264 614.366 768.763C613.08 780.191 604.215 789.027 595.763 787.853C588.098 786.794 582.736 779.568 584.007 771.256C585.141 763.921 593.94 755.947 601.979 754.725Z" fill="#3599A6"/>
<path d="M497.135 693.547C490.264 693.275 482.03 681.791 483.105 673.976C483.812 668.785 493.604 662.183 500.445 662.275C506.645 662.36 514.1 671.553 513.474 678.392C512.87 684.935 503.352 693.772 497.135 693.547Z" fill="#3599A6"/>
<path d="M940.603 968.537C944.43 964.119 941.854 952.66 952.886 954.235C962.382 955.581 970.575 965.469 968.904 972.998C967.537 979.129 956.571 988.184 951.57 987.295C945.72 986.228 939.206 975.672 940.603 968.537Z" fill="#3599A6"/>
<path d="M519.524 734.846C524.759 735.218 530.563 744.482 529.786 751.223C528.85 759.355 520.329 766.65 512.702 765.851C505.778 765.121 499.169 756.511 500.246 749.594C501.403 742.229 511.809 734.277 519.524 734.846Z" fill="#3599A6"/>
<path d="M657.645 804.513C650.811 815.201 643.475 822.955 630.99 819.661C629.78 813.702 628.518 807.463 626.942 799.684C633.056 795.331 639.756 790.566 647.471 785.065C651.028 791.842 654.409 798.311 657.645 804.513Z" fill="#3599A6"/>
<path d="M975.212 1006.38C974.273 1014.27 962.855 1025.13 957.004 1021.72C951.962 1018.77 948.641 1011.09 946.852 1004.57C945.56 999.85 958.095 989.35 963.248 989.54C968.927 989.747 975.997 999.712 975.212 1006.38Z" fill="#3599A6"/>
<path d="M626.276 744.577C620.361 744.392 609.219 732.82 611.884 727.829C615.339 721.356 621.77 715.628 627.998 711.875C632.157 709.373 640.744 721.748 640.157 728.307C639.656 733.985 630.484 744.719 626.276 744.577Z" fill="#3599A6"/>
<path d="M707.639 128.035C697.089 142.211 693.147 144.821 684.617 140.492C681.108 138.698 676.322 132.122 677.264 130.111C680.2 123.807 681.214 115.248 690.528 113.317C702.712 110.799 704.39 120.044 707.639 128.035Z" fill="#3599A6"/>
<path d="M606.637 795.925C613.229 796.671 619.334 805.738 617.816 812.544C616.337 819.195 605.599 826.648 598.956 825.622C593.977 824.853 588.858 813.446 590.196 806.094C591.475 799.172 598.264 794.973 606.637 795.925Z" fill="#3599A6"/>
<path d="M938.199 821.191C935.126 829.536 924.821 837.722 919.049 836.935C913.296 836.15 906.359 826.144 907.571 820.356C908.582 815.484 920.836 803.976 923.746 806.101C929.249 810.112 933.458 816.048 938.199 821.191Z" fill="#3599A6"/>
<path d="M891.611 581.479C895.465 579.829 898.71 578.194 902.056 577.024C908.09 574.913 913.82 574.706 918.109 580.07C922.145 585.139 921.933 590.858 918.47 596.683C914.885 602.718 909.699 603.896 903.654 603.328C897.139 602.706 890.51 603.544 894.447 592.236C895.55 589.081 892.533 584.62 891.611 581.479Z" fill="#3599A6"/>
<path d="M562.769 762.17C567.147 770.738 571.924 776.445 572.984 783.165C574.135 790.402 565.332 798.088 558.174 798.265C553.364 798.393 542.757 785.941 545.254 781.696C549.037 775.264 555.205 770.338 562.769 762.17Z" fill="#3599A6"/>
<path d="M763.365 1150.63C769.061 1157.8 775.124 1162.35 776.996 1168.68C778.694 1174.42 767.273 1183.8 760.502 1183.93C754.245 1184.04 745.141 1174.47 747.807 1168.59C750.676 1162.29 757.101 1157.58 763.365 1150.63Z" fill="#3599A6"/>
<path d="M508.578 787.446C509.456 782.061 523.512 768.158 525.53 770.623C529.834 775.846 533.228 783.03 534.207 790.081C535.117 796.715 525.646 803.669 519.222 802.837C512.084 801.914 507.319 795.046 508.578 787.446Z" fill="#3599A6"/>
<path d="M351.395 724.264C339.857 723.501 336.597 718.914 337.938 709.572C339.101 701.499 346.214 693.238 351.837 693.422C358.077 693.63 366.276 707.218 363.263 716.401C361.922 720.522 353.965 722.694 351.395 724.264Z" fill="#3599A6"/>
<path d="M474.32 773.621C465.864 772.9 463.136 769.113 464.824 759.684C466.236 751.824 469.348 746.686 479.538 747.509C487.453 748.152 495.005 754.287 494.081 759.442C492.8 766.756 482.287 774.287 474.32 773.621Z" fill="#3599A6"/>
<path d="M665.882 154.958C669.064 160.367 673.986 165.329 674.935 171.328C675.992 177.985 665.628 186.548 659.43 186.027C652.82 185.457 647.117 177.602 648.138 170.424C649.145 163.342 657.083 156.223 665.882 154.958Z" fill="#3599A6"/>
<path d="M735.155 1176.47C734.208 1182.9 721.878 1195.82 719.59 1193.05C715.568 1188.19 712.845 1180.88 712.361 1174.1C711.845 1166.76 720.21 1160.26 726.661 1160.9C732.343 1161.49 736.286 1168.73 735.155 1176.47Z" fill="#3599A6"/>
<path d="M907.619 666.094C909.458 661.104 911.079 656.355 912.981 651.706C913.509 650.434 915.154 648.407 915.833 648.554C922.108 649.874 930.235 649.658 933.842 653.865C936.439 656.868 934.971 668.814 931.682 671.538C927.767 674.793 919.846 673.138 913.954 672.242C911.391 671.881 909.532 668.077 907.619 666.094Z" fill="#3599A6"/>
<path d="M427.707 812.998C419.05 827.362 414.342 831.089 405.59 827.752C402.226 826.463 398.668 820.78 398.803 816.926C398.963 812.242 401.909 805.754 405.498 802.938C410.737 798.832 421.828 804.614 427.707 812.998Z" fill="#3599A6"/>
<path d="M486.568 785.564C496.629 786.339 500.054 790.237 498.733 799.426C497.674 806.738 491.349 813.912 486.231 813.627C479.573 813.232 472.286 802.027 473.195 793.559C473.817 787.54 478.224 784.93 486.568 785.564Z" fill="#3599A6"/>
<path d="M384.662 822.92C383.372 831.78 378.039 838.207 372.444 837.65C365.343 836.947 360.008 829.051 361.116 820.847C362.54 810.245 365.492 807.721 375.559 808.538C384.979 809.308 386.322 811.411 384.662 822.92Z" fill="#3599A6"/>
<path d="M728.539 680.262C718.923 679.498 716.938 676.969 718.339 667.199C719.935 656.042 725.467 652.152 739.093 653.774C741.269 654.027 744.542 657.932 744.333 660.088C742.779 675.394 738.045 681.018 728.539 680.262Z" fill="#3599A6"/>
<path d="M906.714 619.26C909.042 617.063 913.565 612.836 918.073 608.589C920.048 615.701 933.19 607.126 931.534 618.469C929.328 633.495 924.527 638.666 915.602 637.774C908.041 637.019 904.775 631.981 906.714 619.26Z" fill="#3599A6"/>
<path d="M928.03 908.804C923.441 896.798 927.149 885.757 936.768 881.953C944.207 879.017 948.632 881.893 950.389 890.841C952.319 900.629 947.897 904.253 928.03 908.804Z" fill="#3599A6"/>
<path d="M506.16 703.127C516.152 704.036 518.7 707.587 517.34 717.719C516.316 725.45 512.263 730.186 505.337 730.304C496.948 730.455 492.744 723.218 494.32 713.24C495.927 703.166 496.942 702.293 506.16 703.127Z" fill="#3599A6"/>
<path d="M404.032 789.243C395.255 789.01 391.396 785.293 392.397 776.811C393.063 771.255 402.325 759.921 406.212 759.923C410.153 759.929 416.514 771.886 415.694 777.766C414.568 786.101 410.535 789.628 404.032 789.243Z" fill="#3599A6"/>
<path d="M729.227 1138.92C728.01 1146.44 722.12 1151.85 715.411 1149.85C710.273 1148.31 702.641 1145.01 702.065 1140.98C700.919 1133 711.843 1124.73 719.799 1125.46C728.058 1126.24 730.681 1129.98 729.227 1138.92Z" fill="#3599A6"/>
<path d="M451.347 793.147C459.852 793.931 462.227 797.661 460.648 807.381C459.229 816.084 453.688 820.319 446.921 817.978C442.217 816.357 436.396 811.056 435.86 806.369C434.894 797.813 442.59 792.326 451.347 793.147Z" fill="#3599A6"/>
<path d="M581.734 818.515C580.384 827.914 576.814 831.094 568.246 830.544C559.265 829.944 557.09 826.413 558.27 816.133C559.274 807.381 563.416 804.162 571.245 804.897C580.99 805.788 583.188 808.373 581.734 818.515Z" fill="#3599A6"/>
<path d="M536.918 812.939C540.257 816.299 546.159 819.269 546.387 823.14C546.867 831.101 536.439 840.599 529.981 840.159C524.213 839.768 518.625 832.59 519.364 826.515C520.289 819.247 526.923 814.362 536.918 812.939Z" fill="#3599A6"/>
<path d="M564.286 853.165C564.996 847.944 577.732 836.363 580.544 839.14C584.437 843.017 586.68 850.258 586.961 856.455C587.312 863.974 581.755 867.727 574.743 867.444C566.989 867.146 563.109 861.735 564.286 853.165Z" fill="#3599A6"/>
<path d="M554.684 597.984C550.015 596.761 545.833 593.238 547.087 584.8C548.288 576.734 553.473 572.038 561.053 572.893C567.207 573.588 572.852 576.087 572.587 583.745C572.284 591.816 563.964 598.743 554.684 597.984Z" fill="#3599A6"/>
<path d="M737.372 37.3575C738.145 30.5228 744.469 24.6571 750.734 24.984C756.763 25.2942 765.801 35.1827 763.56 41.1012C761.95 45.4016 756.296 50.5428 752.186 51.2007C743.532 52.6045 736.533 44.8012 737.372 37.3575Z" fill="#3599A6"/>
<path d="M602.912 848.263C604.299 838.334 607.22 835.739 616.263 836.422C624.328 837.036 627.687 841.637 626.153 850.391C624.75 858.345 620.732 862.639 612.718 861.792C603.946 860.871 601.581 857.919 602.912 848.263Z" fill="#3599A6"/>
<path d="M896.876 1021.54C895.97 1029.59 891.2 1034.27 884.107 1034.06C876.124 1033.83 872.665 1029.5 874.121 1020.51C875.018 1015 873.555 1006.82 882.241 1006.71C890.234 1006.61 897.615 1014.93 896.876 1021.54Z" fill="#3599A6"/>
<path d="M506.18 637.862C493.139 653.847 487.916 656.37 481.903 649.955C476.227 643.9 476.496 636.326 482.612 630.575C489.62 623.956 499.03 626.707 506.18 637.862Z" fill="#3599A6"/>
<path d="M531.471 512.113C532.206 503.321 536.45 499.892 544.331 500.394C551.991 500.9 555.667 504.676 554.718 513.037C553.786 521.144 548.004 526.556 540.921 525.577C533.748 524.593 529.852 520.427 531.471 512.113Z" fill="#3599A6"/>
<path d="M547.373 692.098C551.18 696.186 556.94 699.543 558.251 704.58C559.754 710.343 547.936 719.648 541.704 719.007C536.359 718.448 530.795 710.676 531.742 705.087C532.735 699.165 540.281 693.156 547.373 692.098Z" fill="#3599A6"/>
<path d="M813.338 1151.7C807.256 1170.58 803.692 1174.6 795.73 1171.56C789.073 1169.01 786.085 1161.31 789.136 1154.55C793.065 1145.83 800.566 1144.96 813.338 1151.7Z" fill="#3599A6"/>
<path d="M634.883 72.6377C630.537 71.9334 624.128 73.1755 625.444 63.8887C626.769 54.5433 633.749 46.4694 640.72 47.6174C647.281 48.6966 650.003 53.946 649.587 60.8481C649.13 68.4384 643.319 73.1197 634.883 72.6377Z" fill="#3599A6"/>
<path d="M584.628 906.776C578.967 906.433 571.464 897.342 574.289 892.631C577.143 887.842 582.891 883.101 587.847 881.928C592.555 880.817 600.155 881.734 600.846 889.132C601.452 895.692 589.962 907.096 584.628 906.776Z" fill="#3599A6"/>
<path d="M853.831 703.507C865.716 704.571 869.878 710.076 868.357 718.608C866.984 726.343 862.549 729.598 855.445 729.21C847.072 728.752 845.4 719.42 846.499 710.245C846.859 707.272 852.588 704.563 853.831 703.507Z" fill="#3599A6"/>
<path d="M752.04 84.421C751.008 83.162 746.167 80.0905 746.01 76.3646C745.671 67.9229 754.779 59.0667 761.396 59.5179C766.527 59.8634 771.507 67.5684 770.53 73.6441C769.379 80.6954 763.251 85.2585 752.04 84.421Z" fill="#3599A6"/>
<path d="M509.851 833.933C503.208 840.113 499.292 846.209 494.554 847.554C488.154 849.376 481.348 839.805 482.32 832.984C483.212 826.733 490.907 818.807 495.401 820.909C500.206 823.151 503.686 828.169 509.851 833.933Z" fill="#3599A6"/>
<path d="M361.659 867.493C357.347 870.855 354.003 873.215 350.905 875.91C345.297 880.786 340.486 880.622 336.306 875.03C332.094 869.396 332.763 861.591 338.193 856.941C343.667 852.234 348.841 851.253 353.27 857.696C355.604 861.114 358.605 863.965 361.659 867.493Z" fill="#3599A6"/>
<path d="M877.601 739.441C877.811 745.341 878.329 750.068 878.084 754.818C877.701 761.991 874.209 767.332 867.316 768.389C859.737 769.574 857.248 763.412 856.603 757.127C855.842 749.735 860.379 745.331 866.853 743.125C870.193 741.991 873.519 740.836 877.601 739.441Z" fill="#3599A6"/>
<path d="M309.303 751.598C314.013 748.462 318.514 743.812 323.484 742.608C328.906 741.298 334.003 750.024 332.971 756.499C332.033 762.428 324.057 769.868 319.219 769.346C314.542 768.855 309.629 759.984 309.303 751.598Z" fill="#3599A6"/>
<path d="M776.851 113.554C774.046 116.7 770.642 122.973 765.895 125.174C761.247 127.322 754.015 115.902 754.959 109.395C756.01 102.128 760.145 98.3087 766.803 98.4489C774.043 98.5912 776.833 103.376 776.851 113.554Z" fill="#3599A6"/>
<path d="M472.313 706.351C482.795 717.219 484.829 724.039 479.43 729.325C472.3 736.319 467.207 736.547 461.908 730.163C455.817 722.798 456.609 720.905 472.313 706.351Z" fill="#3599A6"/>
<path d="M873.538 801.702C865.487 802.138 862.429 796.619 862.956 789.437C863.52 782 868.877 778.287 875.672 778.315C882.026 778.352 886.775 784.881 885.931 791.705C884.826 800.527 882.553 802.363 873.538 801.702Z" fill="#3599A6"/>
<path d="M890.895 632.925C889.675 642.317 884.026 648.043 877.78 647.204C870.496 646.232 867.925 640.885 868.832 633.343C869.764 625.625 874.139 621.838 881.22 622.047C888.824 622.293 890.685 627.766 890.895 632.925Z" fill="#3599A6"/>
<path d="M527.305 860.823C526.925 854.662 531.131 851.865 536.414 851.945C544.486 852.047 550.311 859.227 548.63 866.425C547.013 873.292 542.89 877.456 535.988 876.945C529.21 876.462 525.865 870.484 527.305 860.823Z" fill="#3599A6"/>
<path d="M945.304 701.136C942.59 707.901 940.082 714.366 932.267 713.77C924.778 713.197 922.447 707.55 923.237 700.194C924.045 692.583 928.319 688.491 935.499 688.668C943.116 688.856 944.552 694.636 945.304 701.136Z" fill="#3599A6"/>
<path d="M758.155 0.817002C751.873 4.90704 746.274 10.0165 740.123 11.7187C737.983 12.3193 732.456 4.83359 732.123 0.391842C731.852 -3.31246 736.126 -9.98216 739.721 -11.7869C749.974 -16.9616 752.004 -6.13861 758.155 0.817002Z" fill="#3599A6"/>
<path d="M939.967 944.116C931.028 945.475 932.55 936.948 933.385 931.89C934.513 925.133 939.473 920.151 946.75 921.123C953.237 921.98 956.431 926.495 955.781 933.504C955.097 940.885 949.183 944.831 939.967 944.116Z" fill="#3599A6"/>
<path d="M437.966 782.918C434.663 777.36 429.388 772.172 428.84 766.084C428.546 762.862 436.465 758.047 440.675 753.968C444.173 758.382 450.118 762.4 450.443 767.352C450.746 771.812 444.941 777.328 441.829 782.369C440.553 782.553 439.26 782.735 437.966 782.918Z" fill="#3599A6"/>
<path d="M395.418 863.064C390.511 866.085 385.814 870.371 380.641 871.747C375.906 873.017 368.647 862.25 371.362 858.081C374.284 853.61 380.317 848.191 384.268 848.452C388.653 848.764 392.224 855.025 396.14 858.694C395.897 860.163 395.658 861.614 395.418 863.064Z" fill="#3599A6"/>
<path d="M701.318 1186.69C693.633 1191.4 688.078 1197.28 683.734 1196.74C679.984 1196.27 675.039 1188.48 675.387 1183.89C675.721 1179.54 682.219 1175.17 686 1170.83C690.47 1175.46 694.942 1180.08 701.318 1186.69Z" fill="#3599A6"/>
<path d="M694.11 1234.79C690.89 1229.7 685.273 1224.83 685.297 1219.43C685.31 1215.95 693.521 1211.75 698.064 1207.88C701.198 1212.81 706.164 1217.26 706.996 1222.77C707.891 1228.88 702.674 1233.02 694.11 1234.79Z" fill="#3599A6"/>
<path d="M460.249 828.361C468.014 843.568 467.678 848.324 458.486 853.647C450.714 858.167 447.842 852.573 445.274 846.745C442.181 839.738 444.839 836.447 460.249 828.361Z" fill="#3599A6"/>
<path d="M546.46 920.516C542.056 912.581 536.794 907.55 537.393 902.86C537.916 898.714 545.414 891.59 548.985 891.845C553.13 892.141 559.489 899.057 559.161 903.099C558.753 907.98 552.382 912.867 546.46 920.516Z" fill="#3599A6"/>
<path d="M906.797 565.107C893.644 561.273 888.388 555.834 890.748 548.849C893.016 542.134 900.378 538.363 906.409 540.862C913.425 543.746 913.591 549.472 906.797 565.107Z" fill="#3599A6"/>
<path d="M916.335 964.236C923.731 966.223 929.299 972.797 928.469 978.343C927.658 983.752 919.35 991.173 914.876 988.802C910.675 986.569 905.856 980.916 905.948 976.463C906.029 972.62 912.62 968.333 916.335 964.236Z" fill="#3599A6"/>
<path d="M432.547 853.472C428.144 856.137 423.902 860.024 419.297 861.106C414.16 862.309 407.379 852.635 408.405 847.011C410.009 838.311 417.653 838.001 422.085 838.812C426.428 839.598 429.58 845.479 433.264 849.136C433.045 850.57 432.787 852.02 432.547 853.472Z" fill="#3599A6"/>
<path d="M937.71 750.56C935.158 749.429 928.909 748.016 928.996 746.48C929.721 734.215 935.2 726.994 942.052 727.758C948.559 728.498 950.57 734.414 951.964 739.772C953.015 743.781 943.718 750.809 937.71 750.56Z" fill="#3599A6"/>
<path d="M565.357 483.915C562.294 479.18 559.214 474.445 556.152 469.71C556.826 468.023 557.485 466.314 558.158 464.627C563.969 461.708 569.654 458.247 575.655 456.308C576.994 455.871 580.438 460.356 581.222 463.233C584.072 473.671 574.491 475.493 565.357 483.915Z" fill="#3599A6"/>
<path d="M959.509 1043.38C963.469 1037.51 967.361 1029.88 974.351 1033.83C978.315 1036.05 980.353 1042.47 982.102 1047.54C982.443 1048.52 977.645 1052.91 974.729 1054.21C965.228 1058.38 962.334 1051.13 959.509 1043.38Z" fill="#3599A6"/>
<path d="M525.676 667.384C527.456 664.709 528.893 661.615 531.096 659.443C533.272 657.329 536.233 656.139 540.003 653.862C543.142 658.723 546.357 663.687 549.434 668.464C536.166 684.074 533.281 683.81 525.676 667.384Z" fill="#3599A6"/>
<path d="M689.403 1042.67C685.548 1035.14 681.481 1030.8 681.289 1025.94C681.02 1019.03 687.653 1014.28 692.799 1015.03C696.614 1015.57 702.228 1022.31 701.672 1025.79C700.875 1030.74 695.165 1035.21 689.403 1042.67Z" fill="#3599A6"/>
<path d="M515.094 872.575C503.674 887.699 498.052 887.299 491.944 870.986C503.173 855.651 507.236 855.94 515.094 872.575Z" fill="#3599A6"/>
<path d="M542.397 936.736C556.094 919.855 560.433 925.548 565.875 938.049C555.924 953.593 550.176 953.382 542.397 936.736Z" fill="#3599A6"/>
<path d="M754.324 636.692C752.376 630.248 749.06 624.65 749.645 619.153C749.959 616.112 756.677 611.466 760.628 610.943C763.139 610.612 767.151 616.024 768.239 619.794C770.982 629.378 762.905 631.55 754.324 636.692Z" fill="#3599A6"/>
<path d="M373.819 942.379C368.231 948.651 364.547 952.789 360.846 956.926C357.66 951.884 352.673 947.306 351.818 941.661C351.01 936.335 356.57 931.048 362.149 932.432C366.014 933.398 368.85 937.941 373.819 942.379Z" fill="#3599A6"/>
<path d="M768.425 533.215C773.977 530.337 779.286 525.655 784 525.871C787.034 526.007 790.701 533.054 791.188 537.592C791.434 539.911 785.641 545.035 781.982 546.342C772.987 549.511 772.101 541.115 768.425 533.215Z" fill="#3599A6"/>
<path d="M458.559 699.209C455.042 691.998 450.667 687.163 451.08 682.376C451.35 679.269 459.391 673.177 462.47 673.889C466.342 674.774 471.482 681.413 470.968 685.23C470.392 689.495 464.076 693.37 458.559 699.209Z" fill="#3599A6"/>
<path d="M386.878 667.725C386.418 672.854 383.23 675.904 377.15 675.551C371.106 675.201 364.453 668.155 365.602 662.836C367.099 655.953 371.695 655.466 377.028 655.766C383.567 656.131 388.29 657.897 386.878 667.725Z" fill="#3599A6"/>
<path d="M352.931 892.51C360.819 894.595 364.268 897.473 363.168 905.074C362.268 911.384 359.069 914.323 353.251 914.087C347.742 913.874 339.882 905.813 342.151 901.521C344.191 897.687 349.215 895.472 352.931 892.51Z" fill="#3599A6"/>
<path d="M820.454 1151.93C827.471 1145.88 833.791 1137.17 842.149 1144.95C846.5 1149 845.311 1156.44 840.312 1160.32C829.341 1168.84 826.529 1156.96 820.454 1151.93Z" fill="#3599A6"/>
<path d="M366.864 993.015C364.671 988.763 360.558 984.57 360.765 980.213C361.026 974.56 365.753 969.659 372.01 970.105C377.834 970.52 381.405 975.462 380.213 980.871C379.229 985.311 374.369 989.08 371.234 993.15C369.765 993.104 368.314 993.06 366.864 993.015Z" fill="#3599A6"/>
<path d="M339.522 818.517C348.609 828.26 349.825 833.505 343.755 838.919C338.579 843.531 333.289 842.839 329.557 837.887C325.259 832.167 328.81 825.628 339.522 818.517Z" fill="#3599A6"/>
<path d="M307.447 890.334C301.799 886.789 296.153 882.714 298.117 874.076C298.737 871.313 302.958 867.412 305.487 867.2C308.656 866.955 314.366 869.661 314.446 871.689C314.7 878.187 315.937 886.091 307.447 890.334Z" fill="#3599A6"/>
<path d="M578.297 513.584C571.345 511.486 563.168 502.156 565.541 499.217C568.268 495.848 573.236 493.114 577.275 492.689C582.993 492.066 587.415 496.122 585.887 502.723C584.993 506.618 580.948 509.972 578.297 513.584Z" fill="#3599A6"/>
<path d="M647.912 530.47C650.984 525.27 653.409 519.331 657.446 515.227C658.94 513.712 666.337 515.326 667.303 517.59C668.851 521.201 668.49 529.68 666.748 530.604C661.801 533.219 655.74 533.064 650.113 533.989C649.38 532.81 648.644 531.65 647.912 530.47Z" fill="#3599A6"/>
<path d="M478.892 878.143C473.474 882.559 472.435 894.337 462.309 890.43C459.576 889.379 457.1 885.299 456.453 882.006C455.461 876.955 458.239 872.67 463.625 872.715C468.809 872.745 473.88 873.982 479.007 874.685C478.959 875.817 478.924 876.99 478.892 878.143Z" fill="#3599A6"/>
<path d="M534.346 941.783C527.449 950.224 524.684 962.737 513.722 955.951C511.33 954.468 510.362 944.911 512.336 942.665C518.913 935.196 525.925 940.687 534.346 941.783Z" fill="#3599A6"/>
<path d="M441.061 736.034C438.876 737.29 435.449 740.308 431.786 741.062C426.925 742.068 418.191 732.816 420.494 729.798C423.271 726.158 428.818 723.668 433.311 722.914C439.086 721.953 442.14 726.744 441.061 736.034Z" fill="#3599A6"/>
<path d="M534.475 990.093C531.75 991.501 528.222 994.454 524.578 994.966C519.291 995.698 514.048 987.592 516.141 981.274C517.061 978.491 521.885 974.919 524.607 974.974C531.197 975.146 535.117 979.479 534.475 990.093Z" fill="#3599A6"/>
<path d="M436.871 891.782C433.989 894.825 430.809 900.525 428.295 900.405C422.454 900.127 418.277 896.009 419.367 888.329C420.182 882.618 421.85 878.228 428.487 878.937C435.031 879.66 436.764 883.682 436.871 891.782Z" fill="#3599A6"/>
<path d="M760.525 241.083C746.484 241.209 743.363 239.072 744.613 230.788C745.719 223.522 750.483 221.492 755.96 221.941C762.556 222.489 763.705 227.744 760.525 241.083Z" fill="#3599A6"/>
<path d="M480.676 916.486C479.391 922.393 476.479 926.027 470.197 925.817C462.911 925.576 462.277 918.958 461.684 913.887C461.479 912.071 467.537 906.8 470.416 906.807C475.313 906.819 481.447 908.087 480.676 916.486Z" fill="#3599A6"/>
<path d="M697.623 989.177C691.628 993.89 688.354 998.36 685.286 998.46C679.591 998.67 675.198 995.619 676.58 987.581C677.723 980.855 681.106 977.583 686.663 979.546C690.083 980.742 692.549 984.549 697.623 989.177Z" fill="#3599A6"/>
<path d="M298.937 715.66C307.253 707.534 316.876 705.459 319.792 711.722C321.066 714.454 319.103 720.986 316.621 723.729C311.252 729.602 306.597 727.225 298.937 715.66Z" fill="#3599A6"/>
<path d="M827.197 930.442C817.864 930.469 814.559 927.547 815.092 920.336C815.588 913.517 819.854 911.391 824.93 911.456C832.983 911.556 832.69 918.883 832.243 924.698C832.065 927.154 827.972 929.608 827.197 930.442Z" fill="#3599A6"/>
<path d="M784.071 149.608C784.141 157.213 778.578 158.831 774.177 157.629C770.94 156.727 766.359 151.19 767.008 148.768C768.032 144.972 772.892 139.751 776.279 139.321C781.346 138.636 786.023 142.048 784.071 149.608Z" fill="#3599A6"/>
<path d="M737.352 1203.4C738.993 1207.3 742.372 1211.4 741.734 1215.05C741.219 1218.09 736.126 1222.35 732.8 1222.96C726.873 1224.08 723.036 1219.86 725.105 1213.26C726.293 1209.44 730.215 1206.39 732.909 1203C734.4 1203.15 735.876 1203.27 737.352 1203.4Z" fill="#3599A6"/>
<path d="M863.696 604.699C865.278 589.059 866.859 586.901 874.817 586.974C881.169 587.032 881.933 591.508 881.681 596.445C881.301 604.136 877.993 605.579 863.696 604.699Z" fill="#3599A6"/>
<path d="M731.685 198.801C735.834 191.542 737.383 181.249 747.592 185.021C749.806 185.831 751.419 193.422 750.173 196.834C747.563 203.966 739.092 204.668 731.685 198.801Z" fill="#3599A6"/>
<path d="M869.957 1129.32C876.868 1135.02 885.928 1138.48 879.805 1147.59C875.129 1154.53 868.554 1151.76 863.103 1147.58C865.446 1141.33 867.703 1135.31 869.957 1129.32Z" fill="#3599A6"/>
<path d="M709.507 1113.71C701.747 1111.95 698.881 1109.05 699.702 1102C700.36 1096.24 702.92 1093.88 708.138 1094.21C714.934 1094.63 718.687 1098.51 717.027 1105.68C716.335 1108.67 712.127 1111.05 709.507 1113.71Z" fill="#3599A6"/>
<path d="M671.435 1070.46C670.411 1077.78 667.034 1081.89 661.52 1080.19C658.131 1079.14 655.85 1074.89 653.056 1072.08C656.597 1068.63 659.864 1063.21 663.75 1062.28C668.567 1061.1 672.887 1064.53 671.435 1070.46Z" fill="#3599A6"/>
<path d="M677.982 1156.88C671.823 1156.64 669.73 1153.27 670.275 1146.88C670.914 1139.43 675.851 1137.92 680.465 1139.12C683.611 1139.94 687.841 1144.01 687.832 1146.96C687.836 1152.44 684.378 1157.25 677.982 1156.88Z" fill="#3599A6"/>
<path d="M671.288 791.105C674.766 789.295 678.201 786.355 681.703 785.951C687.495 785.295 691.249 789.38 688.813 795.398C687.241 799.302 682.219 804.286 678.957 804.41C675.992 804.515 673.327 798.668 670.534 795.443C670.794 793.978 671.049 792.552 671.288 791.105Z" fill="#3599A6"/>
<path d="M533.473 1147.1C528.121 1149.93 524.887 1153.04 522.949 1152.41C517.873 1150.77 511.014 1148.98 512.895 1141.06C513.625 1137.95 520.605 1132.83 521.492 1133.47C525.539 1136.4 528.464 1141.04 533.473 1147.1Z" fill="#3599A6"/>
<path d="M355.319 1074.27C344.687 1073.52 338.896 1068.91 341.259 1062.55C342.46 1059.31 347.796 1054.64 350.115 1055.14C360.21 1057.26 356.616 1066.03 355.319 1074.27Z" fill="#3599A6"/>
<path d="M317.876 1058.84C318.228 1066.12 321.577 1073.87 313.086 1077.6C310.153 1078.89 302.437 1075.25 302.059 1072.6C300.538 1061.55 309.027 1060.44 317.876 1058.84Z" fill="#3599A6"/>
<path d="M684.35 404.224C683.076 410.58 679.494 413.272 673.363 412.835C666.978 412.381 666.843 407.19 667.184 402.528C667.655 396.273 671.963 394.286 677.129 395.207C681.598 396 686.343 396.911 684.35 404.224Z" fill="#3599A6"/>
<path d="M652.499 827.26C655.055 830.836 658.892 834.032 659.693 838.149C660.2 840.734 656.585 846.594 653.972 847.584C651.38 848.555 645.246 845.763 645.011 843.687C644.491 838.983 646.655 833.686 647.72 828.624C649.319 828.17 650.9 827.715 652.499 827.26Z" fill="#3599A6"/>
<path d="M335.057 1035.33C333.438 1030.23 331.479 1025.23 330.598 1019.93C330.463 1019.07 336.091 1015 337.582 1015.66C341.249 1017.3 346.39 1020.5 346.559 1023.72C346.736 1027.28 342.042 1031.57 339.45 1035.54C337.985 1035.48 336.519 1035.41 335.057 1035.33Z" fill="#3599A6"/>
<path d="M506.326 1034.48C503.149 1036.08 499.97 1038.74 496.789 1039.05C491.078 1039.61 487.895 1036.54 489.189 1029.64C490.428 1023.02 495.014 1020.39 499.787 1021.68C502.899 1022.52 504.847 1027.09 507.32 1030C506.982 1031.5 506.664 1032.98 506.326 1034.48Z" fill="#3599A6"/>
<path d="M519.519 909.069C517.175 917.311 513.535 919.09 508.151 918.391C503.073 917.733 500.075 915.838 501.079 909.182C502.211 901.744 507.205 899.329 512.081 900.25C515.12 900.803 517.075 905.967 519.519 909.069Z" fill="#3599A6"/>
<path d="M667.612 1279.42C660.215 1276.49 657.598 1273.03 658.51 1266.63C659.535 1259.55 664.859 1259.04 668.698 1260.28C671.734 1261.26 675.778 1266.01 675.319 1268.64C674.661 1272.43 670.354 1275.85 667.612 1279.42Z" fill="#3599A6"/>
<path d="M367.384 772.552C370.709 777.455 375.36 781.661 374.531 783.658C372.963 787.402 367.798 792.512 364.947 792.21C361.302 791.812 358.492 786.63 355.322 783.498C358.866 780.29 362.412 777.062 367.384 772.552Z" fill="#3599A6"/>
<path d="M983.211 885.755C981.042 894.583 978.055 897.853 971.928 897.496C965.945 897.149 964.851 893.312 965.398 887.693C965.968 881.917 968.844 878.778 973.901 880.107C977.293 881.021 980.128 883.815 983.211 885.755Z" fill="#3599A6"/>
<path d="M509.467 569.308C506.388 563.635 502.205 559.53 502.957 556.328C503.732 552.97 509.23 550.48 512.666 547.607C514.776 550.897 518.727 554.2 518.47 557.477C518.21 560.773 513.706 564.041 509.467 569.308Z" fill="#3599A6"/>
<path d="M673.773 85.5132C677.268 83.7427 680.745 80.7832 684.236 80.4773C688.489 80.1068 692.212 82.0741 691.087 88.5462C690.051 94.5101 687.747 99.3147 681.865 97.8273C678.374 96.9456 675.853 92.8072 672.89 90.122C673.177 88.5984 673.466 87.0551 673.773 85.5132Z" fill="#3599A6"/>
<path d="M665.899 1233.76C662.6 1235.39 659.256 1238.26 656.019 1238.41C650.248 1238.66 646.784 1234.24 649.289 1228.43C650.679 1225.2 656.02 1221.71 659.285 1221.76C662.074 1221.8 664.424 1226.69 666.982 1229.43C666.618 1230.85 666.269 1232.3 665.899 1233.76Z" fill="#3599A6"/>
<path d="M397.551 900.317C394.366 902.23 391.242 905.275 387.973 905.815C382.564 906.697 378.829 902.828 380.616 897.271C381.743 893.806 386.463 889.449 389.656 889.062C392.456 888.726 395.382 893.39 398.249 895.852C398.02 897.36 397.778 898.828 397.551 900.317Z" fill="#3599A6"/>
<path d="M717.56 752.704C714.305 754.555 710.376 758.46 707.956 757.753C704.815 756.815 702.864 752.234 700.42 749.204C703.607 746.396 706.809 741.646 709.993 741.357C712.768 741.098 715.576 745.859 718.365 748.398C718.11 749.828 717.834 751.276 717.56 752.704Z" fill="#3599A6"/>
<path d="M383.917 1005.18C382.905 1011.52 389.378 1020.53 377.906 1023.03C375.065 1023.65 368.731 1018.61 368.927 1016.16C369.607 1007.24 376.879 1005.96 383.917 1005.18Z" fill="#3599A6"/>
<path d="M796.765 407.482C803.368 418.623 800.024 424.314 789.664 429.11C788.289 424.881 784.931 420.041 786.102 416.66C787.369 412.974 792.839 410.626 796.765 407.482Z" fill="#3599A6"/>
<path d="M286.565 749.636C286.682 758.648 296.602 763.784 287.04 771.495C282.32 775.306 277.989 773.195 276.307 768.2C273.352 759.415 281.148 756.646 286.565 749.636Z" fill="#3599A6"/>
<path d="M572.691 431.02C566.649 434.234 562.796 437.903 560.036 437.308C557.097 436.681 555.22 432.028 552.893 429.135C556.06 426.154 559.335 420.951 562.358 420.848C565.247 420.774 567.878 425.979 572.691 431.02Z" fill="#3599A6"/>
<path d="M308.223 1022.38C309.547 1026.05 312.498 1030.06 311.697 1033.33C310.977 1036.27 305.207 1040.99 303.35 1040.35C300.261 1039.28 296.72 1034.68 296.77 1031.32C296.823 1028.33 301.505 1025.03 304.128 1021.87C305.486 1022.04 306.844 1022.22 308.223 1022.38Z" fill="#3599A6"/>
<path d="M662.379 1192.78C656.904 1196.66 652.769 1201.49 650.456 1200.79C647.275 1199.85 643.871 1194.98 643.666 1191.31C643.537 1189.08 649.399 1183.88 652.314 1183.83C655.247 1183.78 657.881 1188.49 662.379 1192.78Z" fill="#3599A6"/>
<path d="M317.932 900.908C320.596 907.382 323.915 911.477 323.297 915.152C322.783 918.208 317.643 920.756 314.559 923.53C312.38 920.301 308.149 916.943 308.553 913.899C309.031 910.194 313.45 906.753 317.932 900.908Z" fill="#3599A6"/>
<path d="M585.886 664.872C579.053 667.164 571.705 672.08 568.673 670.078C564.297 667.167 566.432 659.797 571.716 655.429C576.733 651.26 577.62 651.76 585.886 664.872Z" fill="#3599A6"/>
<path d="M410.104 933.985C404.041 937.339 400.03 941.196 396.678 940.878C394.09 940.634 392.326 935.171 390.18 932.031C393.764 929.378 397.217 925.281 400.968 924.592C403.145 924.209 405.757 929.294 410.104 933.985Z" fill="#3599A6"/>
<path d="M483.223 945.109C486.202 951.055 494.971 954.695 486.407 962.774C484.664 964.423 479.022 964.237 477.44 962.509C471.612 956.084 472.778 952.955 483.223 945.109Z" fill="#3599A6"/>
<path d="M729.346 986.272C718.937 992.499 714.426 992.099 712.709 983.781C712.143 981.009 715.514 974.222 717.492 973.848C726.084 972.223 727.516 979.688 729.346 986.272Z" fill="#3599A6"/>
<path d="M654.19 1025.85C657.542 1030.86 660.123 1034.73 662.703 1038.61C659.708 1040.84 655.62 1045.54 653.951 1044.81C650.529 1043.3 647.454 1039.31 646.24 1035.46C645.766 1033.89 650.594 1030.03 654.19 1025.85Z" fill="#3599A6"/>
<path d="M737.286 1042.6C739.964 1048.1 743.159 1051.56 742.832 1054.96C742.56 1057.69 736.779 1063.03 735.606 1062.47C732.265 1060.96 728.222 1057.33 727.94 1053.89C727.72 1051.31 732.843 1047.7 737.286 1042.6Z" fill="#3599A6"/>
<path d="M763.301 998.51C768.314 1002.22 772.646 1005.45 776.998 1008.66C776.935 1009.9 776.869 1011.15 776.787 1012.39C772.797 1014.3 768.002 1018.57 764.976 1017.62C756.228 1014.91 761.15 1007.11 763.301 998.51Z" fill="#3599A6"/>
<path d="M256.394 1041.2C262.039 1035.57 266.414 1029.01 273.169 1037.27C277.975 1043.15 272.472 1045.54 269.513 1047.89C260.428 1055.1 260.769 1044.25 256.394 1041.2Z" fill="#3599A6"/>
<path d="M543.158 475.105C537.481 479.094 533.056 482.207 528.608 485.357C523.154 474.822 523.854 472.547 534.54 464.916C536.997 467.81 539.564 470.83 543.158 475.105Z" fill="#3599A6"/>
<path d="M631.07 1264.17C634.311 1270.63 636.845 1275.72 639.566 1281.18C629.506 1286.5 624.834 1282.27 621.17 1273.72C623.737 1271.23 626.427 1268.65 631.07 1264.17Z" fill="#3599A6"/>
<path d="M486.815 1004.22C483.839 999.269 480.25 995.986 480.292 992.432C480.328 989.958 485.772 984.746 488.041 985.006C491.022 985.356 495.401 989.875 495.228 992.673C495.022 995.979 490.595 999.358 486.815 1004.22Z" fill="#3599A6"/>
<path d="M732.559 81.9574C727.267 85.6754 723.805 89.7422 720.482 89.9232C718.069 90.0498 715.848 84.9827 713.543 82.2349C716.877 79.2124 719.935 74.9977 723.679 73.654C725.426 73.023 728.51 77.9726 732.559 81.9574Z" fill="#3599A6"/>
<path d="M623.643 876.707C624.906 881.04 627.086 885.3 626.995 889.733C626.951 891.478 621.564 895.277 619.137 895.005C616.602 894.726 612.532 890.114 613.027 888.382C614.259 884.09 617.731 880.37 620.295 876.409C621.426 876.49 622.536 876.589 623.643 876.707Z" fill="#3599A6"/>
<path d="M953.468 764.121C954.954 768.596 956.929 772.948 957.569 777.618C957.703 778.612 952.247 782.65 950.622 782.043C947.457 780.872 942.699 777.168 943.063 774.95C943.689 771.118 947.705 767.626 950.3 764.013C951.368 764.05 952.418 764.086 953.468 764.121Z" fill="#3599A6"/>
<path d="M434.969 937.745C432.563 932.6 429.09 928.735 429.744 925.479C430.291 922.727 435.838 918.877 438.861 918.936C441.145 918.961 445.081 924.844 444.451 927.276C443.552 930.731 439.109 933.441 434.969 937.745Z" fill="#3599A6"/>
<path d="M287.303 920.903C278.25 932.292 276.528 932.13 269.353 919.844C279.03 909.51 279.03 909.51 287.303 920.903Z" fill="#3599A6"/>
<path d="M239.798 1075.63C242.316 1080.58 246.053 1084.58 245.168 1087.03C243.974 1090.4 239.278 1092.64 236.074 1095.36C234.029 1091.95 230.308 1088.62 230.467 1085.14C230.581 1082.49 235.615 1079.65 239.798 1075.63Z" fill="#3599A6"/>
<path d="M928.506 516.429C927.331 510.946 916.046 508.956 924.752 501.209C926.76 499.433 933.436 500.304 935.287 502.532C941.234 509.799 932.234 512.046 928.506 516.429Z" fill="#3599A6"/>
<path d="M796 954.068C799.029 957.947 800.697 959.957 802.239 962.096C802.943 963.052 803.378 964.245 804.737 966.903C801.096 969.105 797.696 972.192 794.079 972.919C792.318 973.266 788.12 968.633 788.564 967.148C789.801 962.982 792.85 959.279 796 954.068Z" fill="#3599A6"/>
<path d="M720.206 44.2655C716.704 47.659 713.707 50.5934 710.671 53.5448C707.387 50.4011 704.685 47.8136 702.002 45.2273C711.573 32.8029 711.978 32.7921 720.206 44.2655Z" fill="#3599A6"/>
<path d="M606.381 1125.23C602.035 1129.54 599.019 1132.56 594.863 1136.68C592.611 1131.89 589.839 1128.2 589.435 1124.02C589.264 1122.37 594.837 1117.52 596.866 1117.9C600.226 1118.56 602.828 1122.29 606.381 1125.23Z" fill="#3599A6"/>
<path d="M475.451 1151.7C480.385 1147.7 483.341 1145.28 487.676 1141.78C489.57 1145.65 492.481 1149.06 492.58 1152.8C492.626 1154.96 487.276 1160.09 485.803 1159.63C482.14 1158.46 479.324 1154.9 475.451 1151.7Z" fill="#3599A6"/>
<path d="M319.902 1118.44C316.183 1114.02 313.732 1111.14 310.246 1107.02C314.593 1104.33 318.19 1100.97 322.028 1100.22C323.778 1099.87 328.091 1105.13 327.569 1107.03C326.563 1110.83 323.036 1114.08 319.902 1118.44Z" fill="#3599A6"/>
<path d="M666.375 952.805C669.643 949.563 672.528 946.708 675.966 943.3C678.507 947.094 680.761 950.453 682.951 953.748C673.475 963.873 673.475 963.873 666.375 952.805Z" fill="#3599A6"/>
<path d="M556.955 619.917C562.012 618.157 568.082 610.724 571.182 620.592C571.915 622.962 568.013 627.36 566.244 630.82C562.558 628.299 558.871 625.778 555.2 623.279C555.78 622.151 556.378 621.025 556.955 619.917Z" fill="#3599A6"/>
<path d="M515.689 1111.58C512.071 1108.85 508.21 1106.41 505.068 1103.16C504.445 1102.5 506.608 1096.87 507.559 1096.76C510.878 1096.38 515.494 1096.18 517.261 1098.24C519.233 1100.54 518.626 1105.41 519.13 1109.15C517.971 1109.96 516.83 1110.77 515.689 1111.58Z" fill="#3599A6"/>
<path d="M514.217 1069.05C509.537 1073.26 506.528 1075.96 502.264 1079.8C500.216 1074.58 497.903 1071.01 497.696 1067.12C497.6 1065.46 502.522 1061.09 504.016 1061.51C507.37 1062.48 509.973 1065.69 514.217 1069.05Z" fill="#3599A6"/>
<path d="M572.317 1176.2C565.642 1176.24 558.824 1177.04 559.795 1167.47C559.966 1165.72 564.532 1162.64 566.882 1162.65C575.278 1162.65 574.588 1168.76 572.317 1176.2Z" fill="#3599A6"/>
<path d="M408.817 976.37C402.241 976.596 395.572 977.233 396.443 967.716C396.597 965.962 401.215 962.78 403.519 962.865C411.356 963.085 412.214 968.381 408.817 976.37Z" fill="#3599A6"/>
<path d="M635.584 1127.05C632.022 1123.51 628.46 1119.97 624.898 1116.43C625.229 1115.24 625.558 1114.08 625.889 1112.89C629.121 1112.23 633.875 1109.87 635.239 1111.28C638.001 1114.11 638.934 1118.99 640.629 1123.01C638.935 1124.36 637.26 1125.71 635.584 1127.05Z" fill="#3599A6"/>
<path d="M338.906 681.598C336.493 678.048 334.491 675.1 332.531 672.234C340.223 661.838 341.103 661.821 348.808 672.405C345.716 675.287 342.564 678.203 338.906 681.598Z" fill="#3599A6"/>
<path d="M522.069 1179.28C531.332 1170 532.277 1170.07 537.903 1179.83C530.413 1190.61 529.221 1190.6 522.069 1179.28Z" fill="#3599A6"/>
<path d="M386.706 711.324C379.885 699.96 380.468 697.934 392.263 691.757C394.838 699.223 394.092 705.532 386.706 711.324Z" fill="#3599A6"/>
<path d="M625.26 1242.51C619.938 1242.13 617.106 1241.93 612.849 1241.62C613.884 1236.56 614.704 1231.98 616.001 1227.53C616.078 1227.24 621.052 1227.1 621.457 1228.11C623.09 1232.21 623.853 1236.79 625.26 1242.51Z" fill="#3599A6"/>
<path d="M789.37 178.026C787.353 183.552 789.998 192.098 780.614 191.957C779.153 191.931 776.562 186.9 777.165 184.903C778.964 178.989 782.411 174.232 789.37 178.026Z" fill="#3599A6"/>
<path d="M704.841 1070.77C701.462 1070.53 698.659 1070.33 695.406 1070.1C695.537 1065.11 695.677 1060.47 695.796 1055.83C704.442 1055.67 707.265 1059.76 704.841 1070.77Z" fill="#3599A6"/>
<path d="M597.847 927.134C597.299 931.058 596.901 933.908 596.505 936.738C584.874 938.65 583.281 936.604 586.962 923.441C590.464 924.617 593.912 925.789 597.847 927.134Z" fill="#3599A6"/>
<path d="M567.88 1135.04C562.921 1138.49 560.074 1141.84 557.54 1141.78C555.556 1141.74 552.145 1137.14 552.633 1135.23C553.318 1132.58 556.868 1129.33 559.499 1128.7C561.364 1128.28 563.753 1131.75 567.88 1135.04Z" fill="#3599A6"/>
<path d="M638.835 1319.7C634.333 1318.22 629.83 1316.74 625.346 1315.25C625.385 1313.92 625.439 1312.6 625.478 1311.26C630.23 1309.9 634.968 1308.23 639.74 1307.65C640.25 1307.58 640.937 1313.94 641.542 1317.31C640.634 1318.1 639.744 1318.9 638.835 1319.7Z" fill="#3599A6"/>
<path d="M276.159 1084.77C268.593 1087.27 265.299 1083.77 265.305 1077.07C265.309 1075.47 269.282 1072 271.177 1072.04C279.378 1072.19 277.736 1078.44 276.159 1084.77Z" fill="#3599A6"/>
<path d="M704.991 936.386C709.969 937.277 714.066 938.005 718.666 938.829C718.17 942.37 717.697 945.754 717.155 949.629C714.018 949.406 711.155 949.203 707.854 948.968C707.01 945.391 706.124 941.454 704.991 936.386Z" fill="#3599A6"/>
<path d="M374.609 619.785C377.698 622.78 379.608 624.62 381.515 626.479C378.179 628.799 374.979 631.583 371.391 633.072C370.551 633.428 366.714 628.558 367.192 627.641C368.626 624.869 371.513 622.875 374.609 619.785Z" fill="#3599A6"/>
<path d="M888.982 523.165C886.732 518.923 883.987 515.371 884.587 514.57C886.776 511.586 890.104 509.509 892.993 507.086C894.305 509.358 897.13 512.072 896.561 513.817C895.651 516.715 892.549 518.985 888.982 523.165Z" fill="#3599A6"/>
<path d="M500.733 1232.77C497.81 1228.34 495.791 1225.27 493.77 1222.23C495.818 1220.64 498.971 1217.27 499.707 1217.76C502.545 1219.66 504.934 1222.55 506.637 1225.65C506.974 1226.25 503.532 1229.45 500.733 1232.77Z" fill="#3599A6"/>
<path d="M365.772 748.946C360.716 751.953 357.611 755.14 355.458 754.688C353.235 754.211 350.893 750.358 350.683 747.633C350.582 746.112 354.928 742.237 356.927 742.339C359.425 742.437 361.537 745.556 365.772 748.946Z" fill="#3599A6"/>
<path d="M334.538 1144.88C330.289 1148.32 328.028 1150.16 325.767 1152C323.962 1149.28 321.626 1146.79 320.645 1143.69C320.335 1142.76 324.307 1138.4 325.275 1138.71C328.114 1139.56 330.458 1141.99 334.538 1144.88Z" fill="#3599A6"/>
<path d="M853.984 839.097C849.885 841.65 846.974 844.664 845.504 844.102C843.194 843.222 841.83 839.923 840.065 837.65C842.462 835.673 844.773 832.596 847.286 832.158C848.856 831.872 850.736 835.565 853.984 839.097Z" fill="#3599A6"/>
<path d="M734.541 712.285C735.327 706.652 735.724 703.807 736.325 699.499C739.632 699.932 743.196 699.556 745.618 701.107C746.687 701.793 746.412 707.679 745.072 708.804C742.665 710.798 739.001 710.969 734.541 712.285Z" fill="#3599A6"/>
<path d="M723.124 124.302C721.497 117.42 725.203 113.509 730.645 111.133C731.125 110.932 734.236 115.194 733.761 116.788C732.214 122.07 730.538 128.794 723.124 124.302Z" fill="#3599A6"/>
<path d="M991.863 925.121C986.462 927.232 983.463 929.495 981.284 928.94C979.426 928.469 978.504 924.75 977.175 922.479C979.678 920.721 982.173 917.824 984.667 917.582C986.372 917.424 988.098 920.961 991.863 925.121Z" fill="#3599A6"/>
<path d="M852.993 670.174C855.025 674.536 857.558 677.502 856.871 679.061C855.755 681.629 852.525 683.281 850.183 685.31C848.744 682.795 846.362 680.428 846.216 677.711C846.139 676.058 849.495 673.886 852.993 670.174Z" fill="#3599A6"/>
<path d="M620.993 1074.77C624.384 1075.02 627.216 1075.22 630.553 1075.46C630.044 1079.1 629.584 1082.4 629.05 1086.22C625.782 1086.15 622.931 1086.08 619.425 1086.01C619.95 1082.24 620.41 1078.95 620.993 1074.77Z" fill="#3599A6"/>
<path d="M628.201 562.974C631.515 563.21 634.159 563.398 637.727 563.652C637.424 567.126 637.122 570.462 636.782 574.467C633.251 574.216 630.19 573.998 626.695 573.749C627.206 570.092 627.701 566.552 628.201 562.974Z" fill="#3599A6"/>
<path d="M736.052 147.79C739.386 150.538 742.705 153.265 746.039 156.014C745.745 157.199 745.451 158.384 745.157 159.569C741.218 160.1 737.297 160.631 732.572 161.284C732.934 156.861 733.191 153.715 733.447 150.57C734.31 149.643 735.19 148.717 736.052 147.79Z" fill="#3599A6"/>
<path d="M456.618 1027.75C459.347 1031.96 461.642 1035.5 463.937 1039.03C461.506 1040 458.499 1042.35 456.755 1041.65C451.349 1039.51 450.488 1035.23 456.618 1027.75Z" fill="#3599A6"/>
<path d="M606.823 1324.8C601.665 1324.43 598.73 1324.22 594.52 1323.92C595.867 1320.09 596.418 1316.41 598.33 1313.93C599.185 1312.82 604.078 1313.1 604.87 1314.41C606.347 1316.88 606.164 1320.56 606.823 1324.8Z" fill="#3599A6"/>
<path d="M560.546 396.929C555.189 396.548 552.3 396.343 547.637 396.011C549.273 392.243 550.102 388.955 551.993 386.659C552.86 385.605 556.976 385.619 557.59 386.639C559.09 389.116 559.395 392.485 560.546 396.929Z" fill="#3599A6"/>
<path d="M441.468 957.292C443.993 959.528 446.516 961.783 449.041 964.018C446.793 966.092 444.562 968.166 442.316 970.22C440.55 967.268 438.799 964.337 437.033 961.385C438.522 960.028 439.997 958.65 441.468 957.292Z" fill="#3599A6"/>
<path d="M671.8 907.081C672.278 912.888 672.623 917.174 672.971 921.44C670.236 920.656 666.612 920.79 664.934 918.922C660.554 914.073 664.756 911.349 671.8 907.081Z" fill="#3599A6"/>
<path d="M443.362 1150.19C446.387 1152.96 449.412 1155.73 452.419 1158.5C450.388 1160.29 448.339 1162.09 446.306 1163.9C443.985 1160.69 441.649 1157.46 439.328 1154.24C440.673 1152.89 442.017 1151.54 443.362 1150.19Z" fill="#3599A6"/>
<path d="M198.565 1133.28C200.91 1130.35 203.256 1127.42 205.583 1124.49C207.376 1126.69 209.172 1128.87 210.965 1131.07C208.031 1133.25 205.094 1135.45 202.177 1137.63C200.991 1136.18 199.769 1134.73 198.565 1133.28Z" fill="#3599A6"/>
<path d="M477.42 1081.01C473.916 1082.5 470.711 1084.61 470.159 1083.98C468.005 1081.57 466.336 1078.45 465.394 1075.24C465.184 1074.51 468.611 1072.26 470.348 1070.71C472.401 1073.7 474.454 1076.69 477.42 1081.01Z" fill="#3599A6"/>
<path d="M767.782 1196.24C769.864 1198.86 771.928 1201.47 774.008 1204.11C771.299 1206.4 768.593 1208.67 765.885 1210.96C765.211 1210.24 764.539 1209.51 763.847 1208.8C764.344 1205.21 764.839 1201.65 765.336 1198.06C766.16 1197.44 766.978 1196.85 767.782 1196.24Z" fill="#3599A6"/>
<path d="M698.895 1251.42C702.056 1252.92 704.932 1253.61 706.803 1255.45C707.643 1256.28 707.207 1260.46 706.174 1261.28C703.947 1263.04 700.953 1263.59 696.989 1265.15C697.732 1259.8 698.184 1256.54 698.895 1251.42Z" fill="#3599A6"/>
<path d="M320.645 957.554C319.35 952.718 317.706 949.993 318.296 947.702C318.743 945.911 322.712 943.078 323.743 943.583C325.772 944.571 328.182 947.625 327.929 949.705C327.694 951.786 324.412 953.707 320.645 957.554Z" fill="#3599A6"/>
<path d="M579.807 543.668C582.519 541.034 585.212 538.4 587.923 535.766C589.407 537.73 590.874 539.672 592.357 541.636C589.196 543.822 586.034 546.008 582.857 548.174C581.824 546.657 580.825 545.163 579.807 543.668Z" fill="#3599A6"/>
<path d="M450.395 658.063C450.546 653.867 450.717 649.653 450.867 645.457C453.498 646.056 456.129 646.656 458.78 647.238C457.557 651.004 456.331 654.79 455.108 658.557C453.529 658.405 451.953 658.233 450.395 658.063Z" fill="#3599A6"/>
<path d="M326.174 982.213C331.672 982.605 334.567 982.811 338.123 983.064C337.924 985.806 337.729 988.529 337.444 992.285C334.274 992.059 331.022 992.807 329.327 991.428C327.648 990.07 327.524 986.585 326.174 982.213Z" fill="#3599A6"/>
<path d="M669.702 361.528C672.242 371.898 668.306 374.287 663.292 374.792C662.172 374.908 659.813 370.264 660.045 370.025C662.733 367.233 665.782 364.84 669.702 361.528Z" fill="#3599A6"/>
<path d="M394.986 745.485C393.381 742.987 390.193 740.296 390.597 738.02C390.999 735.764 394.992 733.922 397.4 731.908C398 732.615 398.582 733.321 399.185 734.009C398.762 737.065 398.337 740.14 397.915 743.196C396.929 743.984 395.949 744.734 394.986 745.485Z" fill="#3599A6"/>
<path d="M222.548 1042.62C227.591 1042.98 229.84 1043.14 232.888 1043.35C232.472 1046.33 232.657 1049.33 231.494 1051.62C230.812 1052.95 226.477 1054.09 226.306 1053.74C224.932 1050.85 224.121 1047.61 222.548 1042.62Z" fill="#3599A6"/>
<path d="M535.746 1029.89C534.593 1026.13 533.437 1022.38 532.302 1018.62C534.434 1017.93 536.581 1017.26 538.713 1016.57C539.154 1020.54 539.594 1024.51 540.031 1028.5C538.617 1028.94 537.18 1029.43 535.746 1029.89Z" fill="#3599A6"/>
<path d="M288.589 806.398C286.973 803.067 284.752 800.66 285.296 799.12C285.959 797.254 289.416 794.599 290.746 795.01C292.742 795.626 293.95 798.612 295.502 800.577C293.637 802.161 291.775 803.725 288.589 806.398Z" fill="#3599A6"/>
<path d="M416.225 1208.61C416.21 1205.47 416.192 1202.35 416.176 1199.21C418.439 1199.32 420.682 1199.44 422.945 1199.54C422.51 1202.67 422.075 1205.79 421.64 1208.92C419.848 1208.81 418.035 1208.72 416.225 1208.61Z" fill="#3599A6"/>
<path d="M731.108 1011.98C732.263 1016.44 733.879 1019.11 733.201 1021.04C732.521 1022.98 729.601 1024.18 727.653 1025.72C726.811 1023.39 725.203 1021.05 725.418 1018.72C725.562 1017.03 728.116 1015.38 731.108 1011.98Z" fill="#3599A6"/>
<path d="M500.672 1186.31C496.155 1189 493.724 1191.52 491.886 1191.25C489.904 1190.95 488.493 1188.02 486.829 1186.23C488.623 1184.69 490.448 1181.99 492.186 1181.92C494.318 1181.81 496.345 1183.92 500.672 1186.31Z" fill="#3599A6"/>
<path d="M599.746 1285.83C594.583 1287.68 591.839 1289.63 589.952 1289.03C588.189 1288.49 587.34 1285.25 586.085 1283.19C588.108 1282.01 590.318 1279.76 592.092 1279.96C594.123 1280.19 595.773 1282.62 599.746 1285.83Z" fill="#3599A6"/>
<path d="M610.429 617.703C606.728 619.907 604.393 622.228 603.261 621.749C601.451 620.984 599.631 618.567 599.37 616.479C599.235 615.336 602.472 612.105 603.817 612.24C605.711 612.415 607.214 614.849 610.429 617.703Z" fill="#3599A6"/>
<path d="M971.366 853.929C968.216 853.323 965.063 852.736 961.913 852.13C962.535 850.204 963.393 846.586 963.724 846.609C966.814 846.85 969.799 847.706 972.825 848.404C972.327 850.238 971.848 852.074 971.366 853.929Z" fill="#3599A6"/>
<path d="M653.288 479.203C656.275 482.916 657.732 484.711 659.558 486.985C656.888 489.075 654.751 491.242 652.262 492.421C651.427 492.814 648.433 490.32 648.609 489.703C649.506 486.66 651.141 483.788 653.288 479.203Z" fill="#3599A6"/>
</g>
<defs>
<clipPath id="clip0_15_2175">
<rect width="1189" height="1314" fill="white"/>
</clipPath>
</defs>
</svg>
