<svg width="1796" height="236" viewBox="0 0 1796 236" fill="none" xmlns="http://www.w3.org/2000/svg">
<path d="M576.16 35.2524C577.388 36.3048 577.703 55.7384 576.861 56.6154C577.037 58.7903 577.317 60.6495 577.282 62.5087C577.247 64.438 576.861 66.3673 576.721 68.3317C576.616 69.5946 576.616 70.8574 576.651 72.1203C576.756 75.6632 576.932 79.1711 577.037 82.7141C577.107 85.6256 577.177 88.5371 577.177 91.4838C577.177 92.8869 576.967 94.3252 576.896 95.7283C576.861 96.3948 577.037 97.0613 577.037 97.6927C577.002 101.446 576.967 105.165 576.932 108.918C576.932 110.637 577.002 112.356 576.967 114.075C576.931 116.425 576.826 118.81 576.826 121.16C576.826 124.212 576.931 127.229 576.896 130.281C576.861 134.175 576.721 138.068 576.686 141.962C576.651 150.872 576.686 159.817 576.651 168.727C576.616 173.989 576.37 179.286 576.405 184.548C576.44 190.196 576.791 195.843 576.896 201.491C576.931 203.631 576.721 205.771 576.581 207.875C576.44 209.594 576.756 209.875 578.44 209.91C582.018 210.015 585.631 210.191 589.209 210.401C589.63 210.436 590.051 210.752 590.507 210.962C591.524 209.524 593.769 210.12 595.208 212.365C593.559 213.277 593.91 215.031 594.401 215.979C595.488 217.978 594.681 220.013 595.208 221.977C595.278 222.258 594.787 222.679 594.716 222.749C594.962 223.38 595.313 223.906 595.313 224.433C595.383 227.204 595.418 229.975 595.383 232.746C595.383 233.518 595.032 234.29 594.892 234.956C580.299 234.956 565.847 234.956 551.219 234.956C551.219 231.133 551.254 227.66 551.219 224.152C551.184 218.715 551.078 213.242 551.078 207.805C551.078 204.648 551.184 201.491 551.184 198.369C551.184 194.23 551.149 190.09 551.184 185.951C551.184 182.619 551.219 179.286 551.254 175.954C551.289 168.938 551.324 161.922 551.394 154.906C551.464 145.716 551.429 136.49 551.815 127.299C551.885 125.195 551.464 123.125 551.675 121.055C551.92 118.88 551.955 116.67 551.955 114.46C551.955 108.848 551.85 103.235 551.85 97.5875C551.85 92.4309 551.99 87.2743 552.061 82.1528C552.131 75.9438 552.201 69.7349 552.271 63.5259C552.306 61.4563 552.376 59.4217 552.482 57.3521C552.517 56.861 552.832 56.4049 552.727 55.984C552.727 55.0369 552.762 54.1248 552.727 53.1777C552.692 52.5112 552.482 51.8447 552.482 51.1782C552.622 47.3195 552.832 43.4609 552.902 39.6373C552.938 36.9362 552.727 34.2351 552.727 31.534C552.727 29.9204 552.902 28.3068 553.008 26.6932C553.218 26.6932 553.394 26.6581 553.604 26.6581C553.744 27.1492 553.885 27.6754 554.06 28.3068C554.902 28.3068 555.814 28.3068 556.691 28.3068C556.726 28.2366 556.726 28.1314 556.761 28.0612C556.165 27.8157 555.568 27.5351 554.867 27.2194C554.972 26.7633 555.077 26.2371 555.253 25.5005C555.919 25.8162 556.586 26.1319 557.287 26.4476C558.094 25.5706 559.006 25.2549 560.199 26.2371C560.76 26.6932 561.497 27.2194 562.479 26.3073C563.286 25.5356 564.97 26.7282 565.496 28.1665C565.671 27.7105 565.847 27.2544 565.987 26.9387C568.933 27.1843 572.02 27.4298 575.107 27.7806C575.984 27.8858 576.686 28.2366 576.756 29.5696C576.721 31.5691 577.563 33.4985 576.16 35.2524ZM573.95 94.9917C573.494 92.466 573.108 92.1853 571.74 93.3079C572.406 93.799 573.073 94.2901 573.95 94.9917Z" fill="#3599A6"/>
<path d="M1005.59 226.647C1006.72 232.505 1009.49 234.82 1015.42 234.82C1020.78 234.82 1026.19 234.224 1031.55 233.838C1033.73 233.698 1035.97 232.47 1037.83 234.68C1038.11 234.996 1039.13 235.101 1039.48 234.82C1044.88 230.751 1050.81 234.014 1056.46 233.663C1062.39 233.312 1068.39 233.628 1074.35 233.452C1077.89 233.347 1079.4 230.962 1079.33 227.699C1079.19 222.332 1078.56 216.965 1078.59 211.598C1078.59 207.213 1079.01 202.793 1079.75 198.479C1080 197.076 1081.82 195.006 1083.12 194.831C1093.5 193.498 1103.96 192.515 1114.34 191.463C1114.34 197.742 1115.08 203.249 1114.16 208.476C1114.87 208.371 1115.6 208.301 1116.34 208.301C1117.39 208.301 1118.41 208.406 1119.39 208.581C1119.32 207.81 1119.18 207.003 1118.83 206.161C1117.25 202.022 1117.64 197.146 1117.11 192.024C1125.32 192.024 1134.09 191.989 1142.82 192.024C1146.23 192.024 1148.65 190.832 1148.89 188.13C1153.52 185.78 1157.45 183.535 1161.56 181.711C1167.31 179.15 1171.13 174.52 1174.89 169.784C1175.69 168.767 1176.85 168.03 1177.87 167.223C1180.74 164.908 1182.95 162.383 1183.94 158.454C1184.92 154.56 1187.09 150.842 1189.27 147.334C1193.65 140.318 1194.39 132.18 1195.41 124.497C1196.77 114.114 1196.49 103.45 1196.18 92.9265C1196.04 88.2611 1194.11 83.6657 1193.02 79.0002C1192.67 77.4919 1192.32 75.9484 1192.21 74.4049C1191.79 69.0028 1189.72 64.4074 1187.02 59.7069C1182.64 52.1299 1179.13 44.0968 1174.96 35.6428C1170.78 36.6952 1169.27 31.3281 1165.62 29.4689C1160.71 26.9432 1157.45 21.7516 1151.35 20.8746C1149.7 20.6291 1148.33 18.4542 1146.68 17.0861C1146.58 17.2615 1146.26 17.8578 1145.66 18.8751C1145.31 17.5772 1144.79 16.7353 1144.16 16.174C1133.18 15.8934 1122.2 15.7531 1111.29 14.7358C1110.97 14.7007 1110.69 14.6657 1110.41 14.5955C1101.18 14.806 1092.27 15.0164 1083.4 15.2269C1082.73 15.2269 1081.93 15.0866 1081.4 14.7358C1078.21 12.3505 1074.03 12.2803 1071.72 14.1044C1069.09 13.8588 1067.02 13.1222 1065.33 13.6484C1054.85 16.8055 1044.32 14.9814 1033.8 14.1395C1029.48 13.7887 1025.2 13.3677 1020.89 13.1573C1019.8 13.1222 1018.71 13.929 1017.59 14.1395C1016.5 14.35 1014.96 14.7709 1014.33 14.2447C1011.77 12.0347 1010.3 13.7887 1009.7 15.718C1008.37 20.0327 1006.72 24.5228 1006.68 28.9427C1006.54 51.1827 1006.96 73.4578 1007.1 95.7328C1007.21 111.974 1007.28 128.251 1007.17 144.492C1007.14 150.28 1007.1 156.244 1005.88 161.821C1005.14 165.084 1005.38 167.574 1006.26 170.626C1007 173.292 1006.26 176.414 1005.98 179.291C1005.74 181.957 1003.7 184.482 1006.72 187.218C1007.77 188.201 1007.03 191.323 1006.86 193.427C1006.3 199.882 1005.63 206.301 1005 212.721C1004.96 212.966 1004.89 213.247 1005 213.422C1006.72 217.807 1004.75 222.332 1005.59 226.647ZM1105.39 81.4207C1108.69 81.7013 1111.78 84.5427 1114.9 86.2966C1115.32 86.5422 1115.6 87.3841 1115.57 87.9103C1115.29 91.1726 1114.87 94.4349 1114.62 97.6973C1114.55 98.5742 1114.9 99.4863 1114.97 100.363C1115.18 102.854 1115.43 105.38 1115.43 107.905C1115.43 108.396 1114.34 109.238 1113.71 109.273C1102.9 110.22 1092.06 111.097 1081.33 111.974C1080.87 101.135 1080.45 91.3129 1080 81.2102C1089.19 81.2102 1097.33 80.7191 1105.39 81.4207ZM1080.66 41.7114C1081.12 44.5177 1081.44 46.3769 1081.86 48.8324C1078 47.1487 1077.89 46.4822 1080.66 41.7114ZM1060.14 187.99C1061.3 187.71 1062.46 187.429 1063.9 187.078C1064.91 189.288 1066.67 191.568 1062.21 192.55C1066.42 197.672 1065.54 204.302 1059.48 211.493C1061.09 200.057 1057.93 188.972 1057.3 176.66C1060.07 179.501 1062.35 181.816 1064.88 184.412C1062.56 185.535 1061.16 186.236 1059.72 186.903C1059.86 187.218 1060 187.604 1060.14 187.99ZM1055.58 173.924C1056.67 172.345 1057.76 170.696 1059.37 168.276C1060.6 170.381 1061.51 171.924 1062.7 173.924H1055.58ZM1058.6 155.156C1059.2 156.454 1059.9 157.717 1060.28 159.085C1060.49 159.752 1060.21 160.664 1059.86 161.33C1059.72 161.576 1058.56 161.716 1058.39 161.506C1057.86 160.839 1057.3 159.962 1057.27 159.155C1057.23 157.893 1057.62 156.63 1057.83 155.367C1058.11 155.297 1058.35 155.227 1058.6 155.156ZM1053.9 92.0846C1055.51 93.6983 1057.06 94.5402 1057.27 95.6627C1057.58 97.2763 1057.06 99.1004 1056.63 100.784C1056.56 101.065 1055.02 101.345 1054.42 101.03C1053.86 100.749 1053.34 99.7669 1053.34 99.1004C1053.3 97.2412 1053.58 95.3821 1053.9 92.0846ZM1050.25 109.414C1050.74 108.677 1053.2 109.308 1054.74 109.308C1055.06 109.799 1055.37 110.291 1055.69 110.782C1054.11 113.377 1052.57 116.008 1050.57 119.341C1048.95 115.377 1048.36 112.22 1050.25 109.414ZM1049.76 123.48C1050 123.585 1050.22 123.691 1050.46 123.761C1051.2 128.917 1051.93 134.109 1052.67 139.266C1052.46 139.476 1052.25 139.722 1052.04 139.932C1050.22 137.792 1048.36 135.653 1046.78 133.828C1047.79 130.215 1048.78 126.848 1049.76 123.48ZM1024.12 42.9743C1024.89 42.0622 1025.06 40.624 1025.48 39.4313C1025.87 38.3088 1026.22 37.1863 1026.57 36.0637C1027.17 36.2742 1027.76 36.5198 1028.36 36.7302C1026.92 39.8172 1025.52 42.9041 1023.94 46.2717C1024.26 46.7628 1024.85 47.7099 1025.84 49.2885C1022.22 46.5874 1022.08 45.4298 1024.12 42.9743Z" fill="#3599A6"/>
<path d="M1273 165.992C1272.97 162.589 1271.67 159.151 1270.93 155.784C1265.14 156.871 1264.93 160.098 1264.97 163.747C1265.04 176.971 1265.39 190.231 1264.79 203.456C1264.51 209.77 1262.79 216.154 1260.83 222.223C1260.16 224.328 1256.69 226.853 1254.58 226.748C1252.51 226.643 1249.22 223.661 1248.94 221.592C1247.95 214.471 1247.85 207.209 1247.74 200.018C1247.64 192.231 1247.85 184.443 1248.06 176.656C1248.48 161.642 1247.92 146.663 1247.99 131.649C1248.02 123.581 1247.99 115.513 1247.99 107.41C1249.08 107.55 1249.99 107.691 1250.97 107.796C1250.9 107.094 1250.94 106.743 1250.8 106.498C1250.09 104.919 1248.97 103.446 1248.69 101.832C1248.2 98.8858 1248.8 95.6586 1247.95 92.8523C1245.78 85.8014 1250.83 81.1359 1254.48 77.7333C1258.76 73.7694 1258.02 71.2788 1256.13 68.0515C1253.67 68.5426 1251.32 68.9987 1249.18 69.3845C1247.22 64.0175 1248.94 60.9656 1253.32 59.4923C1252.69 58.1242 1252.37 56.5807 1252.44 55.0724C1251.81 54.8268 1251.22 54.476 1250.83 54.0902C1250.16 53.4587 1250.87 51.4592 1250.94 50.1964C1250.23 48.8985 1248.83 47.4252 1248.76 45.9519C1248.55 37.7785 1248.38 29.57 1248.83 21.3967C1248.97 19.1516 1250.73 16.3103 1252.62 15.0123C1255.32 13.1181 1256.72 10.873 1255.36 8.31228C1254.62 6.90913 1251.67 6.10231 1249.67 6.03215C1243.92 5.75152 1238.13 5.85676 1232.38 6.13739C1230.98 6.20755 1228.56 7.40023 1228.52 8.20704C1228.42 10.1364 1228.84 13.1882 1230.1 13.8898C1234.66 16.3804 1235.29 20.4145 1235.36 24.6941C1235.5 33.1832 1235.15 41.6722 1235.43 50.1613C1235.54 53.7394 1233.71 54.6163 1231.15 54.8268C1231.22 56.0195 1231.12 57.2122 1230.77 58.3347C1232.24 58.2996 1233.68 58.2295 1235.15 58.1944C1235.15 66.052 1235.15 72.7872 1235.15 79.5223C1235.15 94.536 1235.15 109.585 1235.15 124.599C1235.15 138.665 1235.22 152.697 1235.12 166.763C1235.12 168.202 1234.1 169.64 1233.4 171.464C1236.45 174.305 1236.34 188.372 1232.27 194.125C1233.33 194.09 1234.2 194.02 1235.4 193.985C1233.08 204.508 1237.11 215.453 1233.19 225.661C1232.59 225.485 1232.03 225.345 1231.43 225.17C1231.99 224.082 1232.55 223.03 1233.33 221.521C1230.66 222.013 1228.1 222.469 1224.35 223.135C1226.77 224.433 1228.17 225.17 1229.57 225.941C1229.15 227.415 1228.63 228.853 1228.35 230.361C1227.78 233.553 1228.31 235.272 1232.48 235.132C1244.31 234.781 1256.13 234.851 1267.95 235.027C1271.98 235.097 1273.04 233.799 1273 229.73C1272.79 208.367 1273.11 187.179 1273 165.992Z" fill="#3599A6"/>
<path d="M1456.85 118.917C1453.52 121.583 1449.94 119.479 1446.57 119.163C1445.17 119.022 1443.94 116.953 1442.5 115.69C1442.47 115.725 1442.05 116.321 1441.41 117.198C1441.13 116.181 1439.45 115.409 1441.84 114.988C1442.33 114.883 1442.57 112.919 1442.75 111.796C1443.03 109.762 1443.77 107.657 1442.36 106.359C1442.36 104.816 1442.43 103.693 1442.33 102.571C1442.26 101.518 1441.84 100.466 1441.87 99.4485C1441.98 96.6773 1442.5 93.906 1442.47 91.1348C1442.43 87.1358 1442.01 83.1368 1441.8 79.1378C1441.63 76.1211 1441.59 73.1744 1442.82 70.2629C1443.24 69.2807 1442.29 67.7723 1442.12 66.4744C1441.94 65.1414 1441.73 63.7733 1441.94 62.4754C1442.19 60.9319 1442.89 59.4586 1443.41 57.7748C1442.43 57.9502 1442.01 58.0555 1441.24 58.1958C1441.49 57.6345 1441.56 57.3539 1441.73 57.1083C1443.03 55.2492 1442.57 55.3895 1442.01 53.1795C1441.49 51.1449 1441.87 48.7596 1442.36 46.6198C1442.68 45.2517 1443.27 44.3046 1442.19 42.9365C1441.56 42.1297 1441.63 40.6564 1441.59 39.4988C1441.56 34.8684 1441.7 30.273 1441.63 25.6426C1441.63 25.0112 1441.03 24.4149 1440.5 23.3625C1441.98 19.8195 1441.63 14.9787 1444.15 11.1551C1444.4 11.2252 1444.64 11.2954 1444.85 11.4006C1444.75 11.7163 1444.71 12.0671 1444.57 12.3477C1444.4 12.6985 1444.19 12.9792 1443.59 13.8912C1447.13 12.8038 1450.47 14.6279 1453.2 12.6985C1454.25 12.9792 1455.27 13.4703 1456.32 13.5054C1461.97 13.6457 1467.62 13.7509 1473.27 13.7509C1478.91 13.786 1484.6 13.5755 1490.24 13.6807C1495.33 13.786 1500.38 14.2771 1505.47 14.4525C1507.43 14.5226 1508.17 13.365 1507.85 12.3477C1509.78 10.2781 1511.54 8.454 1513.4 6.48958C1512.55 4.66548 1516.66 2.59583 1513.96 0C1514.98 0.561261 1515.96 1.12252 1517.5 1.96441C1516.1 4.38485 1515.12 7.43671 1513.05 9.01526C1511.85 9.92731 1511.22 11.1551 1510.13 12.0671C1509.61 12.5231 1509.43 13.365 1509.15 13.8912C1514.27 13.8912 1519.22 13.9965 1524.17 13.8211C1525.92 13.7509 1527.99 14.4876 1529.39 12.2074C1529.85 11.4357 1531.78 11.576 1533.22 11.6813C1532.65 12.1373 1532.13 12.5933 1531.5 13.0844C1544.62 13.0844 1557.56 13.0493 1570.54 13.0844C1583.59 13.1195 1596.64 13.0142 1609.65 13.4703C1616.49 13.7158 1646.63 13.4352 1647.36 12.5933C1648.13 12.909 1648.84 13.4001 1649.5 13.4001C1656.8 13.4352 1664.1 13.4352 1671.39 13.4001C1672.41 13.4001 1673.43 13.2247 1674.44 13.2598C1675.57 13.33 1676.97 13.1896 1677.71 13.8211C1680.44 16.1713 1682.76 18.9075 1683.18 22.9416C1682.55 22.9766 1681.92 23.0117 1680.55 23.117C1683.67 24.3798 1683.21 26.6248 1683.21 28.6945C1683.18 41.6035 1683.25 54.5125 1683.04 67.4215C1682.97 71.3503 1682.41 75.3493 1681.63 79.2431C1680.37 85.452 1680.41 91.5558 1681.85 97.7647C1683.25 103.798 1682.2 109.902 1681.14 115.9C1680.97 116.848 1679.71 118.005 1678.69 118.356C1676.37 119.128 1673.88 119.443 1671.29 120.005C1671.25 120.496 1671.22 121.197 1671.15 122.215C1668.48 119.759 1665.71 120.917 1662.87 121.197C1659.61 121.513 1656.31 121.338 1653.05 121.232C1649.4 121.127 1645.71 121.057 1642.1 120.706C1640.77 120.566 1639.54 119.584 1638.14 118.917C1638.03 119.373 1637.86 120.04 1637.58 121.092C1636.56 120.741 1635.58 120.426 1634.28 120.005C1634.28 120.005 1634 120.391 1633.58 120.917C1633.02 120.215 1632.56 119.689 1631.72 118.637C1631.51 119.338 1631.33 119.97 1631.09 120.776C1630 119.022 1630.91 116.883 1628.1 116.567C1628.63 117.689 1628.95 118.461 1629.58 119.864C1626.46 119.408 1623.68 118.987 1620.7 118.531C1620.74 118.146 1620.77 117.619 1620.81 117.023C1618.98 117.725 1618.81 116.251 1618.46 115.164C1616.42 108.92 1616.42 102.465 1616.74 96.0108C1616.91 92.3626 1617.44 88.7144 1617.27 85.1012C1617.12 82.0143 1616.42 78.8923 1615.62 75.9106C1614.98 73.5954 1611.37 73.1043 1609.27 74.753C1607.3 76.2614 1606.81 78.4714 1606.36 80.7164C1604.29 90.4683 1604.64 100.361 1604.67 110.218C1604.67 112.077 1604.53 113.936 1604.43 115.9C1603.65 116.076 1602.95 116.216 1602.64 116.286C1603.2 117.128 1604.01 117.935 1604.22 118.847C1604.5 119.97 1604.29 121.197 1604.29 122.25C1603.48 122.53 1602.78 122.776 1602.08 123.021C1602.71 123.548 1603.37 124.109 1604.5 125.021C1603.48 125.091 1602.92 125.126 1601.9 125.161C1601.58 130.493 1601.27 136.071 1600.92 141.648C1601.62 141.648 1602.15 141.648 1603.23 141.648C1599.94 144.49 1601.23 147.857 1601.23 150.874C1601.23 158.1 1601.62 165.327 1601.87 172.553C1601.87 172.868 1601.87 173.149 1601.87 173.816C1606.18 173.816 1610.35 173.781 1614.53 173.816C1620.53 173.886 1626.53 173.851 1632.52 174.201C1634.56 174.307 1636.56 175.429 1638.52 176.236C1638.87 176.376 1638.87 177.394 1639.19 178.516C1638.42 177.78 1638 177.394 1637.26 176.692C1637.05 180.831 1636.77 184.62 1636.66 188.443C1636.52 193.355 1636.66 198.301 1636.35 203.212C1636.17 205.878 1634.91 208.368 1635.33 211.28C1635.86 214.893 1635.75 218.611 1635.75 222.259C1635.75 224.399 1635.44 226.539 1635.3 228.679C1635.23 229.872 1635.3 231.029 1635.3 232.432C1634.03 232.432 1632.49 232.432 1630.98 232.432C1630.98 232.538 1630.98 232.643 1630.98 232.748C1632.07 232.818 1633.19 232.923 1634.28 232.994C1634.28 233.274 1634.28 233.52 1634.28 233.8C1624.53 234.327 1614.7 233.415 1604.92 234.888C1602.64 234.712 1600.18 234.362 1597.69 234.362C1592.18 234.362 1586.64 234.256 1581.17 234.712C1576.29 235.098 1571.49 234.116 1566.65 234.432C1561.49 234.783 1556.26 234.572 1551.07 234.607C1545.49 234.677 1539.88 234.748 1534.3 234.853C1523.85 235.098 1513.43 234.783 1502.98 234.993C1500.1 235.063 1497.26 235.098 1494.38 234.923C1493.09 234.853 1491.75 234.292 1490.53 233.8C1490.28 233.695 1490.1 232.748 1490.24 232.362C1490.84 230.784 1490.07 230.047 1488.84 229.205C1488.21 228.784 1487.58 227.767 1487.58 227.03C1487.58 221.874 1487.79 216.682 1487.86 211.525C1487.93 207.561 1487.86 203.633 1487.86 199.353C1488.32 200.511 1488.67 201.458 1489.05 202.405C1489.44 201.212 1489.89 200.055 1490.17 198.862C1490.24 198.476 1489.93 197.669 1489.68 197.634C1486.25 197.003 1488.03 193.986 1487.33 192.162C1486.74 190.618 1487.26 188.619 1487.33 186.83C1487.37 186.058 1487.47 185.321 1487.58 184.409C1485.89 183.322 1485.93 179.533 1487.93 176.482C1488.39 176.797 1488.88 177.113 1489.33 177.464C1489.44 177.394 1489.54 177.323 1489.65 177.253C1489.44 176.797 1489.19 176.376 1489.09 176.131C1489.86 175.254 1490.49 174.307 1491.37 173.675C1492.03 173.219 1493.02 173.044 1493.86 173.044C1500.73 173.044 1507.61 173.079 1514.48 173.114C1515.36 173.114 1516.24 173.114 1517.36 173.114C1517.26 164.871 1517.15 156.873 1517.12 148.875C1517.08 140.421 1517.12 131.967 1517.15 123.513C1517.19 114.673 1517.19 105.833 1517.43 96.993C1517.54 92.5029 1518.34 88.0479 1518.48 83.5578C1518.59 80.085 1518.2 76.542 1517.89 73.0692C1517.75 71.4205 1516.55 71.21 1515.05 71.3503C1511.43 71.7011 1508.66 73.1394 1507.92 76.9279C1507.68 78.1556 1508.03 79.8745 1508.8 80.8918C1510.38 82.9965 1510.2 85.2766 1510.03 87.5568C1509.75 91.3453 1509.78 95.239 1508.73 98.8171C1507.4 103.447 1508.49 107.938 1508.24 112.498C1508.1 114.743 1508.42 116.988 1508.56 119.935C1507.4 118.952 1506.91 118.496 1506.24 117.9C1505.57 119.198 1504.98 120.391 1504.31 121.653C1501.33 120.601 1497.65 122.601 1495.09 120.18C1493.61 120.426 1491.93 121.197 1490.53 120.847C1486.53 119.829 1482.46 120.32 1478.46 119.899C1472.04 119.198 1465.69 120.952 1459.27 120.391C1458.32 120.32 1457.34 120.18 1456.36 120.075C1456.46 119.619 1456.57 119.233 1456.64 118.847C1458.25 118.356 1458.71 116.427 1457.69 114.111C1455.97 115.936 1454.46 115.55 1453.03 112.673C1453.03 114.427 1453.03 115.269 1453.03 116.006C1453.94 116.076 1454.71 116.146 1455.52 116.216C1455.2 117.093 1454.99 117.654 1454.96 117.725C1455.8 118.216 1456.32 118.566 1456.85 118.917ZM1481.79 16.4169C1479.69 16.5923 1477.93 16.7326 1475.72 16.908C1476.42 17.9954 1477.2 19.2232 1477.97 20.451C1478.95 19.9248 1479.69 19.5389 1480.46 19.153C1480.14 18.7672 1479.9 18.4865 1479.44 17.8902C1480.6 18.2761 1481.3 18.4865 1482.07 18.7321C1481.97 17.82 1481.86 17.0834 1481.79 16.4169ZM1596.78 16.1363C1596.71 18.9426 1597.45 18.697 1601.73 18.5567C1602.57 15.1541 1601.73 15.8206 1596.78 16.1363ZM1643.71 79.8745C1645.61 79.7693 1647.26 79.6991 1648.94 79.629C1648.87 77.5593 1647.78 76.998 1646.21 77.0682C1644.56 77.1033 1643.89 78.1206 1643.71 79.8745ZM1638.8 86.7149C1638.42 87.662 1637.89 88.9248 1637.19 90.6086C1638.94 90.0474 1639.86 89.7317 1640.8 89.4861C1641.68 89.2756 1642.59 89.1353 1643.82 88.9248C1641.93 88.083 1640.56 87.4866 1638.8 86.7149ZM1646.7 82.6457C1646.7 84.4698 1646.7 86.2238 1646.7 88.2233C1649.15 85.9081 1649.12 84.2594 1646.7 82.6457ZM1575.84 34.7631C1579.1 35.4647 1579.87 35.149 1580.36 32.8338C1578.43 32.5181 1576.54 32.0971 1575.84 34.7631ZM1624.95 33.4301C1624.84 33.1495 1624.74 32.8338 1624.63 32.5532C1623.3 32.6935 1621.93 32.7636 1620.63 33.0793C1620.18 33.1846 1619.83 33.8511 1619.44 34.2369C1619.97 34.5527 1620.56 35.1841 1620.95 35.0788C1622.32 34.6579 1623.61 33.9914 1624.95 33.4301ZM1593.94 26.695C1597.73 26.3442 1598.39 25.2217 1596.88 22.5206C1595.87 23.9588 1594.92 25.3269 1593.94 26.695ZM1488.49 16.3818C1488.28 16.1363 1488.07 15.9258 1487.86 15.6802C1486.88 15.9959 1485.93 16.3117 1484.95 16.6274C1484.95 16.908 1484.95 17.1886 1484.95 17.4693C1485.72 17.8902 1486.53 18.2761 1487.3 18.697C1487.72 17.9253 1488.1 17.1535 1488.49 16.3818ZM1487.47 65.7377C1487.93 64.2995 1488.18 63.4576 1488.49 62.5105C1487.54 62.4403 1486.63 62.3702 1485.68 62.3C1485.54 62.5105 1485.4 62.721 1485.26 62.8963C1485.93 63.7382 1486.6 64.5801 1487.47 65.7377ZM1487.09 49.1454C1486.77 49.4261 1486.46 49.7067 1486.11 49.9873C1486.63 50.6889 1487.16 51.4256 1487.72 52.1271C1488.14 51.6711 1488.56 51.2151 1488.98 50.7591C1488.35 50.2329 1487.72 49.6716 1487.09 49.1454ZM1501.12 232.888C1501.12 232.713 1501.15 232.573 1501.15 232.397C1497.75 232.397 1494.38 232.397 1490.98 232.397C1490.98 232.573 1490.98 232.713 1490.98 232.888C1494.38 232.888 1497.75 232.888 1501.12 232.888ZM1529.39 17.5745C1529.5 17.8551 1529.64 18.1358 1529.74 18.4164C1531.01 17.8551 1532.27 17.2588 1533.99 16.5221C1533.39 16.1012 1532.73 15.3996 1532.48 15.5399C1531.39 16.0661 1530.41 16.8378 1529.39 17.5745ZM1481.9 51.8114C1481.3 50.6538 1480.81 49.7067 1480.11 48.3036C1478.81 51.4606 1478.98 51.7764 1481.9 51.8114ZM1621.51 63.0016C1618.25 63.2121 1617.58 63.8786 1617.83 65.7377C1618.07 65.9833 1618.32 66.2288 1618.53 66.4393C1619.4 65.4571 1620.25 64.4749 1621.51 63.0016ZM1554.61 15.9609C1554.37 18.7672 1554.65 19.0127 1556.58 18.4865C1556.58 17.6797 1556.58 16.9431 1556.58 16.1012C1555.95 16.031 1555.28 15.9959 1554.61 15.9609Z" fill="#3599A6"/>
<path d="M265.782 232.818C255.645 231.941 245.752 231.801 236.106 230.082C222.53 227.697 211.901 220.26 206.429 207.246C203.167 199.528 199.939 191.46 198.747 183.287C196.958 170.904 196.852 158.276 196.151 145.753C195.73 138.316 195.274 130.844 195.379 123.407C195.484 114.427 196.747 105.447 196.431 96.537C196.116 87.1709 196.642 77.9803 198.115 68.7896C198.291 67.632 197.554 66.299 197.449 65.9132C198.431 64.1241 199.518 62.7911 199.869 61.2828C202.956 48.2334 209.446 37.4642 220.18 29.2558C226.178 24.6605 233.054 22.4154 240.385 21.363C260.906 18.3463 281.533 20.3107 302.089 19.8897C321.733 19.5039 341.377 19.8196 360.986 19.9599C371.229 20.0301 381.542 19.7143 391.68 20.8719C402.87 22.1348 410.693 29.361 416.095 38.9025C425.742 55.8806 428.057 74.6127 428.478 93.6956C428.759 106.149 428.583 118.602 428.653 131.055C428.724 145.682 429.741 160.345 428.723 174.903C427.531 192.337 421.111 208.228 407.185 219.488C400.66 224.785 393.048 228.749 383.858 229.766C378.631 230.363 373.404 232.082 368.002 231.836C350.813 230.994 333.66 232.678 316.506 232.713C302.545 232.713 288.619 232.292 274.657 232.047C272.973 232.011 271.255 232.117 269.571 232.222C269.08 232.257 268.448 232.467 268.203 232.818C267.747 233.45 267.501 234.292 267.185 235.028C266.624 234.081 265.993 233.169 265.782 232.818ZM300.896 140.877C300.861 140.877 300.861 140.877 300.826 140.877C300.826 141.929 300.826 142.946 300.826 143.999C300.861 152.277 300.651 160.591 301.037 168.87C301.317 175.429 307.877 180.586 314.858 180.41C320.821 180.27 324.925 175.675 325.066 168.624C325.276 157.785 325.311 146.91 325.381 136.071C325.416 130.669 325.872 125.161 325.136 119.864C324.399 114.673 326.118 109.727 324.96 104.395C323.733 98.9223 324.364 92.9589 324.574 87.2411C324.75 82.3651 324.785 77.84 320.225 74.5776C312.893 69.3509 307.421 69.5964 302.896 76.8928C301.493 79.173 300.826 82.2599 300.791 84.996C300.616 95.8705 300.861 106.745 300.896 117.619C300.896 125.337 300.896 133.124 300.896 140.877ZM372.106 187.426C373.404 188.479 374.141 189.566 374.913 189.601C376.14 189.671 377.473 189.145 378.666 188.584C378.912 188.479 378.666 187.251 378.666 186.549C377.684 186.584 376.667 186.549 375.684 186.654C374.702 186.795 373.79 187.075 372.106 187.426Z" fill="#3599A6"/>
<path d="M490.391 231.382C490.215 232.68 490.11 233.487 489.9 234.996C488.742 234.119 487.725 233.698 487.234 232.926C485.936 230.891 485.164 231.067 484.252 233.207C483.971 233.873 482.884 234.715 482.253 234.68C476.009 234.119 469.729 233.557 463.521 232.68C460.819 232.295 457.136 226.401 457.171 223.56C457.347 211.703 457.557 199.847 457.522 187.99C457.452 176.695 457.592 165.399 457.557 154.104C457.452 118.92 457.382 83.7357 457.382 48.5516C457.382 46.6223 457.347 44.3421 458.364 42.9039C460.399 39.9222 459.907 37.0107 459.381 33.9237C457.978 25.2242 459.907 22.5582 468.888 22.2425C478.569 21.8917 488.286 22.032 497.968 22.032C503.3 22.032 508.632 22.1372 513.999 22.2425C514.771 22.2425 515.542 22.3126 516.279 22.4529C522.593 23.5755 523.26 24.4173 523.19 30.8017C523.155 34.7305 523.26 38.6243 523.225 42.5531C523.225 45.8505 523.751 49.1479 521.295 52.1296C520.348 53.2872 520.313 55.427 520.313 57.1459C520.383 83.8409 520.383 110.536 520.664 137.231C520.804 151.157 521.401 165.083 521.892 179.01C522.067 183.57 522.734 188.095 522.909 192.655C523.014 195.777 522.628 198.899 522.383 202.021C521.962 208.301 521.506 214.545 521.05 220.824C520.98 221.595 520.98 222.367 520.839 223.104C519.226 231.698 516.84 233.663 506.948 234.399C505.089 234.54 503.23 234.504 501.406 234.575C498.599 234.715 495.793 235.101 493.583 232.54C492.952 231.803 491.724 231.803 490.391 231.382ZM466.327 77.8424C466.151 92.6808 465.836 107.554 468.712 122.217C469.133 107.344 468.923 92.5054 466.327 77.8424ZM462.854 131.408C463.135 131.303 463.45 131.162 463.731 131.057C464.503 126.777 464.012 125.795 459.381 123.761C460.749 126.742 461.802 129.058 462.854 131.408ZM479.516 141.686C479.166 141.861 478.85 142.002 478.499 142.177C478.499 143.861 478.499 145.545 478.499 148.211C480.008 147.228 481.761 146.386 481.691 146.071C481.2 144.527 480.288 143.124 479.516 141.686ZM461.24 151.894C463.064 153.823 464.222 155.051 465.38 156.244C465.695 156.033 466.011 155.858 466.362 155.647C465.73 154.069 465.169 152.42 464.362 150.912C464.257 150.806 462.679 151.438 461.24 151.894ZM501.265 35.1164C501.16 34.064 501.371 32.731 500.915 32.4504C499.757 31.6787 498.284 31.363 496.951 30.8719C497.021 31.4682 496.845 32.3452 497.161 32.6258C498.108 33.3975 499.231 33.9237 501.265 35.1164ZM460.153 209.563C460.609 209.809 461.03 210.019 461.486 210.265C464.959 209.774 462.959 207.038 463.24 205.249C462.889 205.108 462.503 204.933 462.152 204.793C461.486 206.371 460.819 207.985 460.153 209.563ZM471.554 220.052C471.939 219.631 472.36 219.21 472.746 218.789C471.974 217.842 471.238 216.86 470.466 215.913C470.08 216.649 469.168 217.596 469.379 218.017C469.765 218.859 470.817 219.386 471.554 220.052ZM495.547 201.951C493.758 200.688 492.25 199.671 490.391 198.373C491.128 202.548 492.18 203.284 495.547 201.951Z" fill="#3599A6"/>
<path d="M1779.92 105.165C1779.92 117.618 1779.92 129.545 1779.92 141.471C1774.14 134.35 1766.21 136.525 1759.12 135.824C1756.63 135.578 1755.23 136.35 1755.37 139.261C1755.68 145.611 1755.89 151.96 1755.86 158.309C1755.82 172.797 1755.72 187.249 1755.51 201.737C1755.44 205.49 1756.63 207.104 1760.63 206.157C1763.47 205.49 1767.3 206.262 1769.05 204.648C1770.49 203.28 1769.61 199.352 1769.65 196.58C1769.86 185.32 1770.21 174.095 1770.17 162.834C1770.17 159.256 1771.22 157.082 1774.28 155.047C1779.4 151.644 1783.96 147.4 1788.97 143.787C1790.62 142.594 1792.87 142.243 1794.87 141.507C1795.15 143.296 1795.71 145.085 1795.71 146.839C1795.64 159.642 1795.29 172.481 1795.32 185.285C1795.36 195.458 1795.85 205.596 1795.99 215.768C1796.06 220.679 1795.74 225.59 1795.64 230.466C1795.57 233.273 1794.41 234.886 1791.39 234.886C1769.96 234.921 1748.53 234.992 1727.13 234.957C1725.38 234.957 1723.62 234.08 1721.87 233.624C1722.6 232.01 1723.59 230.502 1724.04 228.818C1725.45 223.661 1727.02 218.54 1727.8 213.278C1728.5 208.472 1728.43 203.491 1728.46 198.615C1728.5 185.425 1728.39 172.236 1728.39 159.046C1728.39 149.154 1728.57 139.261 1728.39 129.334C1728.36 126.914 1727.27 124.528 1726.5 121.547C1726.74 121.091 1727.59 119.617 1728.43 118.109C1726.32 118.354 1724.18 118.565 1720.75 118.951C1723.13 117.548 1724.85 116.706 1726.36 115.583C1727.34 114.847 1728.67 113.724 1728.67 112.777C1728.81 98.8156 1728.78 84.8893 1728.78 69.4546C1722.85 70.1211 1717.24 70.7525 1711.27 71.419C1712.71 70.4017 1714.26 69.1038 1716.01 68.1567C1717.76 67.2096 1719.66 66.3677 1721.62 65.9467C1723.83 65.4556 1726.18 65.4907 1728.85 65.2802C1727.13 51.2838 1733.16 36.7962 1721.48 24.238C1724.22 23.4663 1726.11 22.449 1727.94 22.5191C1735.13 22.8699 1742.28 23.7469 1749.44 24.0275C1752.95 24.1678 1756.49 23.2558 1760.03 23.1505C1764.24 23.0102 1768.45 23.3259 1772.66 23.1856C1777.26 23.0453 1781.85 22.6945 1786.41 22.2385C1791.53 21.7474 1793.78 23.3259 1794.24 28.5527C1794.52 32.0255 1794.38 35.5684 1794.41 39.0413C1794.59 52.3011 1794.8 65.5959 1794.94 78.8557C1795.01 87.2746 1794.94 95.6585 1794.94 105.06C1792.38 104.112 1790.87 103.797 1789.68 103.025C1784.45 99.7627 1779.12 96.6056 1774.21 92.9223C1772.38 91.5192 1770.59 88.748 1770.56 86.538C1770.35 76.4353 1770.77 66.2975 1770.94 56.1948C1771.01 52.3361 1770.28 49.9858 1765.26 50.4068C1756.7 51.1435 1756.46 50.7927 1756.32 59.2467C1756 75.1374 1756.04 91.0281 1755.79 106.919C1755.75 109.936 1756.7 111.374 1759.82 111.304C1766.03 111.163 1772.35 111.584 1777.12 106.393C1777.54 105.937 1778.42 105.831 1779.92 105.165Z" fill="#3599A6"/>
<path d="M664.559 66.2982C664.559 77.3831 664.7 87.2052 664.489 96.9922C664.384 102.359 667.576 102.535 671.505 102.535C683.116 102.464 694.727 102.5 706.373 102.5C706.373 115.058 706.584 126.879 706.093 138.701C706.023 140.069 702.024 142.279 699.778 142.349C688.729 142.735 677.644 142.525 665.086 142.525C665.086 159.573 665.086 176.586 665.086 194.371C675.644 194.371 686.659 194.757 697.604 194.231C704.549 193.88 706.233 196.265 705.812 202.965C705.146 213.524 705.637 224.153 705.637 235.027C678.275 235.027 651.405 235.027 623.342 235.027C623.342 217.242 623.201 200.615 623.377 183.988C623.903 136.175 624.534 88.3277 625.096 40.5153C625.236 28.0623 626.534 26.3434 638.882 26.133C659.227 25.7822 679.608 25.9927 699.954 25.6419C706.584 25.5366 708.899 27.7466 708.268 34.622C707.496 42.9357 707.741 51.3897 707.917 59.7736C708.022 64.8249 706.058 66.5789 701.006 66.4385C689.325 66.1228 677.679 66.2982 664.559 66.2982ZM697.954 130.843C699.533 130.668 701.147 130.457 702.725 130.282C701.743 124.81 700.761 119.337 699.814 113.865C698.866 114.005 697.884 114.181 696.937 114.321C697.288 119.793 697.639 125.301 697.954 130.843Z" fill="#3599A6"/>
<path d="M1300.89 234.956C1319.55 156.976 1337.83 80.5389 1356.14 4.06707C1357.08 4.03199 1358.03 3.96184 1358.98 3.92676C1360.07 6.59275 1361.5 9.1535 1362.17 11.9247C1372.62 55.3172 1382.94 98.7448 1393.32 142.137C1399.42 167.605 1405.56 193.037 1411.63 218.469C1412.02 220.153 1412.33 221.872 1412.47 223.59C1413.28 234.149 1412.51 234.886 1401.77 234.605C1381.92 234.079 1381.78 234.114 1377.61 214.4C1376.48 209.033 1374.24 206.367 1368.38 206.788C1362.03 207.279 1355.65 207.279 1349.3 207.138C1341.65 206.998 1338.42 211.173 1337.72 218.118C1337.58 219.556 1337.72 221.03 1337.55 222.468C1336.04 233.833 1334.84 234.851 1323.48 234.886C1316.39 234.991 1309.31 234.956 1300.89 234.956ZM1358.87 136.805C1358.14 136.595 1357.36 136.349 1356.63 136.139C1354.94 145.505 1353.05 154.836 1351.75 164.237C1351.58 165.5 1354.07 168.131 1355.61 168.411C1359.08 169.043 1362.77 168.622 1366.24 168.622C1363.61 157.291 1361.26 147.048 1358.87 136.805Z" fill="#3599A6"/>
<path d="M126.414 116.602C135.394 122.179 143.708 126.213 150.723 131.896C171.876 149.12 170.683 180.656 160.195 199.107C158.09 202.79 153.705 205.211 150.197 208.017C147.18 210.403 142.971 211.841 140.936 214.822C134.271 224.539 124.625 226.504 113.926 229.205C82.4599 237.097 50.7487 234.782 19.0374 234.151C5.07602 233.87 3.63779 233.099 3.21684 218.821C2.1294 181.357 1.84877 143.858 1.21735 106.359C0.86656 85.3465 0.410535 64.3343 0.0246682 43.287C-0.291041 26.1685 2.23464 24.2041 18.6515 23.1868C48.4685 21.3276 78.5662 21.1873 108.418 22.9062C125.923 23.9234 142.866 31.1146 152.056 47.9174C165.281 72.0516 160.089 96.3963 134.552 111.936C132.202 113.41 129.746 114.707 126.414 116.602ZM55.3089 166.449C55.8702 199.177 58.9571 201.457 88.5636 194.336C88.9144 194.266 89.2652 194.231 89.616 194.161C102.034 191.109 110.348 180.129 109.716 167.606C109.12 155.259 99.5082 145.717 86.2484 144.279C82.039 143.823 77.7944 143.472 73.6201 142.665C56.5717 139.438 55.0634 140.666 55.2738 157.749C55.3791 161.678 55.3089 165.572 55.3089 166.449ZM54.9932 106.674C68.8493 103.903 80.4955 102.71 91.2998 99.0623C100.315 96.0455 105.822 87.7318 104.349 78.0852C102.946 68.9647 97.4386 61.528 86.8097 60.8264C76.707 60.1248 66.5692 59.8793 54.9932 59.3881C54.9932 74.9982 54.9932 88.9245 54.9932 106.674Z" fill="#3599A6"/>
<path d="M736.155 216.995C740.89 212.119 745.696 207.349 750.362 202.402C756.851 195.527 768.252 188.897 768.778 181.531C771.514 143.891 771.69 106.041 772.146 68.261C772.321 53.5981 768.989 41.1451 749.59 41.3556C746.293 41.3907 740.329 33.5681 740.329 29.3586C740.329 25.1842 746.503 17.2564 749.66 17.4318C806.277 20.4837 862.895 24.0617 919.442 28.4816C944.663 30.4461 947.399 51.5284 948.662 70.0851C949.96 89.0979 938.63 102.498 921.231 110.145C916.6 112.18 911.619 113.337 906.427 115.021C907.269 118.143 907.48 121.932 908.427 122.107C937.297 127.755 937.718 149.153 936.35 171.673C936.139 175.392 935.297 179.496 936.49 182.793C939.296 190.686 943.12 198.228 946.558 205.91C951.469 199.701 956.309 193.387 961.361 187.283C964.483 183.495 967.991 180.057 971.323 176.444C973.358 180.689 977.146 184.933 977.111 189.178C977.006 217.171 959.993 234.254 932.561 234.921C905.41 235.587 886.959 219.907 884.643 193.247C883.486 179.812 884.643 166.166 883.416 152.731C881.732 134.069 867.034 126.036 839.392 127.018C821.186 127.649 822.554 139.682 823.15 152.45C823.606 162.202 821.396 172.059 821.817 181.811C822.379 194.475 824.974 205.875 842.128 205.875C845.671 205.875 849.249 212.33 852.792 215.803C848.933 219.416 845.145 226.046 841.181 226.151C808.137 226.993 775.057 226.642 741.978 226.642C740.048 223.485 738.119 220.258 736.155 216.995ZM820.73 74.014C823.326 90.0801 812.521 112.951 844.724 111.373C882.048 109.549 897.096 100.955 897.552 76.4695C898.008 50.9321 878.785 37.9179 839.672 38.6545C812.977 39.1456 823.712 60.4735 820.73 74.014Z" fill="#3599A6"/>
</svg>
